<?xml version="1.0" encoding="utf-8"?>
<!-- Generator: Adobe Illustrator 27.5.0, SVG Export Plug-In . SVG Version: 6.00 Build 0)  -->
<svg version="1.1" id="Layer_1" xmlns="http://www.w3.org/2000/svg" xmlns:xlink="http://www.w3.org/1999/xlink" x="0px" y="0px"
	 viewBox="0 0 1000 708.9" style="enable-background:new 0 0 1000 708.9;" xml:space="preserve">
<style type="text/css">
	.st0{fill:#070504;}
	.st1{fill:none;}
	.st2{fill:#FFC456;}
</style>
<path class="st0" d="M388.7,101.9c0.4-1.1-0.7-1.8-1.2-2.6c-2.6-4.6-1.3-7.9,3.7-9.6c2.1-0.7,4.2-0.9,6.4-0.7c4.2,0.2,5.2,1,6.6,5.1
	c2.9-1.9,5.8-3.8,8.8-5.6c2.4-1.5,5-2.7,7.7-3.4c5.9-1.4,8.9,1.1,8.9,7.2c-0.1,2.5-0.9,4.9-2.3,7c-3.1,5.1-6.5,10-10.1,14.8
	c-0.8,1.1-1.7,2.1-2.5,3.2c-0.5,0.7-1.8,2.4-1.3,3.3c0.6,1.3,2.9-0.6,3.6-1c8.4-5.5,16.5-11.3,24.3-17.5c1.7-1.3,3.3-2.9,5.8-2
	c1.9,0.7,1.9-1,2.2-1.8c5.9-14.4,13-28.4,19.4-42.6c1.4-3.2,2.8-6.4,4.4-9.5c1.7-3.4,5.3-5.3,9.1-4.8c3.1,0.5,4.6,2.6,3.8,5.7
	c-0.5,1.6-1.2,3.1-2,4.5c-5.7,11.6-11.4,23.3-17.1,34.9c-0.1,0.3-0.4,0.9-0.2,1.2c0.4,0.7,1.6-0.4,1.9-0.7c1.1-0.7,2.3-1.2,3.4-1.8
	c2.4-1.3,5-2.4,7.6-3.2c1-0.3,2.1-0.6,3.2-0.8c8.5-1.5,17.5,5.5,14.4,15.9c-0.7,2.5-1.6,5-2.5,7.4c-0.5,1.1-0.9,2.2-1.4,3.3
	c-0.6,0.9-0.8,1.9-0.6,2.9c5.3,1.2,10.1-0.6,14.8-2.6c1.5-0.6,1.8-2.3,2.6-3.5c8.7-11.8,19.9-18.4,35-16.9c9.4,1,13,8.3,8.2,16.5
	c-1.8,2.8-4.3,5.1-7.2,6.7c-6.7,3.9-14,6-21.4,7.8c-0.8,0.2-1.6,0.3-2.4,0.5c-2,0.5-1.8,1.7-0.7,3c1.5,1.6,3.6,2.6,5.8,2.6
	c4.8,0.3,9.7-0.2,14.3-1.5c5.8-1.6,11.4-3.4,17-5.7c2.1-0.8,4.3-2.1,6.4,0.2c0.8,0.9,1.5,0.3,2-0.3c2.4-2.6,4.7-5.2,7.2-7.7
	c1.1-1.2,0.9-2.3,0.7-3.7c-1-4.9,2.8-8.1,8-7.1c2.5,0.4,4.8,1.4,6.8,2.9c1.8,1.3,3.5,2.7,2.7,5.3c-0.2,0.4-0.6,0.9-0.5,1
	c0.4,0.6,1,0.4,1.5,0.1c3-0.4,5.9-0.9,8.9-1.2c2.3-0.2,4.7-0.2,7,0c3,0.3,6.4,0.7,7.5,4s-0.3,6.6-2.7,9.2c-2.2,2.3-4.8,4.2-7.6,5.6
	c-4.5,2.6-9,5-13.5,7.5c-1,0.6-2.1,0.9-3,1.6c-0.5,0.3-0.9,0.7-1.2,1.2c-0.9,1.7,2.8,0.9,3.5,0.8c1.3-0.1,2.7-0.3,4-0.5
	c2.6-0.4,5.1-0.9,7.7-1.3c7.9-1,15.5-3.9,23.5-4.2c1.3-0.1,2-1.1,2.9-1.8c2.5-2.2,5-4.4,7.6-6.5c1.8-1.5,3.9-2.5,6.4-1.7
	c4.9,1.5,6.1,6.7,2.3,10.2c-4.4,4-9.1,7.8-13.6,11.8c-2.2,1.8-4.1,3.9-5.5,6.4c-1.1,2-0.5,3.5,1.6,4.4c3,1.3,6.2,1.2,9.3,0.6
	c4.9-1,9.7-2.5,14.2-4.5c1.2-0.5,2.5-1.7,3.7-1.2c3.4,1.3,5.6-0.9,8.1-2.3c9-5,18.4-6.7,28.2-2.7c4.5,1.8,8.1,4.7,10.1,9.2
	c0.6,2,2.5,3.2,4.5,3c1.3,0,2.6,0.5,3.7,1.4c3,2.2,3.3,5.5,0.5,8c-3.7,3.3-7.7,6.4-11.5,9.6c-2.5,2-4.7,4.2-6.6,6.8
	c-1.1,1.5-2.2,3.2-1.3,5.1s3,2,4.8,2c5.5,0,10.9-1.2,16.3-2.4c1.4-0.3,2.9-0.7,4.3-1c1.1-0.4,2.4,0,3.1,0.9c0.9,1.5,0.8,3.3-0.3,4.7
	c-0.8,1.1-2,1.8-3.3,2c-9.2,2.3-18.5,4.4-28.1,3.9c-0.8,0-1.7-0.1-2.5-0.2c-8.5-1-12-7.4-8.1-15.1c0.3-0.6,0.7-1.2,1-1.8
	c0.3-0.4,1.1-1.3,0.7-1.7c-0.7-0.9-2.1-0.1-2.9,0.3c-1.3,0.5-2.7,0.9-4.1,1.1c-3.1,0.8-6.2,1.2-9.3,1.5c-5.9,0.4-12.1-2.2-15-7.6
	c-1-1.9-1.5-4-1.6-6.1c0-1.5,0.3-3,0.7-4.4c0.1-0.5,0.6-1.5,0.3-2s-1-0.4-1.4-0.4c-0.7,0.2-1.4,0.4-2.1,0.7
	c-6.2,1.9-12.5,3.4-19.1,2.8c-2-0.2-3.9-0.6-5.8-1.4c-7-2.8-9.2-8.3-6.3-15.3c0.3-0.7,0.7-1.3,1.1-1.9s1-1.6,0.6-2.3
	c-0.3-0.6-1.3-0.6-1.9-0.5c-1,0.3-2,0.6-3,0.9c-1.1,0.3-2.2,0.6-3.3,0.9c-2.2,0.6-4.4,1.1-6.6,1.6c-2.4,0.5-4.8,1-7.2,1.4
	c-3.6,0.6-7.3,1.1-10.8-0.3c-6-2.2-7.7-6.8-4.4-12.3c2.1-3.2,4.7-6.1,7.8-8.3c3.2-2.6,6.6-5.1,9.8-7.7c1-0.8,2.4-1.9,2.7-3.2
	c0.6-2.2-2.2-1.6-3.5-1.6c-1.1,0-2.2,0.1-3.3,0.3c-4.5,0.6-8.5,2.8-11.4,6.3c-4.2,5.1-8.9,9.9-13.3,14.9c-2.3,2.7-5.5,4.5-8.9,5.1
	c-2.2,0.4-4.5,0.5-5.9-1.6c-1.5-2.2,0.1-4.1,1.3-5.8s3.1-2.6,3.7-4.6c-1.3-1.5-2.4-0.2-3.5,0.2c-8.2,3.3-16.5,6.1-25.5,6.3
	c-1.7,0-3.3,0-5-0.1c-8.6-0.6-13.5-4.4-15.9-12.6c-0.7-2.3-1.2-3.4-4-2.5c-5.7,1.8-11.6,3.5-17.4,0.1c-0.9-0.5-1.5,0.1-2.1,0.7
	c-1.3,1.3-2.6,2.6-4,3.8c-5.9,5.3-13.7,8-21.6,7.6c-8.5-0.4-13.1-4.9-13.7-13.4c-0.1-1.6,0.2-3.2,0-4.8c-0.1-0.6-0.1-1.4-0.7-1.7
	c-1.1-0.7-2,0.7-2.7,1.3c-6.4,5.3-12.5,11-19.5,15.5c-3.2,2.1-6.5,4.1-10.5,4c-5.4-0.1-8.4-3.1-8.1-8.4c0.2-4.3,1.8-8.1,3.6-11.8
	s3.8-7,5.5-10.6c0.4-0.8,0.8-1.6,1.1-2.5c0.2-0.7,0.2-1.4,0-2.1c-0.3-1.2-1.7-0.8-2.5-0.4c-3.1,1.5-6.2,3.3-8.4,6
	c-1.1,1.3-1.9,2.9-2.5,4.5c-2.3,6.9-4.4,14-6.4,21c-0.9,3.6-3.1,6.7-6.1,8.8c-2,1.3-4.2,2.7-6.4,0.9c-1.9-1.6-1.5-3.8-0.8-6
	c1.2-3.6,2.2-7.3,3.3-11C383,120.6,386.9,106.6,388.7,101.9z M484.2,99c0-5.6-2.3-7.4-7.9-6.3c-4.9,1-9.4,3.6-12.6,7.4
	c-3.3,3.6-5.9,7.7-5.9,12.8c-0.1,4.9,2.1,7.1,7,6.8C474.3,119.1,484.2,108.6,484.2,99z M679.9,152.7c-7.5,0.3-13.5,3.4-17.1,10.2
	c-3.1,5.7-0.5,9.7,5.9,9.1c7.2-0.7,13.9-3.4,20.1-7c2.9-1.7,3.4-3.8,1.6-6.8C688.1,154.3,684.5,152.6,679.9,152.7z M521.8,110.9
	c3.7-0.9,7.2-2.1,10.7-3.6c1.7-0.8,3.4-1.6,5.1-2.4c1.7-0.7,3.3-1.7,4.8-2.8c0.6-0.5,1.1-1.2,1.3-1.9c0.4-1.6-0.6-3.2-2.3-3.6
	c0,0,0,0-0.1,0c-4.2-1.1-9.3,1.7-12.3,4.4c-1.5,1.4-2.9,2.9-4,4.6c-0.6,0.9-1.1,1.7-1.7,2.6C523.1,108.5,522.1,110.8,521.8,110.9z"
	/>
<path class="st0" d="M254.5,118.5c5-6.2,9-12.3,11.2-19.3c0.5-1.4,0.8-2.9,0.9-4.4c0.3-4.6-1.9-6.5-6.4-5.6c-2.6,0.6-5.1,1.6-7.4,3
	c-9.1,5.4-15.8,13.1-21,22.2c-2.9,5-5.3,10.4-7.1,15.9c-0.8,2.6-1.8,5-4.2,6.6c-4.2,2.7-8,1.1-8.9-3.8c-0.4-3-0.2-6,0.9-8.8
	c3.8-12.1,11.3-21.7,20.4-30.3c7.9-7.5,16.9-13.5,27.6-16.4c2.3-0.6,4.6-0.8,6.9-0.7c8.3,0.4,13.3,6.4,12.1,14.8
	c-1,7-4,13.3-7.9,19.2c-2,3-4.1,5.9-6.7,9.5c3-0.3,5.2-0.4,7.3-0.7c3.5-0.4,7-0.3,10.4,0.4c7.8,1.4,13.7,7.9,14.3,15.8
	c0.4,6-0.8,12-3.6,17.4c-6,12.6-15.1,22.6-26,31.1c-4.9,3.9-10.3,7.3-16,10c-3.1,1.4-7.2,3.1-10.7,2.4c-2.9-0.6-5.3-3.4-4.2-6.4
	c0.8-2.1,2.9-3.6,4.7-4.9c1.2-0.8,2.4-1.4,3.6-2.1c0.1-0.1,0.6-0.3,0.6-0.4c0.2-2.1,0.3-4.3,0.2-6.4c-0.8-14.8-1.3-29.6-1.9-44.4
	c-0.1-3,0-6,0-9c0-1.2,0.1-2.3,0.2-3.5c0.6-3.4,2.2-5.2,4.9-5.5C251.4,113.8,252.4,114.5,254.5,118.5z M259.2,174.8
	c7.9-5.6,16-13.1,20.4-21.9c1.3-2.5,2.1-5.2,2.4-8.1c0.5-7.3-2.6-11.7-9.8-13.4c-4.3-1-8.8-0.5-13.2,0l-1.3,0.1
	c-0.1,0.8-0.1,1.6,0,2.4c0.2,4.4,0.7,8.8,1,13.2s0.4,8.9,0.5,13.3S259.1,174.4,259.2,174.8L259.2,174.8z"/>
<path class="st0" d="M380.7,121c-3,5.4-6.3,10.6-10,15.5c-2,2.7-4.4,5-7.1,6.9c-5.1,3.4-10.5,2.2-13.6-3.1c-1.3-2.3-2.1-4.8-2.5-7.4
	c-1.6,3.4-3,6.5-4.6,9.5c-1.9,3.9-4.7,7.3-8.2,9.9c-4.7,3.5-11.7,4-16.5,0.4c-3.3-2.5-4.7-6.5-5.2-10.4c-0.6-3.5-0.8-7-0.8-10.5
	c0.2-7,2.5-13.8,6.5-19.6c1.4-2,3-3.8,4.8-5.5c5.6-5.4,12.5-8.3,20.5-5.7c1.4,0.6,3,0.2,4-1c0.9-1,2-1.8,3.2-2.3
	c4-1.6,7.1,0.3,7.3,4.6c0.1,2.8-0.1,5.7-0.3,8.5c-0.3,4.7-0.2,9.4,0.3,14c0.1,1.3,0.4,2.6,0.9,3.9c1.5,3,3.3,3.5,5.8,1.3
	c2.8-2.4,4.7-5.6,6.6-8.7c1.7-2.8,3.2-5.8,4.8-8.7c0.9-1.6,1.6-3.6,3.9-3C386.4,111,382.5,118,380.7,121z M323.4,130.8
	c-0.2,3.1,0.7,6.1,2.4,8.6c1.2,1.7,3.2,2.6,5.3,2.5c2.3-0.2,3.7-2.3,4.9-4.1c1.9-2.9,3.4-5.9,4.6-9.1c1.4-3.2,2.4-6.6,3-10.1
	c0.5-2.2-0.8-4.4-2.9-5c-3.8-1.4-7.2-0.6-10.2,1.8c-3.4,2.8-5.7,6.7-6.6,11.1C323.5,128,323.4,129.4,323.4,130.8L323.4,130.8z"/>
<path class="st0" d="M659.3,119.6c-2.4,0.1-4.6-0.7-6.4-2.3c-0.8-0.7-1.4-1.6-1.8-2.6c-1.4-4.2,2.9-7.7,6.6-8.5
	c3.3-0.7,6.8,0.4,9,2.9c2.8,3.3,0.3,7.2-2.9,9C662.5,119,660.9,119.5,659.3,119.6z"/>
<path class="st1" d="M885.4,388.4c0,23.1-2.5,42.6-7.6,59.6c-2.3,7.7-5.1,15.8-9.6,22.8c-5.2,8.3-13.4,14.2-22.8,16.5
	c-10.9,2.9-22.5,2.9-33.4-0.1c-12-3.2-20.4-10.5-25.9-22.3c-5-10.9-8.5-23.1-10.8-37.4c-2.5-16.7-3.5-33.6-2.8-50.4
	c0.8-23.3,3.8-41.9,9.3-58.5c1.8-6,4.3-11.7,7.3-17.1c5.1-9.1,13.8-15.7,24-18.2c5.2-1.4,10.5-2.1,15.8-2.1c5.3,0,10.5,0.7,15.6,2.1
	c12.8,3.4,21.8,11.5,27.5,24.9c6.6,15.5,10.7,33.3,12.4,54.4C885.1,370.2,885.3,377.8,885.4,388.4z"/>
<path class="st0" d="M675.3,284.2c-2.9,1.8-6.1,2.9-9.5,3.3c-3.8,0.5-7.6,1.3-11.2,2.5c-8.1,2.6-10.9,6.3-11.2,14.5
	c-0.4,12.6-0.6,25.4-0.8,37.8c-0.1,3.5-0.1,7-0.2,10.5c-0.2,12.6-0.5,25.2-0.7,37.8c-0.5,26.9-1,54.8-1.6,82.2
	c-0.3,13.9-0.5,26.1-0.7,37.4c0,2.6-0.1,7.5-3.5,11.6s-7.7,5-10.4,5.7c-2.4,0.6-4.9,0.8-7.3,0.8c-3.2,0-6.4-0.4-9.6-1
	c-5.6-1-8.9-4.5-10.9-6.5l-0.5-0.5c-21.1-21.3-42.2-42.7-63.3-64l-28.6-28.9c-21-21.3-42.7-43.1-64.2-64.9v2.4
	c-0.2,17.6-0.5,35.7-0.9,53.6c-0.4,15.5-0.6,31.6-0.8,49.3c-0.1,8.2,2.1,11.2,9.9,14.1c4.1,1.4,8.3,2.4,12.6,2.8
	c12.2,1.4,18.6,9.6,17.2,21.8c-0.2,1.8-0.6,3.5-1.1,5.2v0.2c-1.8,7-7.4,11.4-14.5,11.4c-0.4,0-0.9,0-1.3,0
	c-4.9-0.4-9.7-0.5-14.9-0.7c-4.2-0.1-8.6-0.3-12.9-0.6c-6.6-0.4-13.1-0.6-19.3-0.6c-7,0-14,0.3-20.5,0.8c-5.1,0.4-10.2,0.6-15.1,0.8
	c-2.7,0.1-5.5,0.2-8.2,0.3h-1c-7.1,0.1-13.3-4.7-14.9-11.6c-1.1-4-1.3-8.2-0.6-12.2c1.5-8.6,6.5-13.4,15.2-14.5
	c5.2-0.6,10.2-1.8,15.1-3.5c5.4-2,7.9-5.2,8.6-11c0.4-3.2,0.6-6.6,0.7-9.5l0.4-11.3c0.6-17.2,1.2-35.1,1.9-52.6
	c0.4-11.2,0.9-22.4,1.3-33.6c0.6-14.5,1.1-29.5,1.7-44.3c0.3-4.6,0-9.3-0.9-13.9c-1.6-8.2-5.7-12.8-13.6-15.3
	c-3.6-1.2-7.3-2.1-11.1-2.6h-0.5c-2.5-0.3-9.1-1-12.9-7.1c-0.3-0.5-0.6-1.1-0.9-1.6c-0.8,2-2.1,3.7-3.7,5.1
	c-3.5,3.1-7.7,3.4-10.1,3.6c-4.4,0.5-8.8,1.4-13,2.7c-5.8,1.7-8.2,4.6-8.9,11c-0.3,3.2-0.5,6.3-0.5,9.4c0,10.1,0,20.2,0,30.4
	c0,25.1,0,51.1,0,76.6c0,16.9-1.8,29.7-5.9,41.5c-9.3,26.5-24,45.2-45.1,57c-10.6,5.9-22.2,9.8-34.2,11.2
	c-9.4,1.2-18.8,1.8-28.3,1.8c-19.7,0.1-39.3-3-58-9.1c-24-8-42.3-21.8-54.4-40.9c-7.6-12-12.6-25.8-15.3-42.4
	c-1.6-10.8-2.3-21.7-2.2-32.7c0-18.6,0-37.6,0-55.9c0-13.7,0-27.4,0-41.1c0-2.8-0.2-5.6-0.8-8.4c-0.9-4.7-3-6.4-5.8-7.6
	c-4.5-1.8-9.3-3-14.1-3.5l-0.6-0.1c-2.7-0.3-9.7-1.1-13.5-7.8c-4-7-2.8-14.1-2-18.3c1.3-7.5,7.1-12.3,14.8-12.3H59
	c4.7,0.1,9.5,0.2,14.1,0.3c6.7,0.1,13.6,0.2,20.5,0.5c12.2,0.5,23.6,0.8,34.8,0.8s22.5-0.3,33.1-0.8c7.2-0.4,14.4-0.5,21.3-0.6
	c4.1-0.1,8.3-0.1,12.4-0.2h0.5c7,0,12.4,4.1,14.6,11c0.9,3,1.3,6.1,1.1,9.3c-0.2,4.2-0.9,9-4.6,12.9c-4.1,4.3-9.8,5-12.5,5.3
	c-4.2,0.5-8.3,1.4-12.2,2.8c-4.7,1.6-7,4.5-7.7,10c-0.4,3-0.6,6-0.6,9v12.1c0,32.4-0.1,65.9,0.1,98.9c0.1,15.3,1.2,32.7,9.3,45.6
	c10,15.9,30.6,17.7,39,17.7c9.9,0,19.7-2,28.7-5.9c24.7-11.1,27.2-45.7,27.3-56.1c0.2-13.3,0.1-26.9,0.1-40.1c0-5.7,0-11.5,0-17.2
	v-11h0.1v-4.5c0-14,0-28,0-42c0.1-3.4-0.5-6.8-1.5-10.1c-0.7-2.3-2.4-4.1-4.6-4.9c-5-2.1-10.3-3.5-15.8-4.1
	c-9.2-1.2-13.8-5.4-15.6-14.4c-0.7-3.6-0.7-7.3,0-10.9c0.4-2,1.4-6.8,5.7-10c3.9-2.9,8.1-3,10.5-3h1.7c7,0,13.9,0.4,20.6,0.8
	c4,0.2,8.2,0.5,12.2,0.6c2.5,0.1,5,0.1,7.8,0.1c8.2,0,16.8-0.4,25-0.8c5.2-0.3,10.6-0.5,15.9-0.7c1.1,0,2.1-0.1,3.2-0.1h0.5
	c2.5,0,9,0,13.7,4.8c1,1,1.8,2.1,2.5,3.3c1.7-3.4,5.8-8.2,14.7-8.2c0.6,0,1.1,0,1.7,0h0.3c5.3,0.1,10.5,0.5,15.6,0.8
	c7.2,0.4,14,0.8,20.8,0.8c2.7,0,5.2-0.1,7.6-0.2c3-0.2,6.2-0.4,9.2-0.6c5.7-0.4,11.6-0.8,17.6-0.9h0.7c6.2-0.1,12.1,2.4,16.2,7
	c19.6,20.5,39.6,41.4,58.9,61.5c5.1,5.3,10.3,10.7,15.4,16.1l3.4,3.6c18.8,19.5,38,39.6,57.2,59.5c0-30.2,0-60.4,0-90.6
	c0-1.5-0.1-2.9-0.3-4.4c-0.8-5.2-3.2-8.2-8.3-10.2c-5.4-2-11-3.4-16.8-4.1c-9.6-1.3-14.5-6.4-15.6-15.9c-0.2-1.8-0.2-3.6-0.1-5.4
	c0.2-2.8,0.5-8.5,5-12.7s10.1-4.2,12.9-4.2h0.7c7.8,0,15.6,0.6,23.1,1.2c2.9,0.2,6,0.5,9,0.6s6.3,0.3,9.7,0.3
	c8.3,0,16.5-0.5,25.2-1.1l1.6-0.1c5-0.3,10.1-0.5,15-0.6c2.3-0.1,4.6-0.1,6.8-0.2h0.6c7,0,14.4,4.9,15.4,15.9
	C684.2,276.7,678.7,282.1,675.3,284.2z"/>
<path class="st0" d="M981.7,374.9c-1.6-22.5-7.8-43-18.2-60.9c-19.7-33.8-48-55.9-84.1-65.7c-16.3-4.4-33.2-6.6-50.1-6.6
	c-14.6,0-29.3,1.6-43.6,4.7c-43.5,9.3-75.9,35.1-96.2,76.6c-14.6,29.8-18.2,61.7-10.9,94.8c5.3,24.1,15.3,44.8,29.5,61.6
	s33.2,30,56.1,39c18.2,7.2,38.1,10.5,62.7,10.5h2.1c1.1,0,2.2,0,3.3,0c15.7,0.1,31.3-1.9,46.4-5.8c43.9-11.5,75.2-38.9,93.2-81.6
	C980.3,421.5,983.5,399.7,981.7,374.9z M845.4,487.3c-10.9,2.9-22.5,2.9-33.4-0.1c-12-3.2-20.4-10.5-25.9-22.3
	c-5-10.9-8.5-23.1-10.8-37.4c-2.5-16.7-3.5-33.6-2.8-50.4c0.8-23.3,3.8-41.9,9.3-58.5c1.8-6,4.3-11.7,7.3-17.1
	c5.1-9.1,13.8-15.7,24-18.2c5.2-1.4,10.5-2.1,15.8-2.1c5.3,0,10.5,0.7,15.6,2.1c12.8,3.4,21.8,11.5,27.5,24.9
	c6.6,15.5,10.7,33.3,12.4,54.4c0.6,7.7,0.8,15.2,0.9,25.8c0,23.1-2.5,42.6-7.6,59.6c-2.3,7.7-5.1,15.8-9.6,22.8
	C863.1,479.1,854.9,485,845.4,487.3z"/>
<path class="st2" d="M655.8,260.8c-1.5,0.9-3.2,1.4-5,1.6c-4.5,0.6-8.9,1.6-13.1,3c-12.4,4-18.3,11.6-18.8,24.6
	c-0.5,16.1-0.7,32.3-1,48.5c-0.8,40-1.4,80-2.3,119.9c-0.3,12.5-0.5,25-0.7,37.5c-0.1,4.9-0.8,5.6-5.4,6.8c-1.6,0.4-3.2,0.6-4.8,0.5
	c-2.6-0.1-5.1-0.3-7.6-0.9c-2.5-0.5-4-2.3-5.6-4c-21.1-21.3-42.2-42.7-63.3-64c-35.3-35.6-70.6-71.3-105.8-107
	c-1.5-1.5-2.8-3.3-4.1-5l-1.2,0.5c-0.1,1.2-0.2,2.4-0.2,3.6c-0.4,25.8-0.6,51.6-1.3,77.5c-0.4,16.5-0.7,33-0.8,49.5
	c-0.1,12.9,5,20.1,17.2,24.5c4.9,1.7,9.9,2.8,15,3.4c6.2,0.7,8.3,3.4,7.6,9.6c-0.2,1.3-0.5,2.6-0.8,3.9c-0.5,2.1-1.7,3.2-3.8,3.2
	c-0.2,0-0.3,0-0.5,0c-9.3-0.7-18.6-0.7-28-1.3c-6.7-0.4-13.3-0.6-20-0.6c-7.1,0-14.3,0.3-21.4,0.9c-7.6,0.6-15.3,0.7-23,1.1h-0.4
	c-2.3,0-3.6-1-4.3-3.4c-0.7-2.4-0.8-4.9-0.4-7.4c0.7-3.9,1.9-5,5.9-5.6c5.9-0.7,11.8-2.1,17.5-4c9.4-3.5,14.5-10.1,15.8-20
	c0.4-3.5,0.6-7,0.8-10.5c0.8-21.3,1.5-42.6,2.3-63.9c1-26,2-51.9,3-77.9c0.3-5.5,0-11-1-16.4c-2.4-12.1-9.4-19.9-21-23.6
	c-4.3-1.4-8.6-2.4-13.1-3c-1.8-0.2-4.2-0.3-5.2-2c-1.9-3.2-1.7-8.3-0.5-11.8c0.8-2.4,2.9-2.7,5.1-2.7c0.6,0,1.1,0,1.7,0
	c12.3,0.4,24.5,1.6,36.8,1.6c2.7,0,5.4-0.1,8.2-0.2c8.8-0.5,17.6-1.3,26.4-1.5h0.4c3.2-0.1,6.2,1.2,8.3,3.6
	c24.7,26,49.4,51.8,74.3,77.6c25.4,26.4,50.8,52.9,76.2,79.3c0.9,0.9,1.5,2.2,3.4,2.5v-3.9c0-37.7,0-75.3,0-113c0-2-0.1-4-0.4-6
	c-1.4-9.2-6.4-15.4-15.1-18.8c-6.2-2.4-12.8-3.9-19.4-4.7c-4.6-0.6-5.7-1.7-6.2-6.3c-0.1-1.2-0.1-2.3-0.1-3.5
	c0.3-5.6,1.4-6.6,6.9-6.6h0.6c10.5,0,20.9,1.1,31.3,1.8c3.5,0.2,7,0.3,10.4,0.3c9.2,0,18.3-0.6,27.5-1.2c7.2-0.5,14.3-0.5,21.5-0.8
	h0.2c3.1,0,4.2,3.3,4.5,5.9C658.9,254.9,658.7,258.9,655.8,260.8z"/>
<path class="st2" d="M337.7,253.7c-0.1,1.3-0.3,2.6-0.7,3.9c-1,3.9-1.3,4.2-5.4,4.6c-5.1,0.5-10.2,1.6-15.1,3.1
	c-10.4,3-15.7,9.9-16.8,20.5c-0.4,3.5-0.5,7-0.5,10.5c0,35.7,0,71.3,0,107c0,12.9-1,25.6-5.3,37.9c-7.5,21.5-19.7,39.6-40.1,51
	c-9.3,5.2-19.6,8.6-30.2,9.9c-8.9,1.1-17.9,1.7-26.9,1.7c-18.5,0.1-36.9-2.8-54.5-8.5c-20.1-6.7-37-18-48.6-36.3
	c-7.4-11.7-11.5-24.7-13.7-38.2c-1.5-10.2-2.2-20.5-2-30.9c0.1-32.3,0.1-64.7,0-97c0-3.5-0.3-7-0.9-10.4
	c-1.4-7.4-5.3-12.8-12.4-15.7c-5.4-2.2-11.1-3.6-16.9-4.3c-2-0.3-4.8-0.3-5.9-2.4c-2-3.5-1.4-7.2-0.7-10.9c0.4-2.2,1.6-3.2,4-3.2
	h0.2c11.5,0.3,23,0.3,34.5,0.8c11.8,0.5,23.5,0.8,35.3,0.8c11.2,0,22.4-0.2,33.7-0.8s22.3-0.5,33.5-0.8h0.2c2.3,0,3.4,1.2,4.1,3.3
	c0.5,1.8,0.7,3.6,0.6,5.4c-0.3,5.9-1.5,7.1-7.4,7.8c-5,0.6-9.8,1.7-14.5,3.3c-8.9,3.1-13.7,9.6-15,18.8c-0.5,3.5-0.7,7-0.7,10.5
	c0,37-0.1,74,0.1,111c0.1,17.3,1.5,36.2,10.9,51.4c10.1,16.2,29.2,22.8,48.4,22.8c11.4,0,22.7-2.3,33.2-6.9
	c25-11.2,33.4-40.7,33.8-65.9c0.3-19.2,0.1-38.3,0.1-57.5h0.1c0-19.2,0-38.3,0-57.5c0.1-4.7-0.7-9.3-2.2-13.7
	c-1.7-5.1-5.6-9.3-10.6-11.4c-6-2.5-12.3-4.2-18.7-4.9c-4.6-0.6-5.4-1.3-6.3-5.7c-0.4-2.1-0.4-4.3,0-6.5c0.7-3.7,1.5-4.2,5.4-4.2
	h1.6c10.8,0,21.6,1.1,32.3,1.5c2.7,0.1,5.5,0.1,8.2,0.1c13.8,0,27.5-1.1,41.3-1.5c1,0,2-0.1,3-0.1h0.4
	C336.3,245.9,337.8,247.5,337.7,253.7z"/>
<path class="st2" d="M958.3,362.3c-1.5-19.9-6.6-38.7-16.7-55.9c-17.8-30.4-43.2-51.1-77.5-60.3c-15.4-4.1-31.3-6.2-47.2-6.2l0,0
	c-13.9,0-27.7,1.5-41.3,4.5c-41.1,8.7-70.3,33-88.6,70.3c-13.6,27.7-16.7,57.1-10,87.1c9.9,44.5,36.2,75.6,78.8,92.3
	c18.7,7.3,38.3,9.7,58.7,9.7h2.1h3.3c14.7,0.1,29.4-1.7,43.7-5.4c41-10.7,69.4-36.1,85.8-74.9C957.6,403.9,959.9,383.4,958.3,362.3z
	 M875.9,437.4c-2.7,8.9-5.8,17.7-10.9,25.6c-6.7,10.5-17.2,18.1-29.3,21.1c-12.8,3.4-26.2,3.3-39-0.1c-15.4-4.1-26.3-13.8-33-28.2
	c-5.7-12.8-9.7-26.3-11.7-40.1c-2.7-17.3-3.7-34.8-3-52.3c0.7-20.8,3.2-41.4,9.9-61.3c2.1-6.7,4.9-13.1,8.3-19.2
	c6.6-11.6,17.7-19.9,30.6-23.2c6.1-1.6,12.3-2.4,18.6-2.4c6.3,0,12.5,0.8,18.5,2.4c16.8,4.4,28,15.4,34.8,31.1
	c7.9,18.4,11.6,37.7,13.3,57.6c0.7,8.3,0.8,16.6,1,26.5C884,395,882.2,416.5,875.9,437.4z"/>
<path d="M669.6,250.8c-1-11-8.4-15.9-15.4-15.9h-0.6c-2.3,0.1-4.6,0.1-6.8,0.2c-4.9,0.1-9.9,0.3-15,0.6l-1.6,0.1
	c-8.7,0.6-16.9,1.1-25.2,1.1c-3.5,0-6.7-0.1-9.7-0.3s-6-0.4-9-0.6c-7.5-0.6-15.2-1.2-23.1-1.2h-0.7c-2.8,0-8.5,0-12.9,4.2
	s-4.8,10-5,12.7c-0.1,1.8-0.1,3.6,0.1,5.4c1.1,9.6,6.1,14.6,15.6,15.9c5.7,0.7,11.4,2.1,16.8,4.1c5.1,2,7.5,5,8.3,10.2
	c0.2,1.4,0.3,2.9,0.3,4.4c0,30.2,0,60.4,0,90.6c-19.2-20-38.4-40-57.2-59.5l-3.4-3.6c-5.1-5.3-10.3-10.7-15.4-16.1
	c-19.3-20.1-39.3-41-58.9-61.5c-4.1-4.6-10.1-7.1-16.2-7H434c-5.9,0.1-11.9,0.6-17.6,0.9c-3,0.2-6.1,0.4-9.2,0.6
	c-2.4,0.1-4.9,0.2-7.6,0.2c-6.8,0-13.6-0.4-20.8-0.8c-5.1-0.3-10.4-0.6-15.6-0.8h-0.3c-0.6,0-1.1,0-1.7,0c-8.9,0-12.9,4.8-14.7,8.2
	c-0.7-1.2-1.5-2.3-2.5-3.3c-4.7-4.8-11.3-4.8-13.7-4.8h-0.5c-1.1,0-2.1,0-3.2,0.1c-5.4,0.2-10.7,0.4-15.9,0.7
	c-8.2,0.4-16.7,0.8-25,0.8c-2.7,0-5.3,0-7.8-0.1c-4-0.1-8.2-0.4-12.2-0.6c-6.7-0.4-13.6-0.8-20.6-0.8h-1.7c-2.3,0-6.6,0.1-10.5,3
	c-4.3,3.2-5.2,8-5.7,10c-0.7,3.6-0.7,7.3,0,10.9c1.8,9,6.4,13.1,15.6,14.4c5.4,0.6,10.7,2,15.8,4.1c2.2,0.9,3.9,2.7,4.6,4.9
	c1.1,3.2,1.6,6.6,1.5,10.1c0,14,0,28,0,42v4.5h-0.1v11c0,5.8,0,11.5,0,17.2c0,13.1,0.1,26.8-0.1,40.1c-0.1,10.4-2.6,45-27.3,56.1
	c-9.1,3.9-18.8,5.9-28.7,5.9c-8.4,0-29.1-1.7-39-17.7c-8-12.9-9.2-30.3-9.3-45.6c-0.1-32.9-0.1-66.5-0.1-98.9v-12c0-3,0.2-6,0.6-9
	c0.8-5.4,3-8.3,7.7-10c4-1.4,8.1-2.3,12.2-2.8c2.7-0.3,8.4-1,12.5-5.3c3.7-3.9,4.4-8.7,4.6-12.9c0.2-3.1-0.2-6.3-1.1-9.3
	c-2.1-6.9-7.6-11-14.6-11h-0.5c-4.1,0.1-8.3,0.2-12.4,0.2c-7,0.1-14.1,0.2-21.3,0.6c-10.6,0.5-21.8,0.8-33.1,0.8s-22.6-0.2-34.8-0.8
	c-6.9-0.3-13.8-0.4-20.5-0.5c-4.6-0.1-9.4-0.2-14.1-0.3H45c-7.7,0-13.5,4.8-14.8,12.3c-0.8,4.2-2,11.2,2,18.3
	c3.8,6.6,10.8,7.5,13.5,7.8l0.6,0.1c4.8,0.6,9.6,1.7,14.1,3.5c2.9,1.2,5,3,5.8,7.6c0.5,2.8,0.8,5.6,0.8,8.4c0,13.7,0,27.4,0,41.1
	c0,18.3,0,37.2,0,55.9c-0.2,10.9,0.5,21.9,2.1,32.7c2.7,16.5,7.7,30.4,15.3,42.4c12.1,19.1,30.4,32.9,54.4,40.9
	c18.7,6.1,38.3,9.2,58,9.1c9.5,0,18.9-0.6,28.3-1.8c12-1.5,23.6-5.3,34.2-11.2c21.1-11.8,35.8-30.5,45.1-57
	c4.1-11.8,6-24.6,5.9-41.5c0-25.5,0-51.5,0-76.6c0-10.1,0-20.2,0-30.4c0-3.1,0.2-6.1,0.5-9.4c0.6-6.4,3-9.4,8.9-11
	c4.2-1.3,8.6-2.2,13-2.7c2.5-0.2,6.6-0.5,10.1-3.6c1.6-1.4,2.9-3.2,3.7-5.1c0.3,0.6,0.6,1.1,0.9,1.6c3.7,6.2,10.4,6.9,12.9,7.1
	l0.5,0c3.8,0.5,7.5,1.4,11.1,2.6c7.9,2.5,12,7.1,13.6,15.3c0.8,4.6,1.1,9.2,0.9,13.9c-0.5,14.8-1.1,29.8-1.7,44.3
	c-0.4,11.2-0.9,22.4-1.3,33.6c-0.7,17.5-1.3,35.4-1.9,52.6l-0.4,11.3c-0.1,2.9-0.3,6.2-0.7,9.5c-0.7,5.9-3.2,9-8.6,11
	c-4.9,1.7-10,2.9-15.1,3.5c-8.7,1.2-13.7,5.9-15.2,14.5c-0.7,4.1-0.5,8.2,0.6,12.2c1.6,6.9,7.8,11.7,14.9,11.6h1
	c2.7-0.1,5.5-0.2,8.2-0.3c4.9-0.2,10-0.4,15.1-0.8c6.6-0.5,13.5-0.8,20.5-0.8c6.2,0,12.7,0.2,19.3,0.6c4.4,0.3,8.7,0.4,12.9,0.6
	c5.1,0.2,10,0.3,14.9,0.7c0.5,0,0.9,0,1.3,0c7.1,0,12.6-4.4,14.5-11.4l0-0.2c0.5-1.7,0.8-3.5,1.1-5.2c1.4-12.2-5-20.4-17.2-21.8
	c-4.3-0.5-8.5-1.4-12.6-2.8c-7.8-2.9-10-5.9-9.9-14.1c0.1-17.7,0.4-33.8,0.8-49.3c0.4-17.9,0.7-36.1,0.9-53.6v-2.4
	c21.4,21.7,43.1,43.5,64.1,64.8l28.6,28.9c21.1,21.3,42.2,42.7,63.3,64l0.5,0.5c2,2.1,5.3,5.5,10.9,6.5c3.2,0.6,6.4,1,9.6,1
	c2.5,0,4.9-0.3,7.3-0.8c2.7-0.6,7.2-1.7,10.4-5.7s3.4-9,3.5-11.6c0.2-11.2,0.4-23.4,0.7-37.4c0.6-27.4,1.1-55.2,1.6-82.2
	c0.2-12.6,0.5-25.2,0.7-37.8c0.1-3.5,0.1-7,0.2-10.5c0.2-12.4,0.5-25.2,0.8-37.8c0.3-8.3,3.1-11.9,11.2-14.5c3.7-1.2,7.4-2,11.2-2.5
	c3.4-0.4,6.6-1.5,9.5-3.3C665.1,267.9,670.6,262.5,669.6,250.8z M337,257.6c-1,3.9-1.3,4.2-5.4,4.6c-5.1,0.5-10.2,1.6-15.1,3.1
	c-10.4,3-15.7,9.9-16.8,20.5c-0.4,3.5-0.5,7-0.5,10.5c0,35.7,0,71.3,0,107c0,12.9-1,25.6-5.3,37.9c-7.5,21.5-19.7,39.6-40.1,51
	c-9.3,5.2-19.6,8.6-30.2,9.9c-8.9,1.1-17.9,1.7-26.9,1.7c-18.5,0.1-36.9-2.8-54.5-8.5c-20.1-6.7-37-18-48.6-36.3
	c-7.4-11.7-11.5-24.7-13.7-38.2c-1.5-10.2-2.2-20.5-2-30.9c0.1-32.3,0.1-64.7,0-97c0-3.5-0.3-7-0.9-10.4
	c-1.4-7.4-5.3-12.8-12.4-15.7c-5.4-2.2-11.1-3.6-16.9-4.3c-2-0.3-4.8-0.3-5.9-2.4c-2-3.5-1.4-7.2-0.7-10.9c0.4-2.2,1.6-3.2,4-3.2
	h0.2c11.5,0.3,23,0.3,34.5,0.8c11.8,0.5,23.5,0.8,35.3,0.8c11.2,0,22.4-0.2,33.7-0.8s22.3-0.5,33.5-0.8h0.2c2.3,0,3.4,1.2,4.1,3.3
	c0.5,1.8,0.7,3.6,0.6,5.4c-0.3,5.9-1.5,7.1-7.4,7.8c-4.9,0.6-9.8,1.7-14.5,3.3c-8.9,3.1-13.7,9.6-15,18.8c-0.5,3.5-0.7,7-0.7,10.5
	c0,37-0.1,74,0.1,111c0.1,17.3,1.5,36.2,10.9,51.4c10.1,16.2,29.2,22.8,48.4,22.8c11.4,0,22.7-2.3,33.2-6.9
	c25-11.2,33.4-40.7,33.8-65.9c0.3-19.2,0.1-38.3,0.1-57.5h0.1c0-19.2,0-38.3,0-57.5c0.1-4.7-0.7-9.3-2.2-13.7
	c-1.7-5.1-5.6-9.3-10.6-11.4c-6-2.5-12.3-4.2-18.7-4.9c-4.6-0.6-5.4-1.3-6.3-5.7c-0.4-2.1-0.4-4.3,0-6.5c0.7-3.7,1.5-4.2,5.4-4.2
	h1.6c10.8,0,21.6,1.1,32.3,1.5c2.7,0.1,5.5,0.1,8.2,0.1c13.8,0,27.5-1.1,41.3-1.5c1,0,2-0.1,3-0.1h0.4c6,0,7.5,1.6,7.4,7.8
	C337.6,255,337.4,256.3,337,257.6z M655.8,260.8c-1.5,0.9-3.2,1.4-5,1.6c-4.5,0.6-8.9,1.6-13.1,3c-12.4,4-18.3,11.6-18.8,24.6
	c-0.5,16.1-0.7,32.3-1,48.5c-0.8,40-1.4,80-2.3,119.9c-0.3,12.5-0.5,25-0.7,37.5c-0.1,4.9-0.8,5.6-5.4,6.8c-1.6,0.4-3.2,0.6-4.8,0.5
	c-2.6-0.1-5.1-0.3-7.6-0.9c-2.5-0.5-4-2.3-5.6-4c-21.1-21.3-42.2-42.7-63.3-64c-35.3-35.6-70.6-71.3-105.8-107
	c-1.5-1.5-2.8-3.3-4.1-5l-1.2,0.5c-0.1,1.2-0.2,2.4-0.2,3.6c-0.4,25.8-0.6,51.6-1.3,77.5c-0.4,16.5-0.7,33-0.8,49.5
	c-0.1,12.9,5,20.1,17.2,24.5c4.9,1.7,9.9,2.8,15,3.4c6.2,0.7,8.3,3.4,7.6,9.6c-0.2,1.3-0.5,2.6-0.8,3.9c-0.5,2.1-1.7,3.2-3.8,3.2
	c-0.2,0-0.3,0-0.5,0c-9.3-0.7-18.6-0.7-28-1.3c-6.7-0.4-13.3-0.6-20-0.6c-7.1,0-14.3,0.3-21.4,0.9c-7.6,0.6-15.3,0.7-23,1.1h-0.4
	c-2.3,0-3.6-1-4.3-3.4c-0.7-2.4-0.8-4.9-0.4-7.4c0.7-3.9,1.9-5,5.9-5.6c5.9-0.7,11.8-2.1,17.5-4c9.4-3.5,14.5-10.1,15.8-20
	c0.4-3.5,0.6-7,0.8-10.5c0.8-21.3,1.5-42.6,2.3-63.9c1-26,2-51.9,3-77.9c0.3-5.5,0-11-1-16.4c-2.4-12.1-9.4-19.9-21-23.6
	c-4.3-1.4-8.6-2.4-13.1-3c-1.8-0.2-4.2-0.3-5.2-2c-1.9-3.2-1.7-8.3-0.5-11.8c0.8-2.4,2.9-2.7,5.1-2.7c0.6,0,1.1,0,1.7,0
	c12.3,0.4,24.5,1.6,36.8,1.6c2.7,0,5.4-0.1,8.2-0.2c8.8-0.5,17.6-1.3,26.4-1.5h0.4c3.2-0.1,6.2,1.2,8.3,3.6
	c24.7,26,49.4,51.8,74.3,77.6c25.4,26.4,50.8,52.9,76.2,79.3c0.9,0.9,1.5,2.2,3.4,2.5v-3.9c0-37.7,0-75.3,0-113c0-2-0.1-4-0.4-6
	c-1.4-9.2-6.4-15.4-15.1-18.8c-6.2-2.4-12.8-3.9-19.4-4.7c-4.6-0.6-5.7-1.7-6.2-6.3c-0.1-1.2-0.1-2.3-0.1-3.5
	c0.3-5.6,1.4-6.6,6.9-6.6h0.6c10.5,0,20.9,1.1,31.3,1.8c3.5,0.2,7,0.3,10.4,0.3c9.2,0,18.3-0.6,27.5-1.2c7.2-0.5,14.3-0.5,21.5-0.8
	h0.2c3.1,0,4.2,3.3,4.5,5.9C658.9,254.9,658.7,258.9,655.8,260.8L655.8,260.8z"/>
<path d="M969.3,361.5c-1.6-22.4-7.8-42.8-18.2-60.7c-19.7-33.7-48-55.7-84.1-65.4c-16.3-4.4-33.2-6.6-50.1-6.6
	c-14.6,0-29.3,1.6-43.6,4.7c-43.5,9.3-75.9,34.9-96.2,76.2c-14.6,29.6-18.2,61.4-10.9,94.4c5.3,24,15.3,44.6,29.5,61.3
	s33.2,29.9,56.1,38.8c18.2,7.1,38.1,10.4,62.7,10.4h2c1.1,0,2.2,0,3.3,0c15.7,0.1,31.3-1.8,46.5-5.6c43.9-11.4,75.2-38.8,93.2-81.2
	C967.9,407.9,971.1,386.2,969.3,361.5z M949.4,423.5c-16.4,38.8-44.8,64.2-85.8,74.9c-14.3,3.6-29,5.4-43.7,5.4h-3.3h-2.1
	c-20.4,0-40-2.4-58.7-9.7c-42.6-16.6-68.9-47.8-78.8-92.3c-6.7-30-3.6-59.4,10-87.1c18.3-37.3,47.5-61.6,88.6-70.3
	c13.6-2.9,27.4-4.4,41.3-4.5l0,0c15.9,0,31.8,2.1,47.2,6.2c34.3,9.2,59.7,30,77.5,60.3c10.1,17.2,15.3,36,16.7,55.9
	C959.9,383.4,957.6,403.9,949.4,423.5L949.4,423.5z"/>
<path d="M883,348.3c-1.7-19.9-5.4-39.2-13.3-57.6C863,275,851.8,264,835,259.6c-6-1.6-12.2-2.4-18.4-2.4c-6.3,0-12.5,0.8-18.6,2.4
	c-12.9,3.2-24,11.6-30.6,23.2c-3.5,6.1-6.3,12.5-8.3,19.2c-6.7,19.9-9.2,40.5-9.9,61.3c-0.7,17.5,0.3,35,3,52.3
	c2,13.8,5.9,27.3,11.7,40.1c6.7,14.5,17.6,24.1,33,28.2c12.8,3.5,26.2,3.5,39,0.1c12.1-3,22.6-10.5,29.2-21.1
	c5.2-7.9,8.3-16.7,10.9-25.6c6.3-20.9,8-42.4,8-62.6C883.8,364.9,883.7,356.6,883,348.3z M865.4,434.2c-2.3,7.7-5.1,15.8-9.6,22.7
	c-5.2,8.2-13.4,14.1-22.8,16.5c-10.9,2.9-22.5,2.9-33.4-0.1c-12-3.2-20.4-10.5-25.9-22.2c-5-10.9-8.5-23-10.8-37.2
	c-2.5-16.6-3.5-33.4-2.8-50.2c0.8-23.1,3.8-41.7,9.3-58.2c1.8-5.9,4.3-11.6,7.3-17c5.2-9.1,13.8-15.7,24-18.2
	c5.2-1.4,10.5-2.1,15.8-2.1c5.3,0,10.5,0.7,15.6,2c12.8,3.4,21.8,11.5,27.5,24.8c6.6,15.5,10.7,33.2,12.4,54.2
	c0.6,7.6,0.8,15.1,0.9,25.7C873,397.9,870.5,417.3,865.4,434.2L865.4,434.2z"/>
<path d="M402.9,653.9l-0.9,0.2c-0.7,0.1-1.4,0.2-2.2,0.2c-0.7,0-1.4-0.1-2-0.2l-0.5-0.1l-0.1,0.5c0,0-0.8,3.3-1.5,5.3
	c-0.8,2.3-1.5,4.3-2,5.4c-0.5-1.3-1.1-3.2-1.6-4.6c-0.8-2.3-1.8-6.1-1.8-6.2l-0.1-0.4l-0.4,0.1c-0.8,0.1-1.6,0.2-2.4,0.2
	c-0.9,0-1.8-0.1-2.6-0.2l-0.4-0.1l-0.1,0.4c0,0-1.1,3.7-1.9,5.9c-0.5,1.4-1.3,3.5-1.8,4.8c-0.4-1.3-1.1-3.3-1.5-4.7
	c-0.7-2.3-1.7-6-1.7-6l-0.1-0.4h-0.4c0,0-2.1,0.2-3.4,0.2s-3.7-0.2-3.7-0.2h-0.5l0-0.1l-0.9,0.2c-0.7,0.1-1.4,0.2-2.2,0.2
	c-0.7,0-1.3-0.1-2-0.2l-0.5-0.1l-0.1,0.5c0,0-0.8,3.3-1.5,5.3c-0.8,2.3-1.5,4.3-2,5.4c-0.5-1.3-1.1-3.2-1.6-4.6
	c-0.8-2.3-1.8-6.1-1.8-6.2l-0.1-0.4L356,654c-0.8,0.1-1.6,0.2-2.4,0.2c-0.9,0-1.8-0.1-2.6-0.2l-0.4-0.1l-0.1,0.4
	c0,0-1.1,3.7-1.9,5.9c-0.5,1.4-1.3,3.5-1.8,4.8c-0.5-1.3-1.1-3.3-1.6-4.7c-0.7-2.3-1.7-6-1.7-6l-0.1-0.4H343c0,0-2.1,0.2-3.4,0.2
	s-3.7-0.2-3.7-0.2h-0.5l0-0.1l-0.9,0.2c-0.7,0.1-1.4,0.2-2.2,0.2c-0.7,0-1.4-0.1-2-0.2l-0.5-0.1l-0.1,0.5c0,0-0.8,3.3-1.5,5.3
	c-0.8,2.3-1.5,4.3-1.9,5.4c-0.5-1.3-1.1-3.2-1.6-4.6c-0.8-2.3-1.8-6.1-1.8-6.2l-0.1-0.4l-0.4,0.1c-0.8,0.1-1.6,0.2-2.4,0.2
	c-0.9,0-1.8-0.1-2.6-0.2l-0.4-0.1l-0.1,0.4c0,0-1.1,3.7-1.9,5.9c-0.5,1.4-1.3,3.5-1.8,4.8c-0.4-1.3-1.1-3.3-1.6-4.7
	c-0.7-2.3-1.7-6-1.7-6l-0.1-0.4h-0.4c0,0-2.1,0.2-3.4,0.2S302,654,302,654l-0.8-0.1l0.3,0.8c0,0.1,2.3,5.7,3.5,9.3s2.9,9.7,3,9.8
	l0.1,0.4l0.4-0.1c0.8-0.1,1.6-0.2,2.4-0.2c0.9,0,1.7,0.1,2.6,0.2l0.4,0.1l0.1-0.4c0,0,1.2-3.6,1.9-5.8c0.5-1.5,1.3-3.5,1.8-4.7
	c0.5,1.3,1.2,3.3,1.6,4.8c0.6,2.1,1.5,5.6,1.5,5.6l0.1,0.4l0.5-0.1c0.9-0.1,1.7-0.2,2.6-0.2c0.9,0,1.8,0.1,2.6,0.2l0.4,0l0.1-0.4
	c0,0,2.3-6.1,3.7-9.8c1.9-4.7,4-9.2,4-9.3l0.2-0.4l0.1,0.3c0,0.1,2.3,5.7,3.5,9.3s2.9,9.7,3,9.8l0.1,0.4l0.4-0.1
	c0.8-0.1,1.6-0.2,2.4-0.2c0.9,0,1.7,0.1,2.5,0.2l0.4,0.1l0.1-0.4c0,0,1.2-3.6,1.9-5.8c0.5-1.5,1.3-3.5,1.8-4.7
	c0.5,1.3,1.2,3.3,1.6,4.8c0.6,2.1,1.5,5.6,1.5,5.6l0.1,0.4l0.4-0.1c0.9-0.1,1.7-0.2,2.6-0.2c0.9,0,1.8,0.1,2.6,0.2l0.4,0l0.1-0.4
	c0,0,2.3-6.1,3.7-9.8c1.9-4.7,4-9.2,4-9.3l0.2-0.4l0.1,0.3c0,0.1,2.3,5.7,3.5,9.3s2.9,9.7,3,9.8l0.1,0.4l0.4-0.1
	c0.8-0.1,1.6-0.2,2.4-0.2c0.9,0,1.7,0.1,2.6,0.2l0.4,0.1l0.1-0.4c0,0,1.1-3.6,1.9-5.8c0.5-1.5,1.3-3.5,1.8-4.7
	c0.5,1.3,1.2,3.3,1.6,4.8c0.6,2.1,1.5,5.6,1.5,5.6l0.1,0.4l0.5-0.1c0.9-0.1,1.7-0.2,2.6-0.2c0.9,0,1.8,0.1,2.6,0.2l0.4,0l0.1-0.4
	c0,0,2.3-6.1,3.7-9.8c1.9-4.7,4-9.2,4-9.3L402.9,653.9z"/>
<path d="M407.2,667.5c-0.8-0.6-1.7-0.9-2.6-0.9c-0.3,0-0.7,0-1,0.1c-0.6,0.1-1.1,0.3-1.5,0.7c-1.1,0.7-1.7,2-1.5,3.3
	c0.1,1.3,0.9,2.5,2.1,3.1c0.6,0.3,1.2,0.5,1.9,0.5c0.6,0,1.3-0.1,1.9-0.4c1.2-0.5,2.1-1.6,2.3-2.9
	C408.8,669.6,408.2,668.3,407.2,667.5z"/>
<path d="M427.9,654.2c-1.1-0.3-2.2-0.5-3.3-0.5c-1.9,0-3.7,0.6-5.3,1.6c0-1.2-0.1-3.2,0-4.7c0-2.2,0.4-5.7,0.4-5.7l0.1-0.6l-0.6,0.1
	c0,0-2,0.2-3.2,0.2s-3.4-0.2-3.4-0.2l-0.6-0.1v0.6c0,0.1,0.1,9.4,0,15.3c0,8.8-0.4,13.3-0.4,13.3v0.5h3.1l0.1-0.2l1.9-2
	c1.6,1.6,3.7,2.5,6,2.8c0.3,0,0.6,0,0.8,0c2.7,0,5.4-1.1,7.3-3c2.7-3.1,3.7-7.3,2.7-11.3C432.7,657.2,430.8,655.1,427.9,654.2z
	 M425.9,666.8c-0.2,1-0.5,3.3-2.4,4.1c-0.4,0.1-0.7,0.2-1.1,0.2c-0.5,0-1-0.1-1.4-0.4c-1.8-1.1-1.9-4.1-1.9-5.7v-0.5
	c0-1.5,0-6,2.7-6.7c0.2-0.1,0.5-0.1,0.7-0.1c0.8,0,1.5,0.3,2.1,0.7C426.2,659.8,426.4,663.7,425.9,666.8L425.9,666.8z"/>
<path d="M455.2,671.1c-0.5-0.6-0.8-1.5-0.6-2.3v-6.7c0-0.2,0-0.5,0-0.7c0-2.6,0-5.1-3.7-6.9c-1.3-0.6-2.7-0.9-4.1-0.9
	c-2.8,0.1-5.6,1.1-7.9,2.8l-0.3,0.2l0.1,0.4l0.8,2l0.3,0.7l0.5-0.5c0.4-0.4,0.8-0.7,1.3-0.9c0.7-0.4,1.5-0.6,2.3-0.7
	c0.4,0,0.7,0.1,1,0.2c1.3,0.6,2.2,1.8,2.2,3.3c-0.9,0.5-1.8,0.9-2.7,1.2c-0.3,0.1-0.6,0.2-0.9,0.3l-0.3,0.1l-0.8,0.2
	c-2.2,0.7-4.4,1.4-5.4,3.5c-0.8,1.7-0.8,3.7,0.1,5.4c0.9,1.5,2.4,2.6,4.1,2.9c0.4,0.1,0.8,0.1,1.2,0.1c2-0.1,3.8-0.9,5.3-2.2
	c0.5,0.5,1.1,1,1.7,1.4c0.7,0.4,1.4,0.5,2.2,0.5c1.5-0.1,3-0.4,4.5-0.9l0.3-0.1v-2.1h-0.5C455.8,671.3,455.5,671.3,455.2,671.1z
	 M447.3,666.2c0,2.5,0,3.2-1.1,3.9c-0.2,0.1-0.5,0.2-0.7,0.2c-0.2,0-0.3,0-0.5-0.1c-0.4-0.2-0.7-0.4-0.8-1.4
	c-0.1-1.1-0.1-2.8,1.2-3.7c0.6-0.4,1.2-0.6,1.9-0.8V666.2L447.3,666.2z"/>
<path d="M471.5,653.8c-0.3,0-0.6,0-1,0c-2.5,0.3-3.6,0.7-5,2.3c0-0.5,0-1.1,0-1.6V654l-0.6,0.1c0,0-1.9,0.2-3,0.2s-3.2-0.2-3.2-0.2
	l-0.6-0.1v0.6c0,0.1,0.3,5.8,0.3,9.4s-0.3,9.6-0.3,9.7v0.6l0.6-0.1c0,0,2-0.2,3.3-0.2s3.4,0.2,3.4,0.2l0.6,0.1v-0.6l-0.2-8.4
	c0-0.2,0-0.5,0-0.7c-0.1-1.3-0.1-2.8,1.3-3.7c0.6-0.4,1.2-0.6,1.9-0.5c0.8,0,1.7,0.2,2.5,0.6l0.7,0.3v-0.8c0-0.6,0-1,0-1.5
	c-0.1-1.5,0-3,0.2-4.5l0.1-0.5h-0.5C471.8,653.8,471.6,653.8,471.5,653.8z"/>
<path d="M490.6,654.2c-1.1-0.3-2.2-0.5-3.3-0.5c-1.9,0-3.7,0.6-5.3,1.6c0-1.2-0.1-3.2-0.1-4.7c0-2.2,0.4-5.7,0.4-5.7l0.1-0.6
	l-0.6,0.1c0,0-2,0.2-3.2,0.2s-3.4-0.2-3.4-0.2l-0.6-0.1v0.6c0,0.1,0.1,9.4,0,15.3c0,8.8-0.4,13.3-0.4,13.3v0.5h3.1l0.1-0.2l1.9-2
	c1.6,1.6,3.7,2.5,6,2.8c0.3,0,0.6,0,0.8,0c2.7,0,5.4-1.1,7.3-3c2.7-3.1,3.7-7.3,2.7-11.3C495.4,657.2,493.5,655.1,490.6,654.2z
	 M488.6,666.8c-0.2,1-0.5,3.3-2.4,4.1c-0.4,0.1-0.7,0.2-1.1,0.2c-0.5,0-1-0.1-1.4-0.4c-1.8-1.1-1.9-4.1-1.9-5.7v-0.5
	c0-1.5,0-6,2.7-6.7c0.2-0.1,0.5-0.1,0.7-0.1c0.8,0,1.5,0.3,2.1,0.7C489,659.8,489.1,663.7,488.6,666.8L488.6,666.8z"/>
<path d="M509.7,653.7c-0.7,0-1.5,0.1-2.2,0.2c-3.4,0.5-6.2,2.8-7.4,6c-1.3,3.2-1.3,7.9,1.6,11.2s6.9,3.8,9,3.8c0.7,0,1.3,0,2-0.1
	c1.4-0.1,2.7-0.5,4-1.1c0.6-0.3,1.2-0.8,1.6-1.4c0.4-0.5,0.7-1.1,0.9-1.7l0.1-0.3l-0.2-0.2l-0.8-0.9l-0.3-0.3l-0.4,0.2
	c-1.5,1-3.2,1.5-5,1.5c-0.9,0-1.7-0.2-2.5-0.5c-1.7-0.8-2.6-2.5-2.7-5h12.4v-0.5c0-2.4,0-6-2-8.1C515.3,653.8,511,653.7,509.7,653.7
	z M507.4,661.5c0.2-1.7,0.8-3.9,1.8-4.4c0.2-0.1,0.5-0.2,0.8-0.2c0.3,0,0.7,0.1,0.9,0.2c1.2,0.7,1.6,2.8,1.6,4.3L507.4,661.5z"/>
<path d="M535.9,653.8c-0.3,0-0.6,0-1,0c-2.5,0.3-3.6,0.8-5,2.3c0-0.5,0-1.1,0-1.6V654l-0.6,0.1c0,0-1.9,0.2-3,0.2s-3.2-0.2-3.2-0.2
	l-0.6-0.1v0.6c0,0.1,0.3,5.8,0.3,9.4s-0.3,9.6-0.3,9.7v0.6l0.6-0.1c0,0,2-0.2,3.3-0.2s3.4,0.2,3.4,0.2l0.6,0.1v-0.6l-0.2-8.4
	c0-0.2,0-0.5,0-0.7c-0.1-1.3-0.1-2.8,1.3-3.7c0.6-0.4,1.2-0.6,1.9-0.5c0.8,0,1.7,0.2,2.5,0.6l0.7,0.3v-0.8c0-0.6,0-1,0-1.5
	c-0.1-1.5,0-3,0.2-4.5l0.1-0.5h-0.5C536.1,653.8,536,653.8,535.9,653.8z"/>
<path d="M540.9,651.6c0.6,0.3,1.3,0.5,1.9,0.5c0.6,0,1.2-0.1,1.8-0.4c1.2-0.5,2.1-1.7,2.3-3c0.2-1.3-0.4-2.7-1.5-3.5
	c-0.7-0.6-1.7-0.9-2.6-0.9c-0.4,0-0.7,0-1.1,0.1c-0.5,0.1-1,0.3-1.4,0.6l0,0l0,0c-1.1,0.7-1.7,2-1.6,3.3
	C538.9,649.8,539.7,651,540.9,651.6z"/>
<path d="M547,654l-0.6,0.1c0,0-2.2,0.2-3.5,0.2c-1.6,0-3.6-0.2-3.6-0.2l-0.6-0.1v0.6c0,0.1,0.3,5.9,0.3,9.6s-0.3,9.5-0.3,9.5v0.6
	l0.6-0.1c0,0,2.1-0.2,3.6-0.2c1.3,0,3.5,0.2,3.6,0.2l0.6,0.1v-0.6c0-0.1-0.3-6-0.3-9.7s0.3-9.3,0.3-9.4L547,654z"/>
<path d="M568.1,671.1c-0.5-0.6-0.8-1.5-0.6-2.3v-6.7c0-0.2,0-0.5,0-0.7c0-2.6,0-5.1-3.7-6.9c-1.3-0.6-2.7-0.9-4.1-0.9
	c-2.8,0.1-5.6,1.1-7.8,2.8l-0.3,0.2l0.1,0.4l0.8,2l0.3,0.7l0.5-0.5c0.4-0.4,0.8-0.7,1.3-0.9c0.7-0.4,1.5-0.6,2.3-0.7
	c0.4,0,0.7,0.1,1.1,0.2c1.3,0.5,2.1,1.8,2.2,3.2c-0.9,0.5-1.8,0.9-2.7,1.2c-0.3,0.1-0.6,0.2-0.9,0.3l-0.3,0.1l-0.8,0.2
	c-2.2,0.7-4.4,1.4-5.4,3.5c-0.8,1.7-0.8,3.7,0.1,5.4c0.9,1.5,2.4,2.6,4.1,2.9c0.4,0.1,0.8,0.1,1.2,0.1c2-0.1,3.8-0.9,5.3-2.2
	c0.5,0.5,1.1,1,1.7,1.4c0.7,0.4,1.4,0.5,2.2,0.5c1.5-0.1,3-0.4,4.5-0.9l0.3-0.1v-2.1h-0.5C568.7,671.3,568.4,671.3,568.1,671.1z
	 M560.2,666.2c0,2.5,0,3.2-1.1,3.9c-0.2,0.1-0.5,0.2-0.7,0.2c-0.2,0-0.3,0-0.5-0.1c-0.4-0.2-0.7-0.4-0.8-1.4
	c-0.1-1.1-0.2-2.8,1.2-3.7c0.6-0.4,1.2-0.6,1.9-0.8L560.2,666.2L560.2,666.2z"/>
<path d="M592,654l-0.6,0.1c0,0-2.1,0.2-3.3,0.2s-3.2-0.2-3.3-0.2l-0.6-0.1v0.6l0.2,10v0.4c0,2.2,0,3.8-1.8,4.7
	c-0.4,0.2-0.9,0.3-1.3,0.3c-0.3,0-0.7-0.1-1-0.2c-0.9-0.5-1.9-1.8-1.7-5.8v-0.2l0.2-9.1V654l-0.6,0.1c0,0-2,0.2-3.3,0.2
	s-3.2-0.2-3.3-0.2l-0.6-0.1v0.6c0,0,0.2,4.7,0.2,7.6c0,1.6-0.2,4.2-0.2,4.2v0.4c0,2.9,0,5.4,3.7,7.1c1.1,0.6,2.4,0.9,3.7,0.9
	c2-0.1,4-0.8,5.7-2v1.4l0.6-0.1c0,0,2.1-0.2,3.4-0.2s3.2,0.2,3.2,0.2l0.6,0.1v-0.6c0-0.1-0.2-6.3-0.2-10.2c0-3.5,0.2-8.8,0.2-8.9
	L592,654z"/>
<path d="M615,662.1v-0.3c0-2.5,0.1-5.7-3.5-7.4c-1-0.5-2.2-0.7-3.3-0.7c-2.1,0-4.1,0.7-5.9,1.9l0,0c0-0.3,0-0.7,0-1v-0.6l-0.6,0.1
	c0,0-2,0.2-3.2,0.2s-3.2-0.2-3.3-0.2l-0.6-0.1v0.6c0,0,0.2,4.3,0.2,9.4c0,5.9-0.2,9.7-0.2,9.7v0.6l0.6-0.1c0,0,2-0.2,3.3-0.2
	s3.5,0.2,3.5,0.2l0.6,0.1v-0.6l-0.3-9.1v-0.2c0-3.9,0.9-5.3,1.7-5.8c0.4-0.2,0.7-0.3,1.2-0.3c0.4,0,0.8,0.1,1.1,0.3
	c0.8,0.4,1.7,1.6,1.5,4.8c0,0.1,0,0.1,0,0.2l-0.5,10v0.6l0.6-0.1c0,0,2.2-0.2,3.5-0.2s3.2,0.2,3.3,0.2l0.6,0.1v-0.6L615,662.1z"/>
<path d="M629.2,653.6c-0.5,0-1,0-1.4,0.1c-1.5,0.2-2.9,0.7-4.3,1.3c-3.3,1.7-5.4,5-5.5,8.6c-0.4,3.5,1.1,6.9,3.9,9
	c2.1,1.4,4.7,2.2,7.2,2.2c1.5,0,2.9-0.2,4.3-0.6c4-1.3,6.2-3.5,7.3-7.1c0.8-3,0.5-7.4-2.1-10.1C635.8,653.9,630.7,653.6,629.2,653.6
	z M631.1,670.9c-0.5,0.3-1,0.5-1.6,0.5c-0.3,0-0.5,0-0.8-0.1c-1.2-0.5-2.1-1.6-2.3-2.9c-0.5-1.9-1.2-9.6,2-10.9
	c0.3-0.1,0.6-0.1,0.9-0.1c0.6,0,1.3,0.2,1.8,0.5c1.8,1.1,2.2,4.7,2.2,5.8C633.3,665.2,633.4,669.4,631.1,670.9L631.1,670.9z"/>
<path d="M651,667.5c-0.8-0.6-1.7-0.9-2.6-0.9c-0.3,0-0.7,0-1,0.1c-0.6,0.1-1.1,0.3-1.5,0.7c-1.1,0.7-1.7,2-1.6,3.3
	c0.1,1.3,0.9,2.5,2.1,3.1c0.6,0.3,1.2,0.5,1.9,0.5c0.6,0,1.3-0.1,1.9-0.4c1.2-0.5,2.1-1.6,2.3-2.9
	C652.6,669.6,652.1,668.3,651,667.5z"/>
<path d="M665.4,657.8c0.6-0.4,1.3-0.6,2-0.6c0.4,0,0.8,0.1,1.2,0.2c1.7,0.5,2.2,1.5,2.6,3l0.1,0.3h2.2l0.1-0.3l1.5-4.4l0.1-0.4
	l-0.4-0.2c-2.4-1.2-5.1-1.7-7.8-1.7l0,0c-2.3-0.1-4.6,0.4-6.7,1.4c-3.2,1.8-5.2,5.2-5.2,8.9c0,4.3,1.8,7.3,5.7,9.5
	c1.7,0.9,3.5,1.3,5.4,1.3c2.7,0,5.3-0.7,7.7-2l0.2-0.1l0-0.2l0.8-2.8l0.1-0.4l-0.4-0.2l-1-0.5l-0.3-0.1l-0.2,0.2
	c-0.5,0.5-1.2,0.9-1.8,1.2c-0.8,0.4-1.8,0.6-2.7,0.6c-0.7,0-1.5-0.1-2.1-0.4c-2-1.2-3.2-3.3-3.2-5.6
	C663.2,663,663.6,659.2,665.4,657.8z"/>
<path d="M697.5,671.3c-0.3,0-0.7,0-1-0.2c-0.5-0.6-0.8-1.5-0.6-2.3v-6.7c0-0.2,0-0.5,0-0.7c0-2.6,0-5.1-3.7-6.9
	c-1.3-0.6-2.7-0.9-4.1-0.9c-2.8,0.1-5.6,1.1-7.8,2.8l-0.3,0.2l0.1,0.4l0.8,2l0.3,0.7l0.5-0.5c0.4-0.4,0.8-0.7,1.3-0.9
	c0.7-0.4,1.5-0.6,2.3-0.7c0.4,0,0.7,0.1,1,0.2c1.3,0.5,2.1,1.8,2.2,3.2c-0.9,0.5-1.8,0.9-2.7,1.2c-0.3,0.1-0.6,0.2-0.9,0.3l-0.3,0.1
	l-0.8,0.2c-2.3,0.7-4.4,1.4-5.4,3.5c-0.8,1.7-0.8,3.7,0.1,5.4c0.9,1.5,2.4,2.6,4.1,2.9c0.4,0.1,0.8,0.1,1.2,0.1
	c2-0.1,3.9-0.9,5.3-2.2c0.5,0.5,1.1,1,1.7,1.4c0.7,0.4,1.4,0.5,2.2,0.5c1.5-0.1,3-0.4,4.4-0.9l0.3-0.1v-2.1H697.5z M688.7,666.2
	c0,2.5,0,3.2-1.1,3.9c-0.3,0.2-0.8,0.3-1.2,0.1c-0.4-0.2-0.7-0.4-0.8-1.4c-0.1-1.1-0.2-2.8,1.2-3.7c0.6-0.3,1.2-0.6,1.9-0.8
	L688.7,666.2L688.7,666.2z"/>
<path d="M33.2,621L33.2,621c-1.4,0-3.5,0-4.5,0l4.4-3.7c5.6-4.6,7.4-8.4,6-12.5c-1.4-3.9-4.9-4.7-7.9-4.9c-4.9-0.5-8.4,1.2-10.5,4.8
	l-0.1,0.2l0.2,0.1c0,0,1,0.8,1.5,1.3s1.5,1.6,1.5,1.6l0.1,0.1l1.4-0.5v-0.2c-0.2-1.7,0.6-3.4,2-4.3c0.8-0.5,1.9-0.5,2.7,0
	c1.4,0.7,2.2,2,2.3,3.5c0.5,5.1-1.9,9-8.3,13.3l-1.4,1l-0.5,0.3c-0.2,0.1-0.4,0.3-0.7,0.3l-0.2,0.1v4.8h0.3c0,0,5.3-0.1,8.6-0.1
	c3.6,0,9.1,0.3,9.2,0.3h0.3v-0.3c-0.2-1.8-0.2-3.6,0.1-5.4v-0.3h-0.3C39.3,620.5,35.5,620.9,33.2,621z"/>
<path d="M63.3,600.3c0,0-5.7,0.1-9.4,0.1s-9.4-0.1-9.4-0.1h-0.3v0.3c0.2,1.9,0.2,3.8,0.1,5.8v0.3h0.3c0,0,4.6-0.3,7.3-0.4
	c1.8,0,4.4,0,5.4,0.1c-0.8,1.3-3.5,6.1-5.6,9.2c-3.4,5.1-6.7,9.1-6.7,9.1l-0.1,0.1l0.8,1.5h0.2c0,0,1.6-0.1,2.7-0.1s2.4,0.1,2.4,0.1
	h0.2l0.1-0.2c0-0.1,3.6-7.5,6-12.2s6.8-11.9,6.9-12l0.1-0.1l-0.6-1.6L63.3,600.3z"/>
<path d="M85.7,615.3c-0.4,0-1.1,0-1.5,0c-0.1-4.9,0.5-14.7,0.5-14.8v-0.3h-5.9l-11,15.5v0.1c0,0,0.2,1.3,0.2,2.2s0,2.2,0,2.2v0.3
	h0.3c0,0,3.3-0.1,5.3-0.1c1.4,0,3.5,0,4.2,0l-0.1,5.9h6.7V626c0,0-0.1-2.2-0.1-5.6c0.4,0,1.1,0,1.5,0c0.7,0,1.8,0.1,1.8,0.1h0.3
	v-0.3c-0.2-1.6-0.2-3.2,0.1-4.7v-0.3h-0.3L85.7,615.3z M78,615.5l-6.2-0.1l6.1-8.6c0,1.2,0.1,3.4,0.1,4.6
	C78,613.3,78,614.9,78,615.5L78,615.5z"/>
<path d="M118.4,611.7c-2.5-6.8-3.9-11.9-3.9-11.9l-0.1-0.2h-0.2c-1,0.1-2,0.2-3,0.2c-1,0-2-0.1-2.9-0.2h-0.2l-0.1,0.2
	c0,0-0.6,2.1-5.3,13.4c-4.1,9.9-5.8,12.8-5.8,12.9l-0.3,0.5l0.5-0.1c0.7-0.1,1.4-0.2,2.1-0.2c0.8,0,1.5,0.1,2.3,0.2h0.2l3.1-8h8.5
	l2.5,8h0.2c0,0,2.3-0.2,3.7-0.2s4,0.2,4.1,0.2h0.4l-0.2-0.4C124.1,626.1,122.2,622,118.4,611.7z M112.3,615.1h-6.2
	c0.2-0.5,0.5-1.4,1-2.7s1.8-4.2,2.3-5.4c0.4,1.1,1.2,3.6,1.9,5.4C111.8,613.6,112.2,614.6,112.3,615.1L112.3,615.1z"/>
<path d="M139.4,607.3c-0.7,0-1.3-0.1-2-0.2h-0.2l-0.1,0.2c0,0-1,3.2-1.8,5.2c-1,2.9-2.1,5.4-2.6,6.5c-0.8-1.7-1.5-3.5-2-5.2
	c-0.8-2.5-1.9-6.4-1.9-6.4l-0.1-0.2h-0.2c0,0-2.2,0.2-3.5,0.2s-3.8-0.2-3.8-0.2h-0.4l0.2,0.4c0,0,2.8,5.8,4.2,9.5
	c1.3,3.5,3,9.3,3,9.4l0.1,0.2h0.2c0.8-0.1,1.6-0.2,2.4-0.2c0.8,0,1.6,0.1,2.4,0.2h0.2l0.1-0.2c0-0.1,2.2-5.9,3.7-9.5
	s4.6-9.3,4.6-9.4l0.2-0.4l-0.5,0.1C140.9,607.2,140.2,607.3,139.4,607.3z"/>
<path d="M150.3,606.9c-3.3,0.5-6,2.7-7.2,5.8c-1.2,3.1-1.2,7.6,1.5,10.8s6.4,3.6,8.8,3.6c0.6,0,1.2,0,1.9-0.1c1.3-0.1,2.6-0.5,3.8-1
	c0.6-0.3,1.1-0.7,1.5-1.3c0.4-0.5,0.6-1.1,0.9-1.7v-0.1l-1-1.2l-0.2,0.1c-2.6,1.6-5.6,2-7.7,1s-2.7-3.5-2.8-5.4h12.2v-0.2
	c0-2.3,0-5.8-1.9-7.8C157.7,606.7,152.8,606.4,150.3,606.9z M155.4,614.4h-5.6c0.2-1.5,0.7-4.2,1.9-4.8c0.6-0.3,1.4-0.3,2,0.1
	C155.4,610.7,155.5,613.5,155.4,614.4z"/>
<path d="M185,614.5c0-2.5,0.1-5.5-3.3-7.1c-2.7-1.3-6.1-0.8-9.2,1.3c0-0.2,0-0.3,0-0.5c0-0.3,0-0.7,0-1V607h-0.3c0,0-2,0.2-3.2,0.2
	s-3.2-0.2-3.2-0.2h-0.3v0.3c0,0,0.2,4.2,0.2,9.3c0,5.8-0.2,9.5-0.2,9.6v0.3h0.3c0,0,2-0.2,3.3-0.2s3.5,0.2,3.5,0.2h0.3l-0.3-9.3V617
	c0-3.2,0.6-5.2,1.8-5.9c0.8-0.4,1.7-0.4,2.5,0c0.9,0.4,1.8,1.7,1.6,5c0,0,0,0.1,0,0.2l-0.5,10.2h0.3c0,0,2.1-0.2,3.5-0.2
	s3.2,0.2,3.2,0.2h0.3l-0.3-11.7V614.5z"/>
<path d="M208.5,607.1h-0.3c0,0-2.1,0.2-3.3,0.2s-3.2-0.2-3.3-0.2h-0.3l0.2,10.1v0.4c0,2.2,0,3.9-1.9,4.9c-0.8,0.4-1.7,0.4-2.6,0.1
	c-0.9-0.5-2-1.9-1.8-5.9c0-0.1,0-0.1,0-0.2l0.3-9.3h-0.3c0,0-2,0.2-3.2,0.2s-3.2-0.2-3.3-0.2h-0.3v0.3c0,0,0.1,4.6,0.1,7.5
	c0,1.6-0.2,4.2-0.2,4.2v0.4c0,2.8,0,5.2,3.5,6.8c1.1,0.5,2.3,0.8,3.5,0.8c2.1-0.1,4.2-0.9,5.8-2.2v1.6h0.3c0,0,2.1-0.2,3.4-0.2
	s3.2,0.2,3.2,0.2h0.3v-0.3c0-0.1-0.2-6.2-0.2-10.1c0-3.4,0.2-8.7,0.2-8.8L208.5,607.1z"/>
<path d="M219.4,607c-3.3,0.5-6,2.7-7.2,5.8c-1.2,3.1-1.2,7.6,1.5,10.8s6.4,3.6,8.8,3.6c0.6,0,1.2,0,1.9-0.1c1.3-0.1,2.6-0.4,3.8-1
	c0.6-0.3,1.1-0.7,1.5-1.3c0.4-0.5,0.7-1.1,0.9-1.7V623l-1-1.2l-0.2,0.1c-2.6,1.6-5.6,2-7.7,1s-2.7-3.5-2.8-5.4h12.2v-0.2
	c0-2.3,0-5.8-1.9-7.8C226.7,606.8,221.8,606.5,219.4,607z M224.5,614.5h-5.6c0.2-1.5,0.8-4.2,1.9-4.8c0.6-0.3,1.4-0.3,2,0.1
	C224.4,610.7,224.5,613.6,224.5,614.5L224.5,614.5z"/>
<path d="M253.2,607c-2.6,0.3-3.6,0.8-5.2,2.6c0-0.2,0-0.4,0-0.5c0-0.6,0-1.1,0-1.7v-0.3h-0.3c0,0-1.9,0.2-3,0.2s-3.1-0.2-3.2-0.2
	h-0.3v0.3c0,0.1,0.3,5.7,0.3,9.3s-0.3,9.5-0.3,9.5v0.3h0.3c0,0,2-0.2,3.3-0.2s3.4,0.2,3.4,0.2h0.3l-0.2-8.5c0-0.2,0-0.5,0-0.7
	c-0.1-1.3-0.1-2.9,1.4-3.9c1.2-0.8,2.6-0.8,4.5,0l0.4,0.1v-0.4c0-0.5,0-1,0-1.5c-0.1-1.5,0-3,0.2-4.5V607h-0.3
	C254,607,253.6,607,253.2,607z"/>
<path d="M277.2,609.9c-3-3.1-8.6-3.3-10.5-3c-1.4,0.2-2.8,0.6-4.1,1.3c-3.1,1.6-5.2,4.8-5.3,8.3c-0.4,3.3,1,6.7,3.7,8.7
	c2.1,1.4,4.5,2.1,7,2.1c1.4,0,2.8-0.2,4.2-0.6c3.8-1.2,6-3.3,7.1-6.9C280,616.9,279.7,612.6,277.2,609.9L277.2,609.9z M269.9,623.8
	c-0.7,0.5-1.7,0.7-2.5,0.4c-1.3-0.6-2.2-1.7-2.4-3.1c-0.5-2-1.3-9.7,2.1-11c1-0.3,2-0.1,2.9,0.4c2.2,1.3,2.3,5.9,2.3,6
	C272.3,618.1,272.4,622.3,269.9,623.8z"/>
<path d="M300.6,624c-0.6-0.7-0.8-1.5-0.7-2.4v-7.3c0-2.6,0.1-4.9-3.5-6.6s-7.6-0.9-11.5,1.8l-0.2,0.1l1,2.6l0.3-0.2
	c0.4-0.4,0.9-0.7,1.4-1c1-0.7,2.3-0.8,3.5-0.5c1.7,0.7,2.1,2.1,2.3,3.5c-0.9,0.5-1.9,1-2.9,1.3c-0.3,0.1-0.6,0.2-0.9,0.3l-0.3,0.1
	l-0.8,0.2c-2.3,0.7-4.2,1.3-5.2,3.4c-0.8,1.6-0.8,3.5,0.1,5.2c0.8,1.4,2.2,2.5,3.9,2.7c0.4,0.1,0.8,0.1,1.1,0.1
	c2-0.1,3.8-0.9,5.3-2.3c0.6,0.5,1.2,1.1,1.8,1.5c1.3,0.7,3.3,0.6,6.3-0.4h0.2v-1.7h-0.2C301.4,624.3,300.9,624.2,300.6,624z
	 M292.1,623.1c-0.4,0.3-0.9,0.3-1.3,0.2c-0.6-0.2-0.9-0.7-1-1.6c-0.1-1.2-0.2-2.9,1.3-3.8c0.7-0.4,1.4-0.7,2.2-0.9l0,0v2.1
	C293.3,621.4,293.3,622.3,292.1,623.1L292.1,623.1z"/>
<path d="M322.5,597.9c-1.3,0-3.4-0.2-3.4-0.2h-0.3v0.3c0,0,0.2,3.8,0.2,6.2c0.1,2.2,0,3.7,0,4.5l0,0c-1.2-0.9-2.5-1.5-4-1.6
	c-2.8-0.4-5.7,0.5-7.8,2.4c-2.8,2.8-3.5,7.9-2.9,10.5c0.6,3.1,2.8,5.7,5.7,6.8c1,0.4,2,0.6,3.1,0.6c2-0.1,4-0.8,5.7-1.9v1.3h0.3
	c0,0,2.1-0.2,3.5-0.1s3.1,0.2,3.1,0.2h0.3v-0.3c0-0.1-0.1-6.3-0.1-15.4c0-6.9,0.2-11.3,0.2-12.9v-0.4h-0.3
	C325.8,597.7,323.8,597.9,322.5,597.9z M318.3,621.5c-0.5,1.2-1.7,2-3,2c-1.1,0-2.1-0.5-2.6-1.5l0,0c-1.3-2.1-1.1-8.2,0.4-10.3
	c0.4-0.7,1.2-1.2,2-1.4h0.4c1.1,0,2.1,0.6,2.7,1.5C319.5,613.7,319.2,619.7,318.3,621.5z"/>
<path d="M389.3,610.1c-2.7-1-5.7-0.8-8.2,0.4c0.1-1.6,0.7-5.1,2.7-7c2.3-2.1,4.6-1.8,6.9-1.3l0.5,0.1l-1.1-3h-0.1
	c-0.5-0.1-0.9-0.2-1.4-0.2c-1.7-0.1-7.5-0.2-11.2,4.4c-3.9,4.9-3.9,13.3-2.9,16.2c1.1,3.2,3.1,5,6.6,5.9c0.8,0.2,1.6,0.3,2.5,0.3
	c2.6,0.1,5.2-0.7,7.4-2.3c2.4-1.8,3.5-4.7,3-7.6C393.6,613.3,391.8,611.1,389.3,610.1z M383,612.7c0.2-0.1,0.4-0.1,0.7-0.1
	c0.5,0,1,0.2,1.4,0.5c1.7,1.3,1.4,5.5,1.2,6.6c-0.1,0.8-0.6,2.9-2,3.4c-0.7,0.3-1.5,0.2-2.1-0.3l0,0c-1.9-1.2-1.5-5.6-1.4-6.1
	C381,615.7,381.5,613.2,383,612.7z"/>
<path d="M415.5,614.5c-0.5,0-1.1,0-1.5,0c-0.1-4.9,0.5-14.7,0.5-14.8v-0.3h-5.9l-11,15.5v0.1c0,0,0.2,1.3,0.2,2.2s0,2.2,0,2.2v0.3
	h0.2c0,0,3.3-0.1,5.3-0.2c1.4,0,3.5,0,4.2,0l-0.1,5.9h6.7v-0.3c0,0-0.1-2.2-0.1-5.6h1.5c0.7,0,1.8,0.1,1.8,0.1h0.3v-0.3
	c-0.3-1.6-0.2-3.2,0.1-4.7l0-0.3h-0.3C417.4,614.4,416.3,614.5,415.5,614.5z M407.7,614.7l-6.2-0.1l6.1-8.6c0,1.2,0.1,3.4,0.1,4.6
	C407.8,612.5,407.8,614.1,407.7,614.7L407.7,614.7z"/>
<path d="M440.5,599.5c-0.1,0-5.7,0.1-9.4,0.1s-9.4-0.1-9.4-0.1h-0.3v0.3c0.2,1.9,0.2,3.8,0.1,5.8v0.3h0.3c0,0,4.6-0.3,7.3-0.4
	c1.8,0,4.4,0,5.4,0.1c-0.8,1.3-3.5,6.1-5.6,9.2c-3.4,5.1-6.6,9.1-6.7,9.1l-0.1,0.1l0.8,1.5h0.2c0,0,1.6-0.1,2.7-0.1s2.4,0.1,2.4,0.1
	h0.2l0.1-0.2c0-0.1,3.6-7.5,6-12.2s6.8-11.9,6.8-12l0.1-0.1l-0.6-1.6L440.5,599.5z"/>
<path d="M456,609.5h-0.3c0,0-3.7,0.1-6,0.1s-6.3-0.1-6.3-0.1h-0.3v0.4c0.3,1.5,0.3,3,0,4.5l-0.1,0.4h0.3c0,0,3.8-0.1,6.2-0.1
	s6.1,0.1,6.1,0.1h0.3v-0.3c-0.2-1.5-0.2-3,0-4.5V609.5z"/>
<path d="M478.2,608.2c0.7-1.9,0.5-4-0.7-5.6c-1.9-2.6-5.4-3.4-7-3.4c-3.7-0.2-6.7,0.3-9.5,3.5l-0.2,0.2l0.2,0.2c0,0,0.8,0.8,1.3,1.3
	s1.3,1.5,1.3,1.5l0.1,0.1h1.1l0.2-0.1v-0.2c0.1-1.1,0.5-2.2,1.2-3.2c0.6-0.7,1.6-1.1,2.5-0.9c1,0.1,1.9,0.8,2.3,1.8
	c0.6,2,0.4,4.2-0.6,6c-1.2,1.5-3.1,1.5-4.4,1.4h-0.3v2.6h0.3c1.2-0.1,2.4,0.2,3.4,0.8c1.3,0.8,2,2.2,1.9,3.7c0,0.8-0.1,3.7-2.2,5
	c-0.9,0.6-2.1,0.8-3.1,0.4c-2-0.8-2.4-2.2-2.7-3.7L463,619h-1.2l-3,3.4l0.2,0.2c1.7,1.6,3.9,2.8,6.2,3.2c0.7,0.1,1.3,0.1,2,0.1
	c2.9,0,6.8-0.8,9-2.8c1.8-1.6,2.6-4,2.1-6.4c-0.5-2.4-2.5-3.7-4.9-4.7C475.4,611.3,477.5,610.2,478.2,608.2z"/>
<path d="M498.4,610.1c-2.7-1-5.7-0.8-8.2,0.4c0.1-1.6,0.7-5.1,2.7-7c2.3-2.1,4.6-1.8,6.9-1.3l0.4,0.1l-1.1-3H499
	c-0.5-0.1-0.9-0.2-1.4-0.2c-1.7-0.1-7.5-0.2-11.2,4.4c-3.9,4.9-3.9,13.3-2.9,16.2c1.1,3.2,3.1,5,6.6,5.9c0.8,0.2,1.6,0.3,2.5,0.3
	c2.6,0.1,5.2-0.7,7.4-2.3c2.4-1.8,3.6-4.7,3.1-7.6C502.7,613.3,500.9,611,498.4,610.1z M492.1,612.7c0.2-0.1,0.4-0.1,0.7-0.1
	c0.5,0,1,0.2,1.4,0.5c1.7,1.3,1.4,5.5,1.2,6.6c-0.1,0.8-0.6,2.9-2,3.4c-0.7,0.3-1.5,0.2-2.1-0.3l0,0c-1.9-1.2-1.5-5.6-1.4-6.1
	C490.1,615.7,490.5,613.2,492.1,612.7L492.1,612.7z"/>
<path d="M519.4,620.2L519.4,620.2c-1.4,0.1-3.5,0-4.5,0l4.4-3.7c5.6-4.6,7.4-8.4,6-12.5c-1.4-3.9-4.9-4.7-7.9-4.9
	c-4.9-0.5-8.4,1.2-10.5,4.9l-0.1,0.2l0.2,0.1c0,0,1,0.8,1.5,1.3s1.5,1.6,1.5,1.6l0.1,0.1l1.4-0.5v-0.2c-0.2-1.7,0.6-3.4,2-4.3
	c0.8-0.5,1.9-0.5,2.7-0.1c1.4,0.7,2.2,2,2.3,3.5c0.5,5.1-1.9,9-8.3,13.3l-1.4,1l-0.5,0.3c-0.2,0.1-0.4,0.3-0.7,0.3l-0.2,0.1v4.8h0.3
	c0,0,5.3-0.1,8.6-0.1c3.6,0,9.1,0.3,9.2,0.3h0.3v-0.3c-0.2-1.8-0.2-3.6,0.1-5.4v-0.3h-0.3C525.5,619.7,521.8,620.2,519.4,620.2z"/>
<path d="M543.2,609.5h-0.3c0,0-3.7,0.1-6,0.1s-6.3-0.1-6.3-0.1h-0.3v0.4c0.3,1.5,0.3,3,0,4.5l-0.1,0.4h0.3c0,0,3.8-0.1,6.2-0.1
	s6.1,0.1,6.2,0.1h0.3v-0.3c-0.2-1.5-0.2-3,0-4.5L543.2,609.5z"/>
<path d="M564.3,614.5c-0.5,0-1.1,0-1.5,0c-0.1-4.9,0.5-14.7,0.5-14.8v-0.3h-5.9l-11,15.5l0,0.1v0.1c0,0,0.2,1.3,0.2,2.2s0,2.2,0,2.2
	v0.3h0.3c0,0,3.3-0.1,5.3-0.2c1.4,0,3.5,0,4.2,0l-0.1,5.9h6.7v-0.3c0,0-0.1-2.2-0.1-5.6h1.5c0.7,0,1.8,0.1,1.8,0.1h0.3v-0.3
	c-0.3-1.6-0.2-3.2,0.1-4.7v-0.3h-0.3C566.2,614.4,565.1,614.5,564.3,614.5z M556.6,614.7l-6.2-0.1l6.1-8.6c0,1.2,0.1,3.4,0.1,4.6
	C556.6,612.5,556.6,614.1,556.6,614.7z"/>
<path d="M589.2,608.2c0.7-1.9,0.5-4-0.7-5.6c-1.9-2.6-5.4-3.4-7-3.4c-3.7-0.2-6.7,0.3-9.4,3.5l-0.2,0.2l0.2,0.2c0,0,0.8,0.8,1.3,1.3
	s1.3,1.5,1.3,1.5l0.1,0.1h1.1l0.2-0.1v-0.2c0.1-1.1,0.5-2.2,1.2-3.2c0.6-0.7,1.6-1.1,2.5-0.9c1,0.1,1.9,0.9,2.3,1.8
	c0.6,2,0.4,4.2-0.7,6c-1.2,1.5-3.1,1.5-4.4,1.4h-0.3v2.6h0.2c1.2-0.1,2.4,0.2,3.4,0.8c1.3,0.8,2,2.2,1.9,3.7c0,0.8-0.1,3.7-2.2,5
	c-0.9,0.6-2.1,0.8-3.1,0.4c-2-0.8-2.4-2.2-2.7-3.7L574,619h-1.2l-3,3.4l0.2,0.2c1.7,1.6,3.9,2.8,6.2,3.2c0.7,0.1,1.3,0.1,2,0.1
	c2.9,0,6.8-0.8,9.1-2.8c1.8-1.6,2.6-4,2.1-6.4c-0.5-2.4-2.5-3.7-4.9-4.7C586.3,611.3,588.4,610.2,589.2,608.2z"/>
<path d="M613.1,599.5c-0.1,0-5.7,0.1-9.4,0.1s-9.4-0.1-9.4-0.1H594v0.3c0.2,1.9,0.2,3.8,0.1,5.8v0.3h0.3c0,0,4.6-0.3,7.3-0.4
	c1.8,0,4.4,0,5.4,0.1c-0.8,1.3-3.5,6.1-5.6,9.2c-3.4,5.1-6.6,9.1-6.7,9.1l-0.1,0.1l0.8,1.5h0.2c0,0,1.6-0.1,2.7-0.1s2.4,0.1,2.4,0.1
	h0.2l0.1-0.2c0-0.1,3.6-7.5,6-12.2s6.8-11.9,6.8-12l0.1-0.1l-0.6-1.6L613.1,599.5z"/>
<path d="M633,610.1c-2.7-1-5.7-0.8-8.2,0.4c0.2-1.6,0.7-5.1,2.7-7c2.3-2.1,4.6-1.8,6.9-1.3l0.5,0.1l-1.1-3h-0.1
	c-0.4-0.1-0.9-0.2-1.4-0.2l0,0c-1.7-0.1-7.5-0.2-11.2,4.4c-3.9,4.9-3.9,13.3-2.9,16.2c1.1,3.2,3.1,5,6.6,5.9
	c0.8,0.2,1.6,0.3,2.5,0.3c2.6,0.1,5.2-0.7,7.4-2.3c2.4-1.8,3.5-4.7,3-7.6C637.3,613.3,635.5,611.1,633,610.1z M626.7,612.7
	c0.2-0.1,0.4-0.1,0.7-0.1c0.5,0,1,0.2,1.4,0.5c1.7,1.3,1.4,5.5,1.2,6.6c-0.1,0.8-0.6,2.9-2,3.4c-0.7,0.3-1.5,0.2-2.1-0.3l0,0
	c-1.9-1.2-1.4-5.6-1.4-6.1C624.7,615.7,625.2,613.2,626.7,612.7L626.7,612.7z"/>
<path d="M691.2,599.9c-8.7,0-15.2,6.3-15.2,14.6c0,7.9,6.4,12.1,12.7,12.1c2.6,0.1,5.1-0.4,7.4-1.4l0.2-0.1l-0.9-2.4l-0.2,0.1
	c-1.9,0.8-3.9,1.2-5.9,1.2c-6.1,0-10.1-3.8-10.1-9.8c0-6.8,4.9-11.8,11.6-11.8c5.9,0,9.5,3.3,9.5,8.7c0.1,2-0.5,3.9-1.8,5.4
	c-0.5,0.6-1.2,0.9-2,0.9c-0.3,0-0.6-0.1-0.7-0.3c-0.4-0.5-0.4-1.5-0.1-3.1l1.3-7l-0.2-0.1c-1.5-0.6-3.1-0.9-4.7-0.9
	c-6.1,0-9.8,4.6-9.8,9c0,3,1.9,5.1,4.7,5.1c2.2,0,4.2-1,5.4-2.8c0.2,1.7,1.8,2.9,3.5,2.8c4.5,0,7.7-3.9,7.7-9.2
	C703.5,604.6,698.3,599.9,691.2,599.9z M688.2,617.1c-1.1,0.1-2.1-0.8-2.1-1.9c0-0.1,0-0.3,0-0.4c-0.1-3,2.3-5.6,5.3-5.7
	c0.4,0,0.9,0.1,1.3,0.2l-0.7,3.6C691.7,615.2,689.9,617.1,688.2,617.1L688.2,617.1z"/>
<path d="M722.7,603.6c-2.9-1-6.1-0.5-8.6,1.2c0-1-0.1-3.4-0.1-5c0-2.1,0.4-5.6,0.4-5.7v-0.3h-0.3c0,0-2,0.2-3.2,0.2
	s-3.4-0.2-3.4-0.2h-0.3v0.3c0,0.1,0.1,9.3,0,15.1c0,8.7-0.4,13.1-0.4,13.2v0.3h2.7l2.1-2.2c2.2,1.9,3.8,2.6,6,2.9c0.3,0,0.5,0,0.8,0
	c2.6,0,5.1-1.1,7-2.9c2.7-3,3.6-7.1,2.6-10.9C727.5,606.7,725.4,604.4,722.7,603.6z M721,615.8c-0.2,1-0.6,3.4-2.5,4.2
	c-0.9,0.3-1.9,0.3-2.7-0.2l0,0c-1.9-1.1-1.9-4.2-2-5.8v-0.5c0-1.7,0-6.2,2.8-6.9c0.2-0.1,0.5-0.1,0.8-0.1c0.8,0,1.6,0.3,2.2,0.8
	C721.8,609.2,721.3,614.3,721,615.8z"/>
<path d="M749.5,620.2c-0.6-0.7-0.8-1.5-0.7-2.4v-7.3c0-2.6,0.1-4.9-3.5-6.6s-7.6-0.9-11.5,1.8l-0.2,0.1l1,2.5l0.3-0.2
	c0.4-0.4,0.9-0.7,1.4-1c1-0.7,2.3-0.8,3.5-0.5c1.7,0.7,2.1,2.1,2.3,3.5c-0.9,0.5-1.9,1-2.9,1.3c-0.3,0.1-0.6,0.2-0.8,0.3l-0.3,0.1
	l-0.8,0.2c-2.3,0.7-4.2,1.3-5.2,3.4c-0.8,1.6-0.7,3.5,0.1,5.1c0.8,1.4,2.2,2.5,3.9,2.8c0.4,0.1,0.8,0.1,1.1,0.1
	c2-0.1,3.8-0.9,5.3-2.3c0.6,0.5,1.2,1,1.8,1.5c1.3,0.7,3.3,0.6,6.3-0.4l0.2-0.1v-1.7h-0.2C750.3,620.5,749.9,620.4,749.5,620.2z
	 M741,619.3c-0.4,0.3-0.9,0.3-1.3,0.2c-0.6-0.2-0.9-0.7-1-1.6c-0.1-1.2-0.2-2.9,1.3-3.8c0.7-0.4,1.4-0.7,2.2-0.9h0v2.2
	C742.2,617.6,742.2,618.5,741,619.3L741,619.3z"/>
<path d="M764.9,603.2c-2.6,0.3-3.6,0.8-5.2,2.6c0-0.2,0-0.4,0-0.5c0-0.5,0-1.1,0-1.7v-0.3h-0.3c0,0-1.9,0.2-3,0.2
	c-1.1,0-2.1-0.1-3.2-0.2h-0.3v0.3c0,0.1,0.3,5.7,0.3,9.3s-0.3,9.5-0.3,9.5v0.3h0.3c0,0,2-0.2,3.3-0.2s3.4,0.2,3.4,0.2h0.3l-0.2-8.5
	c0-0.2,0-0.4,0-0.7c-0.1-1.3-0.2-2.9,1.4-3.9c1.2-0.8,2.5-0.8,4.5,0l0.3,0.1v-0.4c0-0.5,0-1,0-1.5c-0.1-1.5,0-3,0.2-4.5v-0.3h-0.3
	C765.8,603.2,765.3,603.2,764.9,603.2z"/>
<path d="M784.6,603.6c-2.9-1-6.1-0.5-8.6,1.2c0-1-0.1-3.4-0.1-5c0-2.1,0.4-5.6,0.4-5.7v-0.3H776c0,0-2,0.2-3.2,0.2s-3.3-0.2-3.4-0.2
	h-0.3v0.3c0,0.1,0.1,9.3,0,15.1c0,8.7-0.4,13.1-0.4,13.2v0.3h2.7l2.1-2.2c2.2,1.9,3.8,2.6,6,2.9c0.3,0,0.5,0,0.8,0
	c2.6,0,5.1-1.1,7-2.9c2.7-3,3.6-7.1,2.6-10.9C789.4,606.7,787.3,604.4,784.6,603.6z M783,615.8c-0.2,1-0.6,3.4-2.5,4.2
	c-0.9,0.4-1.9,0.3-2.7-0.2l0,0c-1.9-1.1-1.9-4.2-2-5.8v-0.5c0-1.7,0-6.2,2.8-6.9c0.2-0.1,0.5-0.1,0.8-0.1c0.8,0,1.6,0.3,2.2,0.8
	C783.8,609.2,783.2,614.3,783,615.8z"/>
<path d="M801.4,603.2c-3.3,0.5-6,2.7-7.2,5.8c-1.2,3.1-1.2,7.6,1.5,10.8s6.4,3.6,8.8,3.6c0.6,0,1.2,0,1.8-0.1c1.3-0.1,2.6-0.4,3.8-1
	c0.6-0.3,1.1-0.7,1.5-1.3c0.4-0.5,0.6-1.1,0.8-1.7v-0.1l-1-1.2l-0.2,0.1c-2.6,1.6-5.6,2-7.7,1s-2.7-3.5-2.8-5.4h12.2v-0.2
	c0-2.3,0-5.8-1.9-7.8C808.8,603,803.8,602.8,801.4,603.2z M806.5,610.8H801c0.2-1.5,0.7-4.2,1.9-4.8c0.6-0.3,1.4-0.3,2,0.1
	C806.4,607,806.5,609.8,806.5,610.8z"/>
<path d="M828.4,603.2c-2.6,0.3-3.6,0.8-5.2,2.6c0-0.2,0-0.4,0-0.5c0-0.5,0-1.1,0-1.7v-0.3h-0.3c0,0-1.9,0.2-3,0.2s-3.2-0.2-3.2-0.2
	h-0.3v0.3c0,0.1,0.3,5.7,0.3,9.3s-0.3,9.5-0.3,9.5v0.3h0.3c0,0,2-0.2,3.3-0.2s3.4,0.2,3.4,0.2h0.3l-0.2-8.5c0-0.2,0-0.4,0-0.7
	c-0.1-1.3-0.2-2.9,1.4-3.9c1.2-0.8,2.5-0.8,4.5,0l0.3,0.1v-0.4c0-0.5,0-1,0-1.5c-0.1-1.5,0-3,0.2-4.5v-0.3h-0.3
	C829.2,603.2,828.8,603.2,828.4,603.2z"/>
<path d="M840.1,603.4h-0.3c0,0-2.2,0.2-3.5,0.2c-1.6,0-3.6-0.2-3.6-0.2h-0.3v0.3c0,0.1,0.3,5.8,0.3,9.5s-0.3,9.3-0.3,9.4v0.3h0.3
	c0,0,2.1-0.2,3.6-0.2c1.3,0,3.5,0.2,3.5,0.2h0.3v-0.3c0-0.1-0.3-5.9-0.3-9.6s0.3-9.2,0.3-9.3V603.4z"/>
<path d="M834.4,600.6c0.6,0.3,1.2,0.4,1.8,0.4c0.6,0,1.1-0.1,1.7-0.3c1.2-0.5,2-1.5,2.2-2.8c0.2-1.3-0.4-2.5-1.4-3.2l0,0
	c-1-0.7-2.2-1-3.4-0.7c-0.5,0.1-0.9,0.3-1.3,0.6c-1,0.7-1.6,1.8-1.5,3.1C832.5,598.9,833.3,600,834.4,600.6z"/>
<path d="M862.3,622.1v-1.7h-0.2c-0.4,0-0.8-0.1-1.1-0.3c-0.6-0.7-0.8-1.5-0.7-2.4v-6.6c0-0.2,0-0.5,0-0.7c0-2.6,0-4.9-3.5-6.6
	s-7.6-0.9-11.5,1.8l-0.2,0.1l1,2.5l0.3-0.2c0.4-0.4,0.9-0.7,1.4-1c1-0.7,2.3-0.8,3.5-0.5c1.7,0.7,2.1,2.1,2.3,3.5
	c-0.9,0.5-1.9,1-2.9,1.3c-0.3,0.1-0.6,0.2-0.8,0.3l-0.3,0.1l-0.8,0.2c-2.3,0.7-4.2,1.3-5.2,3.4c-0.8,1.6-0.7,3.5,0.1,5.1
	c0.8,1.4,2.2,2.5,3.9,2.8c0.4,0.1,0.8,0.1,1.2,0.1c2-0.1,3.8-0.9,5.3-2.3c0.6,0.5,1.2,1.1,1.8,1.5c1.3,0.7,3.3,0.6,6.3-0.4
	L862.3,622.1z M852.4,619.3c-0.4,0.3-0.9,0.3-1.3,0.2c-0.6-0.2-0.9-0.7-1-1.6c-0.1-1.2-0.2-2.9,1.3-3.8c0.7-0.4,1.4-0.7,2.2-0.9h0
	v2.2C853.6,617.6,853.6,618.5,852.4,619.3z"/>
<rect x="862.1" y="625" width="20.8" height="2.4"/>
<path d="M904.7,603.4h-0.3c0,0-2.1,0.2-3.3,0.2s-3.2-0.2-3.3-0.2h-0.3l0.2,10.1v0.4c0,2.2,0,3.9-1.8,4.9c-0.8,0.4-1.7,0.4-2.6,0.1
	c-0.9-0.5-2-1.9-1.8-5.9c0-0.1,0-0.1,0-0.2l0.2-9.3h-0.3c0,0-2,0.2-3.2,0.2s-3.2-0.2-3.3-0.2h-0.3v0.3c0,0,0.2,4.6,0.2,7.5
	c0,1.6-0.2,4.2-0.2,4.2v0.4c0,2.8,0,5.2,3.5,6.8c1.1,0.5,2.3,0.8,3.5,0.8c2.1-0.1,4.2-0.9,5.8-2.2v1.6h0.3c0,0,2.1-0.2,3.4-0.2
	s3.2,0.2,3.2,0.2h0.3v-0.3c0-0.1-0.2-6.2-0.2-10.1c0-3.4,0.2-8.7,0.2-8.8L904.7,603.4z"/>
<path d="M927.4,610.8c0-2.5,0.1-5.5-3.3-7.1c-2.7-1.3-6.1-0.8-9.2,1.3c0-0.2,0-0.3,0-0.5c0-0.3,0-0.7,0-1v-0.3h-0.3
	c0,0-2,0.2-3.2,0.2s-3.2-0.2-3.3-0.2h-0.3v0.3c0,0,0.2,4.2,0.2,9.3c0,5.8-0.2,9.5-0.2,9.6v0.3h0.3c0,0,2-0.2,3.3-0.2
	s3.5,0.2,3.5,0.2h0.3l-0.3-9.3v-0.2c0-3.2,0.6-5.2,1.8-5.9c0.8-0.4,1.7-0.4,2.5,0c0.8,0.4,1.8,1.7,1.7,5c0,0.1,0,0.1,0,0.2
	l-0.5,10.2h0.3c0,0,2.2-0.2,3.5-0.2s3.2,0.2,3.3,0.2h0.3l-0.3-11.7L927.4,610.8z"/>
<path d="M950.9,606.1L950.9,606.1c-3-3.1-8.6-3.2-10.5-3c-1.4,0.2-2.8,0.7-4.1,1.3c-3.1,1.6-5.2,4.8-5.3,8.3c-0.4,3.3,1,6.7,3.8,8.7
	c2.1,1.4,4.5,2.1,7,2.1c1.4,0,2.8-0.2,4.2-0.6c3.8-1.2,6-3.3,7-6.9C953.7,613.1,953.4,608.8,950.9,606.1z M943.7,620.1
	c-0.7,0.5-1.7,0.7-2.5,0.4c-1.3-0.6-2.2-1.7-2.4-3.1c-0.5-2-1.3-9.7,2.1-11c1-0.3,2-0.1,2.9,0.4c2.2,1.3,2.3,5.9,2.3,6
	C946,614.3,946.1,618.5,943.7,620.1L943.7,620.1z"/>
<path d="M972.7,607.9c-3.7,0-6.7,3-6.7,6.7s3,6.7,6.7,6.7s6.7-3,6.7-6.7v0C979.4,610.9,976.4,607.9,972.7,607.9z"/>
<path d="M657.5,607.9c-3.7,0-6.7,3-6.7,6.7s3,6.7,6.7,6.7s6.7-3,6.7-6.7v0C664.2,610.9,661.2,607.9,657.5,607.9z"/>
<circle cx="351.3" cy="614.7" r="6.7"/>
</svg>
