<svg id="Layer_1" data-name="Layer 1" xmlns="http://www.w3.org/2000/svg" viewBox="0 0 1000 708.89"><defs><style>.cls-1{fill:#070504;}.cls-2{fill:none;}.cls-3{fill:#ffc456;}</style></defs><path class="cls-1" d="M388.73,101.89c.42-1.08-.67-1.75-1.16-2.59-2.62-4.57-1.26-7.87,3.74-9.64a16.45,16.45,0,0,1,6.41-.69c4.24.21,5.19,1,6.61,5.11,2.93-1.89,5.84-3.8,8.79-5.64a26.11,26.11,0,0,1,7.73-3.37c5.87-1.43,8.87,1.1,8.85,7.21a14.15,14.15,0,0,1-2.31,7,166.85,166.85,0,0,1-10.15,14.79c-.8,1.09-1.73,2.09-2.48,3.23-.5.74-1.77,2.39-1.31,3.34.64,1.35,2.91-.58,3.62-1q12.53-8.2,24.3-17.46c1.71-1.34,3.34-2.9,5.79-2,1.85.69,1.89-1,2.23-1.85,5.92-14.45,13-28.39,19.36-42.62,1.42-3.18,2.8-6.39,4.41-9.47a8.74,8.74,0,0,1,9.09-4.81c3.14.5,4.62,2.61,3.75,5.7a28.1,28.1,0,0,1-2,4.54q-8.52,17.46-17.06,34.9c-.15.31-.4.9-.23,1.24.36.71,1.57-.43,1.93-.66,1.08-.68,2.28-1.23,3.42-1.82a44.56,44.56,0,0,1,7.57-3.21,24.77,24.77,0,0,1,3.17-.76c8.51-1.48,17.47,5.47,14.43,15.87q-1.1,3.77-2.53,7.41c-.45,1.12-.89,2.25-1.44,3.33a3.78,3.78,0,0,0-.63,2.94c5.27,1.24,10.07-.62,14.81-2.59,1.5-.62,1.78-2.33,2.65-3.51,8.72-11.76,19.94-18.39,35-16.86,9.43,1,13,8.35,8.16,16.51a19.63,19.63,0,0,1-7.25,6.68c-6.65,3.94-14,6-21.43,7.82-.8.2-1.63.3-2.43.52-2,.54-1.75,1.72-.73,3a7.79,7.79,0,0,0,5.75,2.58,42.47,42.47,0,0,0,14.31-1.5,153.73,153.73,0,0,0,17-5.65c2.13-.84,4.32-2.07,6.39.22.78.88,1.47.26,2-.34,2.39-2.55,4.71-5.17,7.16-7.66,1.14-1.15.93-2.33.65-3.67-1-4.87,2.79-8.12,8-7.11a17,17,0,0,1,6.85,2.89c1.77,1.29,3.45,2.73,2.67,5.34-.18.36-.61.87-.5,1,.37.58,1,.39,1.51.14,3-.42,5.92-.94,8.9-1.21a33.84,33.84,0,0,1,7,0c3,.35,6.36.69,7.45,4s-.32,6.57-2.67,9.16a30.26,30.26,0,0,1-7.61,5.62c-4.47,2.56-9,5-13.49,7.55-1,.55-2.06.93-3,1.57a3.53,3.53,0,0,0-1.23,1.23c-.86,1.66,2.82.9,3.5.83,1.34-.13,2.68-.31,4-.53,2.56-.41,5.1-.93,7.67-1.26,7.9-1,15.46-3.93,23.48-4.24,1.33-.06,2-1.1,2.86-1.84,2.53-2.17,5-4.41,7.57-6.53,1.85-1.53,3.92-2.54,6.44-1.74,4.86,1.54,6.12,6.72,2.32,10.16-4.44,4-9.11,7.79-13.61,11.76a22.8,22.8,0,0,0-5.55,6.38c-1.06,2-.54,3.5,1.57,4.41,3,1.32,6.18,1.16,9.33.58a69.72,69.72,0,0,0,14.24-4.49c1.21-.51,2.5-1.66,3.73-1.18,3.38,1.31,5.59-.89,8.1-2.27,9-5,18.39-6.71,28.25-2.69,4.46,1.82,8.13,4.69,10.06,9.2a4.23,4.23,0,0,0,4.5,3,6.18,6.18,0,0,1,3.7,1.35c3,2.17,3.32,5.5.52,8-3.74,3.31-7.69,6.38-11.49,9.63a39.33,39.33,0,0,0-6.64,6.76c-1.07,1.49-2.16,3.18-1.29,5.08s2.95,2,4.77,2c5.53,0,10.89-1.25,16.27-2.36,1.44-.3,2.9-.68,4.35-1a2.74,2.74,0,0,1,3.13.91,4,4,0,0,1-.29,4.68,5.45,5.45,0,0,1-3.32,2c-9.22,2.28-18.45,4.45-28.07,3.94-.83,0-1.67-.07-2.49-.18-8.55-1-12-7.41-8.13-15.14.31-.63.66-1.23,1-1.83.27-.45,1.07-1.31.74-1.72-.71-.86-2.12-.06-2.9.26a27.38,27.38,0,0,1-4.1,1.15,55.63,55.63,0,0,1-9.35,1.46c-5.91.38-12.06-2.22-15-7.55a13,13,0,0,1-1.56-6.09,17.23,17.23,0,0,1,.71-4.45c.12-.5.6-1.53.29-2s-1-.39-1.36-.35a10.35,10.35,0,0,0-2.06.74c-6.24,1.94-12.52,3.36-19.14,2.75a20.84,20.84,0,0,1-5.79-1.37c-7-2.8-9.22-8.3-6.27-15.32.29-.69.71-1.3,1.06-1.95s1-1.61.61-2.32c-.33-.55-1.32-.6-1.87-.51a27.8,27.8,0,0,0-3,.93c-1.09.31-2.18.6-3.28.89q-3.27.87-6.58,1.6c-2.4.53-4.81,1-7.24,1.42-3.6.62-7.26,1.06-10.84-.29-6-2.25-7.65-6.78-4.44-12.26a31.49,31.49,0,0,1,7.81-8.34c3.24-2.62,6.6-5.08,9.82-7.71,1-.81,2.36-1.94,2.72-3.24.6-2.17-2.24-1.64-3.49-1.6a28.92,28.92,0,0,0-3.35.28,17.83,17.83,0,0,0-11.4,6.28c-4.25,5.13-8.91,9.9-13.3,14.91a15.4,15.4,0,0,1-8.94,5.08c-2.17.41-4.49.48-5.91-1.56-1.55-2.24.11-4.06,1.29-5.84s3.08-2.57,3.69-4.62c-1.33-1.47-2.43-.2-3.53.23-8.23,3.26-16.55,6.12-25.52,6.33-1.66,0-3.33,0-5-.08-8.56-.58-13.5-4.42-15.86-12.63-.66-2.29-1.23-3.38-4-2.54-5.73,1.75-11.57,3.5-17.38.1-.9-.53-1.52.1-2.13.71-1.3,1.3-2.58,2.62-4,3.81a30,30,0,0,1-21.58,7.56c-8.45-.39-13.14-4.9-13.74-13.38-.11-1.6.2-3.21,0-4.82-.06-.57-.14-1.4-.69-1.72-1.12-.65-2,.73-2.72,1.32-6.4,5.33-12.55,11-19.54,15.54-3.2,2.09-6.45,4.09-10.54,4-5.38-.09-8.37-3.1-8.12-8.42.19-4.26,1.79-8.1,3.59-11.85s3.79-7,5.48-10.64a12.77,12.77,0,0,0,1.06-2.5,4.83,4.83,0,0,0,0-2.14c-.31-1.25-1.7-.76-2.52-.37-3.09,1.47-6.25,3.26-8.43,6a14.13,14.13,0,0,0-2.45,4.51c-2.3,6.93-4.36,14-6.42,21a15,15,0,0,1-6.11,8.81c-2,1.28-4.2,2.72-6.39.91-1.88-1.55-1.48-3.84-.77-6,1.18-3.63,2.24-7.3,3.3-11C383,120.56,386.93,106.57,388.73,101.89ZM484.16,99c0-5.55-2.31-7.38-7.91-6.31a22.47,22.47,0,0,0-12.61,7.42c-3.28,3.63-5.85,7.65-5.91,12.79-.07,4.92,2.14,7.07,6.95,6.79C474.31,119.07,484.17,108.59,484.16,99ZM679.92,152.7c-7.55.27-13.47,3.39-17.12,10.16-3.06,5.69-.53,9.73,5.88,9.13,7.22-.67,13.88-3.35,20.1-7,2.93-1.71,3.36-3.84,1.63-6.76C688.07,154.31,684.47,152.58,679.92,152.7ZM521.75,110.87a63.71,63.71,0,0,0,10.65-3.64q2.6-1.14,5.1-2.44a24,24,0,0,0,4.79-2.78,3.9,3.9,0,0,0,1.3-1.94,3,3,0,0,0-2.32-3.61c-4.18-1.09-9.32,1.67-12.33,4.4a26,26,0,0,0-4,4.62c-.59.86-1.14,1.74-1.68,2.64C523.07,108.53,522.14,110.78,521.75,110.87Z"/><path class="cls-1" d="M254.51,118.54c5-6.22,9-12.27,11.23-19.35a19,19,0,0,0,.92-4.39c.31-4.57-1.86-6.47-6.41-5.6a22.87,22.87,0,0,0-7.37,3c-9.1,5.44-15.81,13.14-21,22.24a84.19,84.19,0,0,0-7.09,15.9c-.83,2.55-1.81,5-4.22,6.57-4.2,2.71-8,1.14-8.88-3.78a18.27,18.27,0,0,1,.85-8.85c3.84-12.08,11.33-21.72,20.37-30.29,7.95-7.52,16.88-13.46,27.58-16.4a22.23,22.23,0,0,1,6.92-.72c8.34.37,13.34,6.43,12.09,14.82-1,7-4,13.33-7.94,19.19-2,3-4.14,5.89-6.7,9.52,3-.3,5.16-.42,7.28-.74a32.37,32.37,0,0,1,10.44.39,17.51,17.51,0,0,1,14.3,15.8,33.59,33.59,0,0,1-3.56,17.39c-6,12.62-15.11,22.62-26,31.12a81.39,81.39,0,0,1-16,10c-3.05,1.41-7.21,3.12-10.67,2.35-2.92-.64-5.31-3.35-4.16-6.4.79-2.09,2.91-3.64,4.7-4.85,1.16-.78,2.43-1.39,3.61-2.15.08-.06.61-.31.62-.42a57.8,57.8,0,0,0,.23-6.43c-.78-14.8-1.31-29.61-1.89-44.42-.11-3,0-6,0-9a21.4,21.4,0,0,1,.24-3.49c.62-3.4,2.23-5.15,4.91-5.48C251.36,113.76,252.4,114.53,254.51,118.54Zm4.69,56.21c7.9-5.59,16-13.05,20.37-21.91a21.35,21.35,0,0,0,2.39-8.05c.5-7.3-2.63-11.68-9.79-13.36-4.29-1-8.83-.51-13.16,0l-1.33.15a11.23,11.23,0,0,0,0,2.41c.21,4.43.68,8.84,1,13.25s.38,8.87.48,13.31S259.15,174.35,259.2,174.75Z"/><path class="cls-1" d="M380.72,121a127.31,127.31,0,0,1-10,15.5,31.1,31.1,0,0,1-7.13,6.94c-5.15,3.44-10.45,2.21-13.61-3.14a22.38,22.38,0,0,1-2.53-7.43c-1.64,3.44-3,6.53-4.58,9.54a28.75,28.75,0,0,1-8.18,9.94c-4.67,3.5-11.69,4-16.46.36-3.26-2.48-4.69-6.48-5.2-10.41a63,63,0,0,1-.79-10.53,36,36,0,0,1,6.52-19.57,40.54,40.54,0,0,1,4.78-5.52c5.62-5.43,12.48-8.3,20.53-5.68a3.53,3.53,0,0,0,4-1,9.64,9.64,0,0,1,3.25-2.28c4-1.56,7.11.32,7.26,4.61.09,2.82-.14,5.66-.3,8.48a77.61,77.61,0,0,0,.28,14,11.84,11.84,0,0,0,.92,3.85c1.52,3,3.26,3.51,5.83,1.26,2.79-2.44,4.72-5.58,6.59-8.73,1.69-2.85,3.21-5.81,4.84-8.71.88-1.55,1.61-3.6,3.94-3C386.4,111,382.46,118,380.72,121Zm-57.36,9.81a14,14,0,0,0,2.43,8.63,6.29,6.29,0,0,0,5.26,2.53c2.32-.19,3.67-2.26,4.85-4.05a48,48,0,0,0,4.64-9.15,48,48,0,0,0,3-10.06,4.24,4.24,0,0,0-2.93-5c-3.78-1.44-7.19-.61-10.23,1.83a18.88,18.88,0,0,0-6.56,11.08A23.86,23.86,0,0,0,323.36,130.84Z"/><path class="cls-1" d="M659.35,119.58a9.12,9.12,0,0,1-6.41-2.28,6,6,0,0,1-1.81-2.57c-1.41-4.21,2.88-7.7,6.58-8.49a9.3,9.3,0,0,1,9,2.92c2.77,3.31.28,7.15-2.86,9A9.6,9.6,0,0,1,659.35,119.58Z"/><path class="cls-2" d="M885.43,388.36c0,23.09-2.51,42.59-7.58,59.63-2.3,7.72-5.06,15.82-9.62,22.83a37.5,37.5,0,0,1-22.85,16.52,63.86,63.86,0,0,1-33.38-.12c-12-3.22-20.43-10.52-25.86-22.3-5-10.92-8.55-23.14-10.77-37.35a267.48,267.48,0,0,1-2.82-50.41c.83-23.26,3.8-41.85,9.34-58.52a88.77,88.77,0,0,1,7.32-17.13,38,38,0,0,1,24-18.25A62.28,62.28,0,0,1,829,281.17a61.59,61.59,0,0,1,15.64,2.06c12.77,3.37,21.75,11.53,27.45,24.93,6.61,15.53,10.67,33.33,12.43,54.42C885.13,370.25,885.28,377.77,885.43,388.36Z"/><path class="cls-1" d="M675.32,284.25a23,23,0,0,1-9.49,3.26A65.8,65.8,0,0,0,654.6,290c-8.08,2.61-10.89,6.28-11.15,14.54-.4,12.57-.63,25.39-.85,37.8-.06,3.51-.13,7-.19,10.53q-.36,18.9-.69,37.81c-.48,26.93-1,54.77-1.6,82.16-.32,13.93-.54,26.15-.69,37.37,0,2.63-.09,7.52-3.47,11.64s-7.72,5-10.4,5.67a31.22,31.22,0,0,1-7.32.84,52.45,52.45,0,0,1-9.59-1c-5.62-1-8.94-4.47-10.92-6.53l-.52-.54q-31.63-32-63.28-64L505.3,427.39c-21.05-21.27-42.7-43.13-64.19-64.86l0,2.37c-.24,17.57-.49,35.74-.93,53.64-.39,15.48-.64,31.6-.76,49.28-.06,8.22,2.07,11.24,9.91,14.09a56.21,56.21,0,0,0,12.59,2.81c12.16,1.43,18.59,9.58,17.2,21.79a38.31,38.31,0,0,1-1.07,5.22l0,.21c-1.84,7-7.39,11.41-14.49,11.41-.44,0-.88,0-1.33-.05-4.88-.37-9.73-.53-14.87-.71-4.22-.14-8.57-.29-12.93-.56-6.64-.42-13.14-.63-19.32-.63-7,0-13.95.27-20.55.81-5.09.42-10.16.6-15.06.77-2.71.09-5.52.19-8.23.33l-1,0a15,15,0,0,1-14.89-11.56,27.92,27.92,0,0,1-.6-12.23c1.55-8.6,6.52-13.35,15.21-14.52a70.52,70.52,0,0,0,15.12-3.47c5.4-2,7.9-5.18,8.64-11,.4-3.24.56-6.61.66-9.48l.4-11.32c.62-17.25,1.25-35.09,1.91-52.63q.63-16.8,1.3-33.59c.56-14.52,1.15-29.53,1.69-44.3a59.46,59.46,0,0,0-.87-13.86c-1.63-8.21-5.69-12.79-13.6-15.31a59.57,59.57,0,0,0-11.08-2.58l-.46,0c-2.5-.27-9.12-1-12.85-7.13a17,17,0,0,1-.87-1.63,14,14,0,0,1-3.7,5.13c-3.53,3.06-7.67,3.39-10.14,3.59a67.79,67.79,0,0,0-13,2.71c-5.82,1.66-8.23,4.65-8.87,11-.32,3.23-.48,6.3-.48,9.37q0,15.18,0,30.36c0,25.11,0,51.08,0,76.61,0,16.91-1.79,29.72-5.92,41.53-9.29,26.55-24,45.19-45.1,57a93.19,93.19,0,0,1-34.19,11.24A230,230,0,0,1,210.28,529a183.14,183.14,0,0,1-58-9.1c-24-8-42.32-21.76-54.43-40.87-7.57-12-12.57-25.81-15.28-42.36A199.41,199.41,0,0,1,80.42,404c0-18.63,0-37.56,0-55.88q0-20.55,0-41.11a43.62,43.62,0,0,0-.76-8.38c-.88-4.66-3-6.42-5.84-7.62a55.33,55.33,0,0,0-14.09-3.53l-.58-.07c-2.66-.3-9.71-1.12-13.47-7.75-4-7.05-2.75-14.08-2-18.29,1.33-7.48,7.14-12.31,14.81-12.31h.56c4.67.13,9.46.21,14.09.29,6.71.11,13.64.23,20.53.52,12.23.51,23.62.76,34.82.76s22.49-.27,33.11-.8c7.17-.36,14.36-.47,21.32-.57,4.08-.06,8.3-.12,12.41-.23h.5c7,0,12.43,4.12,14.58,11a26.07,26.07,0,0,1,1.06,9.28c-.22,4.19-.94,9-4.65,12.87-4.12,4.32-9.76,5-12.47,5.27a57.37,57.37,0,0,0-12.21,2.75c-4.73,1.64-7,4.52-7.72,9.95a67,67,0,0,0-.6,9v12.07c0,32.41-.08,65.92.06,98.86.07,15.32,1.22,32.71,9.26,45.58,10,15.94,30.6,17.66,39,17.66a71.72,71.72,0,0,0,28.72-5.89c24.72-11.07,27.15-45.71,27.3-56.07.2-13.32.15-26.93.11-40.08q0-8.62,0-17.25V353h.07v-4.49q0-21,0-42a29.63,29.63,0,0,0-1.55-10.07,7.84,7.84,0,0,0-4.64-4.94,56.87,56.87,0,0,0-15.75-4.09c-9.24-1.23-13.76-5.39-15.6-14.36a27.08,27.08,0,0,1,0-10.87c.41-2,1.38-6.78,5.66-10,3.85-2.94,8.15-3,10.46-3h1.71c7,0,13.89.42,20.57.83,4,.24,8.16.5,12.19.65,2.49.09,5,.13,7.77.13,8.25,0,16.75-.42,25-.84,5.21-.26,10.59-.53,15.94-.69,1.07,0,2.14-.07,3.21-.08h.55c2.46,0,9,0,13.73,4.79a15.09,15.09,0,0,1,2.48,3.3c1.74-3.4,5.77-8.16,14.68-8.16.57,0,1.13,0,1.69,0h.32c5.27.15,10.53.47,15.62.78,7.2.43,14,.84,20.83.84,2.69,0,5.16-.07,7.56-.2,3-.16,6.16-.37,9.17-.57,5.72-.37,11.64-.77,17.58-.92h.73a21.36,21.36,0,0,1,16.23,7c19.58,20.54,39.57,41.35,58.91,61.49q7.71,8,15.43,16.06l3.43,3.57c18.75,19.53,38,39.6,57.19,59.55q0-45.33,0-90.65a31,31,0,0,0-.26-4.37c-.78-5.23-3.17-8.18-8.28-10.18a72.38,72.38,0,0,0-16.76-4.12c-9.56-1.29-14.52-6.36-15.64-15.94a31.2,31.2,0,0,1-.12-5.42c.16-2.76.51-8.53,5-12.73s10.13-4.19,12.88-4.2h.66c7.85,0,15.58.59,23.06,1.16,2.94.22,6,.46,9,.64s6.26.29,9.73.29c8.3,0,16.51-.54,25.2-1.12l1.57-.1c5-.34,10.09-.48,15-.61,2.28-.07,4.56-.13,6.85-.22h.57c7,0,14.42,4.92,15.4,15.91C684.2,276.69,678.69,282.08,675.32,284.25Z"/><path class="cls-1" d="M981.74,374.87c-1.64-22.53-7.76-43-18.2-60.94-19.73-33.84-48-55.93-84.14-65.68a192.35,192.35,0,0,0-50.08-6.64,208.81,208.81,0,0,0-43.57,4.72c-43.5,9.31-75.86,35.07-96.19,76.57-14.58,29.77-18.25,61.67-10.89,94.8,5.34,24.06,15.27,44.79,29.51,61.59s33.2,30,56.06,39c18.22,7.15,38.13,10.48,62.66,10.48H829c1.11,0,2.21,0,3.32,0A184.07,184.07,0,0,0,878.76,523c43.89-11.47,75.24-38.93,93.2-81.62C980.34,421.5,983.54,399.73,981.74,374.87ZM845.38,487.34a63.86,63.86,0,0,1-33.38-.12c-12-3.22-20.43-10.52-25.86-22.3-5-10.92-8.55-23.14-10.77-37.35a267.48,267.48,0,0,1-2.82-50.41c.83-23.26,3.8-41.85,9.34-58.52a88.77,88.77,0,0,1,7.32-17.13,38,38,0,0,1,24-18.25A62.28,62.28,0,0,1,829,281.17a61.59,61.59,0,0,1,15.64,2.06c12.77,3.37,21.75,11.53,27.45,24.93,6.61,15.53,10.67,33.33,12.43,54.42.63,7.67.78,15.19.93,25.78,0,23.09-2.51,42.59-7.58,59.63-2.3,7.72-5.06,15.82-9.62,22.83A37.5,37.5,0,0,1,845.38,487.34Z"/><path class="cls-3" d="M655.79,260.78a12.34,12.34,0,0,1-5,1.6,75.79,75.79,0,0,0-13.13,3c-12.4,4-18.34,11.56-18.76,24.65-.51,16.15-.73,32.31-1,48.47-.76,40-1.38,80-2.29,119.93q-.42,18.74-.69,37.48c-.06,4.94-.75,5.64-5.42,6.75a20,20,0,0,1-4.77.54,42.65,42.65,0,0,1-7.61-.86c-2.45-.45-4-2.33-5.6-4q-31.63-32-63.28-64-52.92-53.46-105.84-106.95c-1.51-1.52-2.75-3.3-4.12-5l-1.16.54c-.07,1.2-.19,2.4-.2,3.6-.42,25.83-.64,51.65-1.28,77.47q-.61,24.73-.76,49.47c-.1,12.92,5,20.09,17.16,24.51a66.71,66.71,0,0,0,15,3.39c6.2.73,8.27,3.37,7.56,9.62a27.79,27.79,0,0,1-.84,3.91c-.54,2.06-1.71,3.18-3.84,3.18a4.26,4.26,0,0,1-.5,0c-9.3-.7-18.63-.7-28-1.28-6.66-.42-13.33-.65-20-.65-7.14,0-14.29.27-21.44.85-7.63.62-15.31.69-23,1.08h-.42c-2.31,0-3.63-1.05-4.27-3.43a16.81,16.81,0,0,1-.39-7.42c.7-3.88,1.85-5,5.85-5.56a81.15,81.15,0,0,0,17.45-4.05c9.37-3.45,14.51-10.12,15.75-20,.44-3.48.62-7,.75-10.45q1.13-32,2.31-63.93c1-26,2-51.93,3-77.89A70.71,70.71,0,0,0,396,289c-2.39-12.09-9.36-19.93-21-23.65a70.73,70.73,0,0,0-13.1-3c-1.75-.21-4.21-.27-5.24-2-1.93-3.19-1.7-8.33-.53-11.77.8-2.38,2.94-2.72,5.12-2.72.57,0,1.14,0,1.68,0,12.27.37,24.5,1.63,36.78,1.63q4.06,0,8.16-.21c8.81-.48,17.6-1.26,26.43-1.48h.44a10.44,10.44,0,0,1,8.28,3.57Q480,288.32,517.34,327q38.08,39.66,76.18,79.29c.88.92,1.55,2.19,3.39,2.48v-3.94q0-56.49,0-113a41,41,0,0,0-.38-6c-1.37-9.21-6.43-15.39-15.14-18.81A82.7,82.7,0,0,0,562,262.28c-4.57-.62-5.65-1.71-6.18-6.31a20.33,20.33,0,0,1-.07-3.49c.33-5.59,1.44-6.57,6.91-6.59h.61c10.47,0,20.88,1.12,31.31,1.78,3.48.22,7,.31,10.43.31,9.18,0,18.34-.64,27.5-1.25,7.15-.47,14.31-.54,21.47-.8h.17c3.11,0,4.21,3.26,4.45,5.89C658.91,254.91,658.66,258.92,655.79,260.78Z"/><path class="cls-3" d="M337.73,253.71a16.4,16.4,0,0,1-.7,3.9c-1,3.88-1.33,4.24-5.41,4.57a78.48,78.48,0,0,0-15.12,3.09c-10.36,3-15.74,9.89-16.8,20.52a104.53,104.53,0,0,0-.54,10.46q0,53.51,0,107c0,12.9-1,25.64-5.31,37.88-7.53,21.55-19.66,39.59-40.09,51a82.13,82.13,0,0,1-30.17,9.93,217.72,217.72,0,0,1-26.89,1.72,171.1,171.1,0,0,1-54.52-8.54c-20.14-6.71-37-18-48.62-36.32-7.42-11.72-11.49-24.66-13.72-38.25a189.71,189.71,0,0,1-2-30.87q.08-48.49,0-97a55.37,55.37,0,0,0-.95-10.43c-1.4-7.42-5.34-12.77-12.4-15.73a66.65,66.65,0,0,0-16.88-4.28c-2-.27-4.8-.33-5.94-2.35-2-3.48-1.4-7.21-.74-10.93.38-2.17,1.64-3.24,4-3.24h.24c11.49.34,23,.33,34.48.81,11.76.49,23.52.77,35.28.77,11.22,0,22.44-.25,33.66-.82s22.32-.48,33.48-.78h.2c2.34,0,3.43,1.21,4.08,3.3a15.39,15.39,0,0,1,.57,5.43c-.3,5.87-1.53,7.11-7.38,7.78A67.89,67.89,0,0,0,165,265.64c-8.94,3.11-13.72,9.64-15,18.82a76.17,76.17,0,0,0-.71,10.46c0,37-.11,74,.05,111,.08,17.34,1.49,36.25,10.93,51.36,10.1,16.18,29.21,22.83,48.35,22.83a83,83,0,0,0,33.22-6.85c25-11.2,33.42-40.73,33.8-65.94.29-19.16.07-38.33.07-57.5h.07q0-28.74,0-57.49a40.75,40.75,0,0,0-2.17-13.74A18.78,18.78,0,0,0,263,267.23a67.72,67.72,0,0,0-18.74-4.93c-4.56-.61-5.38-1.3-6.27-5.67a16,16,0,0,1,0-6.46c.74-3.67,1.54-4.19,5.45-4.23h1.6c10.81,0,21.56,1.07,32.35,1.47,2.73.1,5.46.14,8.18.14,13.77,0,27.51-1.11,41.26-1.54,1,0,2-.06,3-.07h.42C336.28,245.93,337.79,247.53,337.73,253.71Z"/><path class="cls-3" d="M958.33,362.27c-1.45-19.92-6.63-38.68-16.72-55.9-17.79-30.35-43.23-51.1-77.5-60.31a181.4,181.4,0,0,0-47.23-6.23h0a197.86,197.86,0,0,0-41.27,4.46c-41.08,8.74-70.27,33-88.61,70.31-13.63,27.68-16.71,57.13-10,87.1,9.92,44.46,36.22,75.62,78.84,92.27,18.66,7.29,38.3,9.67,58.66,9.67h2.1l3.27,0a173.83,173.83,0,0,0,43.73-5.36c41-10.67,69.43-36.07,85.82-74.87C957.63,403.93,959.86,383.36,958.33,362.27ZM875.94,437.4c-2.67,8.93-5.78,17.7-10.94,25.59a48.65,48.65,0,0,1-29.29,21.08,75.28,75.28,0,0,1-39-.14c-15.38-4.12-26.3-13.75-33-28.21a149.42,149.42,0,0,1-11.65-40.1,273.62,273.62,0,0,1-3-52.26c.74-20.84,3.25-41.44,9.9-61.34a97.46,97.46,0,0,1,8.3-19.2,48.94,48.94,0,0,1,30.62-23.17,73.15,73.15,0,0,1,18.6-2.44A72.28,72.28,0,0,1,835,259.62c16.81,4.42,28,15.39,34.76,31.13,7.86,18.38,11.62,37.72,13.28,57.57.69,8.31.83,16.62,1,26.51C884,395,882.21,416.48,875.94,437.4Z"/><path d="M669.58,250.83c-1-11-8.44-15.91-15.4-15.91h-.57c-2.29.09-4.57.15-6.85.22-4.86.13-9.9.27-15,.61l-1.57.1c-8.69.58-16.9,1.12-25.2,1.12-3.47,0-6.65-.09-9.73-.29s-6-.42-8.95-.64c-7.48-.57-15.21-1.16-23.06-1.16h-.66c-2.75,0-8.46,0-12.88,4.2s-4.8,10-5,12.73a31.2,31.2,0,0,0,.12,5.42c1.12,9.58,6.08,14.65,15.64,15.94a72.38,72.38,0,0,1,16.76,4.12c5.11,2,7.5,4.95,8.28,10.18a31,31,0,0,1,.26,4.37q0,45.31,0,90.65c-19.18-19.95-38.44-40-57.19-59.55l-3.43-3.57q-7.71-8-15.43-16.06c-19.34-20.14-39.33-40.95-58.91-61.49a21.36,21.36,0,0,0-16.23-7H434c-5.94.15-11.86.55-17.58.92-3,.2-6.13.41-9.17.57-2.4.13-4.87.2-7.56.2-6.84,0-13.63-.41-20.83-.84-5.09-.31-10.35-.63-15.62-.78h-.32c-.56,0-1.12,0-1.69,0-8.91,0-12.94,4.76-14.68,8.16a15.09,15.09,0,0,0-2.48-3.3c-4.73-4.79-11.27-4.79-13.73-4.79h-.55c-1.07,0-2.14,0-3.21.08-5.35.16-10.73.43-15.94.69-8.23.42-16.73.84-25,.84-2.74,0-5.28,0-7.77-.13-4-.15-8.18-.41-12.19-.65-6.68-.41-13.59-.83-20.57-.83H243.4c-2.31,0-6.61.06-10.46,3-4.28,3.25-5.25,8-5.66,10a27.08,27.08,0,0,0,0,10.87c1.84,9,6.36,13.13,15.6,14.36a56.87,56.87,0,0,1,15.75,4.09,7.84,7.84,0,0,1,4.64,4.94,29.63,29.63,0,0,1,1.55,10.07q0,21,0,42v4.49h-.07v11q0,8.63,0,17.25c0,13.15.09,26.76-.11,40.08-.15,10.36-2.58,45-27.3,56.07a71.72,71.72,0,0,1-28.72,5.89c-8.42,0-29.07-1.72-39-17.66-8-12.87-9.19-30.26-9.26-45.58-.14-32.94-.1-66.45-.06-98.86V294.93a67,67,0,0,1,.6-8.95c.76-5.43,3-8.31,7.72-10a57.37,57.37,0,0,1,12.21-2.75c2.71-.31,8.35-.95,12.47-5.27,3.71-3.88,4.43-8.68,4.65-12.87a26.07,26.07,0,0,0-1.06-9.28c-2.15-6.9-7.6-11-14.58-11h-.5c-4.11.11-8.33.17-12.41.23-7,.1-14.15.21-21.32.57-10.62.53-21.76.8-33.11.8s-22.59-.25-34.82-.76c-6.89-.29-13.82-.41-20.53-.52-4.63-.08-9.42-.16-14.09-.29H45c-7.67,0-13.48,4.83-14.81,12.31-.75,4.21-2,11.24,2,18.29,3.76,6.63,10.81,7.45,13.47,7.75l.58.07a55.33,55.33,0,0,1,14.09,3.53c2.87,1.2,5,3,5.84,7.62a43.62,43.62,0,0,1,.76,8.38q0,20.55,0,41.11c0,18.32,0,37.25,0,55.88A199.41,199.41,0,0,0,69,422.47c2.71,16.55,7.71,30.4,15.28,42.36,12.11,19.11,30.42,32.86,54.43,40.87a183.14,183.14,0,0,0,58,9.1A230,230,0,0,0,225,513a93.19,93.19,0,0,0,34.19-11.24c21.06-11.81,35.81-30.45,45.1-57,4.13-11.81,6-24.62,5.92-41.53-.05-25.53,0-51.5,0-76.61q0-15.18,0-30.36c0-3.07.16-6.14.48-9.37.64-6.38,3.05-9.37,8.87-11a67.79,67.79,0,0,1,13-2.71c2.47-.2,6.61-.53,10.14-3.59a14,14,0,0,0,3.7-5.13,17,17,0,0,0,.87,1.63c3.73,6.16,10.35,6.86,12.85,7.13l.46.05a59.57,59.57,0,0,1,11.08,2.58c7.91,2.52,12,7.1,13.6,15.31a59.46,59.46,0,0,1,.87,13.86c-.54,14.77-1.13,29.78-1.69,44.3q-.66,16.8-1.3,33.59c-.66,17.54-1.29,35.38-1.91,52.63l-.4,11.32c-.1,2.87-.26,6.24-.66,9.48-.74,5.85-3.24,9-8.64,11a70.52,70.52,0,0,1-15.12,3.47c-8.69,1.17-13.66,5.92-15.21,14.52a27.92,27.92,0,0,0,.6,12.23,15,15,0,0,0,14.89,11.56l1,0c2.71-.14,5.52-.24,8.23-.33,4.9-.17,10-.35,15.06-.77,6.6-.54,13.52-.81,20.55-.81,6.18,0,12.68.21,19.32.63,4.36.27,8.71.42,12.93.56,5.14.18,10,.34,14.87.71.45,0,.89.05,1.33.05,7.1,0,12.65-4.37,14.49-11.41l.05-.21a38.31,38.31,0,0,0,1.07-5.22c1.39-12.21-5-20.36-17.2-21.79a56.21,56.21,0,0,1-12.59-2.81c-7.84-2.85-10-5.87-9.91-14.09.12-17.68.37-33.8.76-49.28.44-17.9.69-36.07.93-53.64l0-2.37C449,370,470.68,391.89,491.73,413.16l28.63,28.92q31.65,32,63.28,64l.52.54c2,2.06,5.3,5.5,10.92,6.53a52.45,52.45,0,0,0,9.59,1,31.22,31.22,0,0,0,7.32-.84c2.68-.63,7.15-1.7,10.4-5.67s3.44-9,3.47-11.64c.15-11.22.37-23.44.69-37.37.62-27.39,1.12-55.23,1.6-82.16q.33-18.9.69-37.81c.06-3.51.13-7,.19-10.53.22-12.41.45-25.23.85-37.8.26-8.26,3.07-11.93,11.15-14.54a65.8,65.8,0,0,1,11.23-2.52,23,23,0,0,0,9.49-3.26C665.12,267.85,670.63,262.46,669.58,250.83ZM337,257.61c-1,3.88-1.33,4.24-5.41,4.57a78.48,78.48,0,0,0-15.12,3.09c-10.36,3-15.74,9.89-16.8,20.52a104.53,104.53,0,0,0-.54,10.46q0,53.51,0,107c0,12.9-1,25.64-5.31,37.88-7.53,21.55-19.66,39.59-40.09,51a82.13,82.13,0,0,1-30.17,9.93,217.72,217.72,0,0,1-26.89,1.72,171.1,171.1,0,0,1-54.52-8.54c-20.14-6.71-37-18-48.62-36.32-7.42-11.72-11.49-24.66-13.72-38.25a189.71,189.71,0,0,1-2-30.87q.08-48.49,0-97a55.37,55.37,0,0,0-.95-10.43c-1.4-7.42-5.34-12.77-12.4-15.73a66.65,66.65,0,0,0-16.88-4.28c-2-.27-4.8-.33-5.94-2.35-2-3.48-1.4-7.21-.74-10.93.38-2.17,1.64-3.24,4-3.24h.24c11.49.34,23,.33,34.48.81,11.76.49,23.52.77,35.28.77,11.22,0,22.44-.25,33.66-.82s22.32-.48,33.48-.78h.2c2.34,0,3.43,1.21,4.08,3.3a15.39,15.39,0,0,1,.57,5.43c-.3,5.87-1.53,7.11-7.38,7.78A67.89,67.89,0,0,0,165,265.64c-8.94,3.11-13.72,9.64-15,18.82a76.17,76.17,0,0,0-.71,10.46c0,37-.11,74,.05,111,.08,17.34,1.49,36.25,10.93,51.36,10.1,16.18,29.21,22.83,48.35,22.83a83,83,0,0,0,33.22-6.85c25-11.2,33.42-40.73,33.8-65.94.29-19.16.07-38.33.07-57.5h.07q0-28.74,0-57.49a40.75,40.75,0,0,0-2.17-13.74A18.78,18.78,0,0,0,263,267.23a67.72,67.72,0,0,0-18.74-4.93c-4.56-.61-5.38-1.3-6.27-5.67a16,16,0,0,1,0-6.46c.74-3.67,1.54-4.19,5.45-4.23h1.6c10.81,0,21.56,1.07,32.35,1.47,2.73.1,5.46.14,8.18.14,13.77,0,27.51-1.11,41.26-1.54,1,0,2-.06,3-.07h.42c6,0,7.47,1.6,7.41,7.78A16.4,16.4,0,0,1,337,257.61Zm318.76,3.17a12.34,12.34,0,0,1-5,1.6,75.79,75.79,0,0,0-13.13,3c-12.4,4-18.34,11.56-18.76,24.65-.51,16.15-.73,32.31-1,48.47-.76,40-1.38,80-2.29,119.93q-.42,18.74-.69,37.48c-.06,4.94-.75,5.64-5.42,6.75a20,20,0,0,1-4.77.54,42.65,42.65,0,0,1-7.61-.86c-2.45-.45-4-2.33-5.6-4q-31.63-32-63.28-64-52.92-53.46-105.84-106.95c-1.51-1.52-2.75-3.3-4.12-5l-1.16.54c-.07,1.2-.19,2.4-.2,3.6-.42,25.83-.64,51.65-1.28,77.47q-.61,24.73-.76,49.47c-.1,12.92,5,20.09,17.16,24.51a66.71,66.71,0,0,0,15,3.39c6.2.73,8.27,3.37,7.56,9.62a27.79,27.79,0,0,1-.84,3.91c-.54,2.06-1.71,3.18-3.84,3.18a4.26,4.26,0,0,1-.5,0c-9.3-.7-18.63-.7-28-1.28-6.66-.42-13.33-.65-20-.65-7.14,0-14.29.27-21.44.85-7.63.62-15.31.69-23,1.08h-.42c-2.31,0-3.63-1.05-4.27-3.43a16.81,16.81,0,0,1-.39-7.42c.7-3.88,1.85-5,5.85-5.56a81.15,81.15,0,0,0,17.45-4.05c9.37-3.45,14.51-10.12,15.75-20,.44-3.48.62-7,.75-10.45q1.13-32,2.31-63.93c1-26,2-51.93,3-77.89A70.71,70.71,0,0,0,396,289c-2.39-12.09-9.36-19.93-21-23.65a70.73,70.73,0,0,0-13.1-3c-1.75-.21-4.21-.27-5.24-2-1.93-3.19-1.7-8.33-.53-11.77.8-2.38,2.94-2.72,5.12-2.72.57,0,1.14,0,1.68,0,12.27.37,24.5,1.63,36.78,1.63q4.06,0,8.16-.21c8.81-.48,17.6-1.26,26.43-1.48h.44a10.44,10.44,0,0,1,8.28,3.57Q480,288.32,517.34,327q38.08,39.66,76.18,79.29c.88.92,1.55,2.19,3.39,2.48v-3.94q0-56.49,0-113a41,41,0,0,0-.38-6c-1.37-9.21-6.43-15.39-15.14-18.81A82.7,82.7,0,0,0,562,262.28c-4.57-.62-5.65-1.71-6.18-6.31a20.33,20.33,0,0,1-.07-3.49c.33-5.59,1.44-6.57,6.91-6.59h.61c10.47,0,20.88,1.12,31.31,1.78,3.48.22,7,.31,10.43.31,9.18,0,18.34-.64,27.5-1.25,7.15-.47,14.31-.54,21.47-.8h.17c3.11,0,4.21,3.26,4.45,5.89C658.91,254.91,658.66,258.92,655.79,260.78Z"/><path d="M969.3,361.47c-1.64-22.43-7.76-42.84-18.2-60.66-19.73-33.68-48-55.67-84.14-65.37a193.17,193.17,0,0,0-50.08-6.61,209.44,209.44,0,0,0-43.57,4.7c-43.5,9.26-75.86,34.9-96.19,76.21-14.58,29.63-18.25,61.38-10.89,94.36,5.34,23.95,15.27,44.58,29.51,61.3s33.2,29.89,56.06,38.81c18.22,7.12,38.13,10.43,62.66,10.43h2c1.11,0,2.21,0,3.32,0A185,185,0,0,0,866.32,509c43.89-11.42,75.24-38.75,93.2-81.24C967.9,407.88,971.1,386.21,969.3,361.47Zm-19.92,62c-16.39,38.8-44.78,64.2-85.82,74.87a173.83,173.83,0,0,1-43.73,5.36l-3.27,0h-2.1c-20.36,0-40-2.38-58.66-9.67-42.62-16.65-68.92-47.81-78.84-92.27-6.68-30-3.6-59.42,10-87.1,18.34-37.28,47.53-61.57,88.61-70.31a197.86,197.86,0,0,1,41.27-4.46h0a181.4,181.4,0,0,1,47.23,6.23c34.27,9.21,59.71,30,77.5,60.31,10.09,17.22,15.27,36,16.72,55.9C959.86,383.36,957.63,403.93,949.38,423.43Z"/><path d="M883,348.32c-1.66-19.85-5.42-39.19-13.28-57.57C863,275,851.79,264,835,259.62a72.28,72.28,0,0,0-18.44-2.41,73.15,73.15,0,0,0-18.6,2.44,48.94,48.94,0,0,0-30.62,23.17A97.46,97.46,0,0,0,759,302c-6.65,19.9-9.16,40.5-9.9,61.34a273.62,273.62,0,0,0,3,52.26,149.42,149.42,0,0,0,11.65,40.1c6.69,14.46,17.61,24.09,33,28.21a75.28,75.28,0,0,0,39,.14A48.65,48.65,0,0,0,865,463c5.16-7.89,8.27-16.66,10.94-25.59,6.27-20.92,8-42.42,8-62.57C883.85,364.94,883.71,356.63,883,348.32Zm-17.61,85.93c-2.3,7.68-5.06,15.75-9.62,22.72a37.51,37.51,0,0,1-22.85,16.45,64.14,64.14,0,0,1-33.38-.12c-12-3.21-20.43-10.47-25.86-22.2-5-10.87-8.55-23-10.77-37.18a264.93,264.93,0,0,1-2.82-50.17c.83-23.15,3.8-41.66,9.34-58.25a88.41,88.41,0,0,1,7.32-17.05,38,38,0,0,1,24-18.16,62.26,62.26,0,0,1,15.81-2.08,61.58,61.58,0,0,1,15.64,2.05c12.77,3.35,21.75,11.47,27.45,24.81,6.61,15.46,10.67,33.18,12.43,54.17.63,7.63.78,15.12.93,25.66C873,397.88,870.48,417.29,865.41,434.25Z"/><path d="M402.87,653.86l-.94.16a17.69,17.69,0,0,1-2.18.22,15.46,15.46,0,0,1-2.05-.22l-.46-.08-.11.46s-.82,3.34-1.54,5.34c-.81,2.34-1.51,4.26-1.95,5.43-.46-1.26-1.15-3.21-1.58-4.64-.77-2.33-1.79-6.11-1.8-6.15l-.12-.43-.44.07a22.33,22.33,0,0,1-2.43.22,25.64,25.64,0,0,1-2.64-.22l-.43-.06-.12.41s-1.07,3.66-1.88,5.9c-.49,1.41-1.26,3.5-1.77,4.84-.44-1.32-1.12-3.34-1.55-4.71-.69-2.27-1.67-6-1.68-6l-.11-.42-.43,0s-2.08.22-3.39.22-3.71-.22-3.73-.22l-.48,0,.05-.11-.94.16a17.19,17.19,0,0,1-2.17.22A15.23,15.23,0,0,1,364,654l-.46-.08-.12.46s-.82,3.34-1.54,5.34c-.8,2.34-1.51,4.26-1.95,5.43-.45-1.26-1.15-3.21-1.58-4.64-.77-2.33-1.79-6.11-1.8-6.15l-.12-.43-.44.07a21.77,21.77,0,0,1-2.43.22,26,26,0,0,1-2.64-.22l-.43-.06-.12.41s-1.07,3.66-1.88,5.9c-.49,1.41-1.26,3.5-1.76,4.84-.45-1.32-1.13-3.34-1.56-4.71-.69-2.27-1.67-6-1.68-6l-.11-.42-.42,0s-2.09.22-3.4.22-3.71-.22-3.73-.22l-.48,0,.05-.11-.93.16a17.69,17.69,0,0,1-2.18.22,15.23,15.23,0,0,1-2.05-.22l-.46-.08-.11.46s-.82,3.34-1.55,5.34c-.8,2.34-1.5,4.26-1.94,5.43-.46-1.26-1.15-3.21-1.58-4.64-.77-2.33-1.8-6.11-1.81-6.15l-.11-.43-.44.07a22.33,22.33,0,0,1-2.43.22,25.64,25.64,0,0,1-2.64-.22l-.43-.06-.12.41s-1.08,3.66-1.88,5.9c-.49,1.41-1.27,3.5-1.77,4.84-.44-1.32-1.12-3.34-1.56-4.71-.68-2.27-1.66-6-1.67-6l-.11-.42-.43,0s-2.08.22-3.39.22S302.05,654,302,654l-.83-.08.31.76c0,.06,2.31,5.69,3.52,9.32s2.94,9.72,3,9.78l.13.42.43-.06a21.77,21.77,0,0,1,2.43-.22,24.7,24.7,0,0,1,2.56.22l.41.06.13-.4s1.16-3.6,1.89-5.77c.49-1.46,1.28-3.45,1.79-4.7.46,1.29,1.19,3.35,1.65,4.84.61,2.08,1.46,5.56,1.47,5.59l.11.44.45-.06a25.63,25.63,0,0,1,2.6-.22,26,26,0,0,1,2.64.22l.39.05.15-.37s2.29-6.08,3.73-9.84c1.86-4.67,4-9.23,4-9.27l.18-.38.14.35c0,.06,2.31,5.69,3.52,9.32s2.93,9.72,2.95,9.78l.12.42.44-.06a21.77,21.77,0,0,1,2.43-.22,24.4,24.4,0,0,1,2.55.22l.42.06.13-.4s1.16-3.6,1.89-5.77c.49-1.46,1.28-3.45,1.79-4.7.46,1.29,1.18,3.35,1.65,4.84.6,2.08,1.46,5.56,1.47,5.59l.11.44.44-.06a25.94,25.94,0,0,1,2.6-.22,25.64,25.64,0,0,1,2.64.22l.4.05.14-.37s2.3-6.08,3.74-9.84c1.86-4.67,4-9.23,4-9.27l.17-.38.15.35c0,.06,2.3,5.69,3.52,9.32s2.93,9.72,2.95,9.78l.12.42.43-.06a22.33,22.33,0,0,1,2.43-.22,24.7,24.7,0,0,1,2.56.22l.42.06.13-.4s1.15-3.6,1.88-5.77c.49-1.46,1.28-3.45,1.8-4.7.46,1.29,1.18,3.35,1.64,4.84.61,2.08,1.47,5.56,1.47,5.59l.11.44.45-.06a25.63,25.63,0,0,1,2.6-.22,26,26,0,0,1,2.64.22l.4.05.14-.37s2.3-6.08,3.73-9.84c1.86-4.67,4-9.23,4-9.27Z"/><path d="M407.17,667.49a4.28,4.28,0,0,0-2.63-.86,3.89,3.89,0,0,0-1,.12,3.71,3.71,0,0,0-1.55.66,3.47,3.47,0,0,0-1.55,3.33,3.52,3.52,0,0,0,2.11,3.06,4.05,4.05,0,0,0,1.91.45,4.38,4.38,0,0,0,1.87-.4,3.76,3.76,0,0,0,2.29-2.89A3.88,3.88,0,0,0,407.17,667.49Z"/><path d="M427.87,654.19a10.9,10.9,0,0,0-3.27-.54,10.08,10.08,0,0,0-5.28,1.6c0-1.16-.08-3.22-.05-4.68,0-2.16.4-5.66.4-5.69l.07-.62-.62.07s-2,.22-3.23.22-3.37-.22-3.39-.22l-.56-.06v.56c0,.09.08,9.41,0,15.3,0,8.77-.36,13.3-.36,13.34l0,.54h3.12l.15-.15,1.94-2a10.57,10.57,0,0,0,6,2.82,7.12,7.12,0,0,0,.83,0,10.55,10.55,0,0,0,7.31-3,12.17,12.17,0,0,0,2.66-11.31C432.66,657.15,430.79,655.1,427.87,654.19Zm-2,12.6c-.16,1-.55,3.34-2.37,4.09a2.75,2.75,0,0,1-1.11.21,2.86,2.86,0,0,1-1.43-.36c-1.8-1.07-1.86-4.09-1.89-5.71v-.49c0-1.49,0-6,2.66-6.72a2.58,2.58,0,0,1,.7-.09,3.29,3.29,0,0,1,2.07.72C426.25,659.83,426.37,663.67,425.91,666.79Z"/><path d="M455.22,671.11a2.86,2.86,0,0,1-.64-2.27v-6.69c0-.25,0-.49,0-.73,0-2.64.05-5.13-3.66-6.9a9.59,9.59,0,0,0-4.07-.89,13.88,13.88,0,0,0-7.85,2.75l-.32.23.14.36.78,2,.27.69.54-.5a5.86,5.86,0,0,1,1.33-.93,5,5,0,0,1,2.32-.67,3.09,3.09,0,0,1,1.05.18A3.58,3.58,0,0,1,447.3,661a12.29,12.29,0,0,1-2.73,1.2c-.32.11-.57.18-.86.26l-.27.08-.8.25c-2.25.7-4.38,1.37-5.39,3.55a6.08,6.08,0,0,0,.09,5.42,6,6,0,0,0,4.13,2.92,6.06,6.06,0,0,0,1.21.13,8.65,8.65,0,0,0,5.31-2.25,14,14,0,0,0,1.71,1.4,4.38,4.38,0,0,0,2.19.5,14.35,14.35,0,0,0,4.45-.9l.34-.12V671.3h-.5A2,2,0,0,1,455.22,671.11Zm-7.88-4.88c0,2.55,0,3.24-1.08,3.89a1.35,1.35,0,0,1-.7.21,1.5,1.5,0,0,1-.45-.07c-.43-.15-.71-.43-.84-1.41-.13-1.14-.15-2.77,1.18-3.66a8.67,8.67,0,0,1,1.89-.83v1.87Z"/><path d="M471.53,653.81c-.28,0-.61,0-1,.05-2.45.27-3.61.74-5,2.28a10.3,10.3,0,0,1,0-1.59l0-.6-.6.07s-1.91.22-3,.22-3.17-.22-3.19-.22l-.58-.07,0,.59c0,.06.28,5.8.28,9.44s-.28,9.6-.28,9.66l0,.59.58-.07s2-.22,3.31-.22,3.38.22,3.4.22l.57.06,0-.57-.25-8.36c0-.2,0-.45,0-.7-.07-1.31-.14-2.79,1.31-3.73a3.43,3.43,0,0,1,1.9-.55,6.65,6.65,0,0,1,2.46.56l.69.27v-.75c0-.56,0-1,0-1.49a22,22,0,0,1,.2-4.51l.07-.51-.52,0A2,2,0,0,0,471.53,653.81Z"/><path d="M490.62,654.19a11,11,0,0,0-3.27-.54,10.08,10.08,0,0,0-5.28,1.6c0-1.16-.08-3.22-.06-4.68.05-2.16.41-5.66.41-5.69l.07-.62-.62.07s-2,.22-3.23.22-3.37-.22-3.39-.22l-.56-.06v.56c0,.09.08,9.41,0,15.3,0,8.77-.36,13.3-.37,13.34l0,.54h3.13l.15-.15,1.93-2a10.6,10.6,0,0,0,6,2.82,7.3,7.3,0,0,0,.84,0,10.57,10.57,0,0,0,7.31-3,12.2,12.2,0,0,0,2.66-11.31C495.41,657.15,493.54,655.1,490.62,654.19Zm-2,12.6c-.17,1-.55,3.34-2.37,4.09a2.75,2.75,0,0,1-1.11.21,2.93,2.93,0,0,1-1.44-.36c-1.79-1.07-1.85-4.09-1.88-5.71v-.49c0-1.49,0-6,2.66-6.72a2.58,2.58,0,0,1,.7-.09,3.29,3.29,0,0,1,2.07.72C489,659.83,489.12,663.67,488.66,666.79Z"/><path d="M509.72,653.65a12.55,12.55,0,0,0-2.22.18,9.36,9.36,0,0,0-7.43,6c-1.27,3.21-1.26,7.89,1.6,11.16s6.88,3.75,9.05,3.75a14.67,14.67,0,0,0,2-.13,11.25,11.25,0,0,0,4-1.09,4.17,4.17,0,0,0,1.59-1.36,7.22,7.22,0,0,0,.89-1.73l.08-.27-.18-.2-.78-.92-.28-.32-.37.22a9.51,9.51,0,0,1-5,1.54,5.81,5.81,0,0,1-2.53-.53c-1.67-.8-2.56-2.47-2.66-5h12.39v-.5c0-2.38,0-6-2-8.06C515.33,653.85,511,653.65,509.72,653.65Zm-2.31,7.81c.21-1.66.8-3.88,1.8-4.37a2,2,0,0,1,.79-.16,1.81,1.81,0,0,1,.94.25c1.22.71,1.56,2.84,1.58,4.28Z"/><path d="M535.88,653.81c-.28,0-.61,0-1,.05-2.45.27-3.61.75-5,2.28a10.3,10.3,0,0,1,0-1.59l0-.6-.6.07s-1.91.22-3,.22-3.17-.22-3.19-.22l-.58-.07,0,.59c0,.06.28,5.8.28,9.44s-.28,9.6-.28,9.66l0,.59.58-.07s2-.22,3.31-.22,3.38.22,3.4.22l.57.06,0-.57-.25-8.36c0-.21,0-.45,0-.7-.07-1.31-.14-2.79,1.31-3.73a3.43,3.43,0,0,1,1.9-.55,6.65,6.65,0,0,1,2.46.56l.69.27v-.75c0-.56,0-1,0-1.48a22.11,22.11,0,0,1,.2-4.52l.07-.51-.52,0A2,2,0,0,0,535.88,653.81Z"/><path d="M540.91,651.61a4.06,4.06,0,0,0,1.94.46,4.31,4.31,0,0,0,1.79-.37,3.92,3.92,0,0,0,2.34-3,3.73,3.73,0,0,0-1.5-3.48,4.13,4.13,0,0,0-2.61-.88,3.86,3.86,0,0,0-1.08.14,6.54,6.54,0,0,0-1.39.58h0l0,0a3.7,3.7,0,0,0-1.59,3.33A4,4,0,0,0,540.91,651.61Z"/><path d="M547.05,654l-.58.06s-2.21.22-3.52.22c-1.6,0-3.62-.22-3.64-.22l-.58-.07,0,.59c0,.06.29,5.88.29,9.59s-.28,9.45-.29,9.51l0,.58.59-.06s2.08-.22,3.6-.22c1.31,0,3.54.22,3.56.22l.58.06,0-.58c0-.06-.33-6-.33-9.7s.33-9.34.33-9.4Z"/><path d="M568.11,671.11a2.86,2.86,0,0,1-.64-2.27v-6.69c0-.25,0-.49,0-.73,0-2.64,0-5.13-3.66-6.9a9.59,9.59,0,0,0-4.07-.89,13.88,13.88,0,0,0-7.85,2.75l-.32.23.14.36.78,2,.27.69.54-.5a5.86,5.86,0,0,1,1.33-.93,5,5,0,0,1,2.31-.67,3.11,3.11,0,0,1,1.06.18,3.58,3.58,0,0,1,2.18,3.18,12.29,12.29,0,0,1-2.73,1.2c-.32.11-.57.18-.86.26l-.27.08-.8.25c-2.25.7-4.38,1.37-5.39,3.55a6.08,6.08,0,0,0,.09,5.42,6,6,0,0,0,4.13,2.92,6.06,6.06,0,0,0,1.21.13,8.65,8.65,0,0,0,5.31-2.25,14,14,0,0,0,1.71,1.4,4.38,4.38,0,0,0,2.19.5,14.35,14.35,0,0,0,4.45-.9l.34-.12V671.3h-.5A2,2,0,0,1,568.11,671.11Zm-7.88-4.88c0,2.55,0,3.24-1.08,3.89a1.35,1.35,0,0,1-.7.21,1.5,1.5,0,0,1-.45-.07c-.43-.15-.71-.43-.84-1.41-.13-1.14-.15-2.77,1.18-3.66a8.67,8.67,0,0,1,1.89-.83v1.87Z"/><path d="M592,654l-.58.07s-2.08.22-3.35.22-3.25-.22-3.27-.22l-.57-.07v.57l.17,10v.36c0,2.18,0,3.77-1.76,4.74a3.23,3.23,0,0,1-1.35.29,2.14,2.14,0,0,1-1-.21c-.87-.47-1.86-1.84-1.72-5.77v-.22l.25-9.14V654l-.57.07s-2,.22-3.27.22-3.25-.22-3.27-.22l-.57-.07,0,.58c0,.05.16,4.66.16,7.58,0,1.64-.16,4.2-.16,4.23v.41c0,2.9,0,5.4,3.69,7.14a8.68,8.68,0,0,0,3.67.88,10.38,10.38,0,0,0,5.65-2v1.44l.56-.06s2.12-.22,3.43-.22,3.21.22,3.23.22l.58.07,0-.59c0-.06-.25-6.3-.25-10.23,0-3.45.24-8.82.25-8.87Z"/><path d="M615,662.06v-.3c0-2.55.1-5.73-3.5-7.4a7.68,7.68,0,0,0-3.32-.73,10.83,10.83,0,0,0-5.86,1.89v0a7.11,7.11,0,0,1,0-1l0-.58-.58.07s-2,.22-3.23.22-3.25-.22-3.27-.22l-.59-.07,0,.59c0,.05.24,4.3.24,9.4,0,5.91-.24,9.65-.24,9.69l0,.6.59-.07s2-.22,3.31-.22,3.5.22,3.52.22l.57.06,0-.57-.32-9.12v-.18c0-3.91.91-5.29,1.73-5.75a2.38,2.38,0,0,1,1.15-.3,2.57,2.57,0,0,1,1.13.27c.79.41,1.7,1.58,1.53,4.85,0,.08,0,.14,0,.17l-.45,10,0,.58.58-.06s2.16-.22,3.52-.22,3.25.22,3.27.22l.57.07,0-.58Z"/><path d="M629.25,653.64c-.52,0-1,0-1.43.07a16.44,16.44,0,0,0-4.27,1.3,10.12,10.12,0,0,0-5.5,8.62,9.84,9.84,0,0,0,3.91,9,12.48,12.48,0,0,0,7.23,2.15,14.22,14.22,0,0,0,4.29-.64c4-1.26,6.23-3.46,7.31-7.14.83-3,.53-7.38-2.08-10.13C635.82,653.87,630.74,653.64,629.25,653.64Zm1.84,17.28a2.75,2.75,0,0,1-1.6.52,2.43,2.43,0,0,1-.77-.12,3.81,3.81,0,0,1-2.29-2.94c-.49-1.88-1.24-9.63,2-10.89a2.43,2.43,0,0,1,.86-.13,3.77,3.77,0,0,1,1.83.47c1.77,1.08,2.18,4.67,2.18,5.84C633.32,665.25,633.42,669.43,631.09,670.92Z"/><path d="M651,667.49a4.25,4.25,0,0,0-2.62-.86,4,4,0,0,0-1,.12,3.72,3.72,0,0,0-1.54.66,3.48,3.48,0,0,0-1.56,3.33,3.53,3.53,0,0,0,2.12,3.06,4.05,4.05,0,0,0,1.91.45,4.34,4.34,0,0,0,1.86-.4,3.76,3.76,0,0,0,2.29-2.89A3.83,3.83,0,0,0,651,667.49Z"/><path d="M665.42,657.84a3.34,3.34,0,0,1,2-.62,4.06,4.06,0,0,1,1.18.17c1.73.51,2.16,1.55,2.58,3l.11.35h2.21l.11-.34,1.48-4.4.14-.42-.39-.19a17.52,17.52,0,0,0-7.75-1.7h0a14.54,14.54,0,0,0-6.67,1.44,10.05,10.05,0,0,0-5.19,8.91c-.05,4.31,1.75,7.31,5.68,9.45a10.87,10.87,0,0,0,5.4,1.3,16.83,16.83,0,0,0,7.68-2l.19-.1.05-.21.78-2.85.12-.41-.4-.17-1-.46-.28-.12-.24.18a7,7,0,0,1-1.84,1.22,6.46,6.46,0,0,1-2.68.58,4.85,4.85,0,0,1-2.13-.44,6.52,6.52,0,0,1-3.21-5.6C663.19,663.05,663.62,659.21,665.42,657.84Z"/><path d="M697.52,671.3a2.08,2.08,0,0,1-1-.19,2.86,2.86,0,0,1-.64-2.27v-6.69c0-.25,0-.49,0-.73,0-2.64.05-5.13-3.66-6.9a9.59,9.59,0,0,0-4.07-.89,13.88,13.88,0,0,0-7.85,2.75l-.31.23.13.36.78,2,.27.69.54-.5a5.86,5.86,0,0,1,1.33-.93,5,5,0,0,1,2.32-.67,3.09,3.09,0,0,1,1.05.18,3.58,3.58,0,0,1,2.18,3.18,12.29,12.29,0,0,1-2.73,1.2c-.32.12-.57.18-.86.26l-.27.08-.8.25c-2.35.73-4.38,1.37-5.39,3.55a6.08,6.08,0,0,0,.09,5.42,6,6,0,0,0,4.13,2.92,6.06,6.06,0,0,0,1.21.13,8.63,8.63,0,0,0,5.31-2.25,13.07,13.07,0,0,0,1.72,1.4,4.33,4.33,0,0,0,2.19.5,14.35,14.35,0,0,0,4.44-.9l.34-.12V671.3Zm-8.83-5.07c0,2.55,0,3.24-1.08,3.89a1.34,1.34,0,0,1-1.15.14c-.44-.15-.72-.43-.85-1.41-.13-1.14-.15-2.77,1.18-3.66a8.89,8.89,0,0,1,1.89-.83v1.87Z"/><path d="M33.17,621h0c-1.43,0-3.48,0-4.53,0l4.42-3.65c5.63-4.61,7.41-8.36,6-12.53-1.37-3.89-4.92-4.68-7.86-4.94-4.88-.47-8.41,1.16-10.5,4.84l-.11.19.17.13s1,.83,1.52,1.3,1.47,1.59,1.48,1.6l.12.13,1.39-.54,0-.18a4.58,4.58,0,0,1,2-4.31A2.9,2.9,0,0,1,30,603a4.14,4.14,0,0,1,2.32,3.51c.48,5.13-1.92,9-8.29,13.34l-1.44,1-.54.31a2.77,2.77,0,0,1-.68.34l-.16.06v4.78h.26c.05,0,5.3-.11,8.58-.11,3.56,0,9.14.31,9.19.31l.28,0,0-.28a20.75,20.75,0,0,1,.13-5.43l0-.31-.32,0S35.53,620.93,33.17,621Z"/><path d="M63.34,600.29c-.05,0-5.71.11-9.35.1s-9.38-.12-9.44-.12h-.29l0,.28a41.87,41.87,0,0,1,.07,5.77l0,.29.29,0s4.56-.33,7.32-.36c1.75,0,4.37,0,5.37.06-.75,1.34-3.46,6.09-5.59,9.22-3.44,5.14-6.65,9.09-6.68,9.13l-.11.13.76,1.49h.16s1.63-.11,2.66-.11,2.4.11,2.42.11l.17,0,.07-.16c0-.07,3.64-7.54,6-12.17S64,602.05,64.05,602l.06-.1-.59-1.6Z"/><path d="M85.69,615.31c-.45,0-1.13,0-1.48,0-.13-4.9.5-14.68.5-14.78l0-.26H78.82l-11,15.52v.09s.16,1.32.2,2.16,0,2.17,0,2.19v.27h.27s3.26-.11,5.26-.14c1.42,0,3.52,0,4.24,0l-.12,5.92h6.71V626s-.07-2.18-.11-5.63c.38,0,1.07,0,1.53,0,.67,0,1.79.11,1.8.11l.3,0,0-.31a13.48,13.48,0,0,1,.09-4.72l0-.31-.32,0Zm-7.72.14-6.17-.07,6.07-8.6c0,1.16.1,3.39.13,4.58C78,613.29,78,614.87,78,615.45Z"/><path d="M118.4,611.68c-2.47-6.81-3.86-11.86-3.87-11.91l-.06-.22-.22,0a21.54,21.54,0,0,1-3,.22,17.61,17.61,0,0,1-2.92-.23l-.22,0-.06.21s-.6,2.12-5.35,13.43c-4.09,9.87-5.78,12.84-5.79,12.87l-.27.46.52-.09a16.67,16.67,0,0,1,2.07-.22,18.72,18.72,0,0,1,2.31.23l.2,0,3.14-8h8.48l2.51,8,.2,0s2.28-.22,3.71-.22,4,.23,4.07.23l.43,0-.18-.39S122.23,622.05,118.4,611.68Zm-6.05,3.47h-6.16c.15-.45.48-1.39,1-2.73s1.79-4.2,2.31-5.4c.38,1.12,1.23,3.56,1.89,5.4C111.81,613.56,112.17,614.63,112.35,615.15Z"/><path d="M139.41,607.3a13.09,13.09,0,0,1-2-.23l-.22,0-.07.2s-1,3.21-1.78,5.17c-1,2.87-2.13,5.44-2.58,6.49a41.88,41.88,0,0,1-2-5.25c-.83-2.48-1.88-6.36-1.89-6.4l-.06-.21-.21,0s-2.15.23-3.5.22-3.76-.22-3.78-.22l-.45,0,.2.41c0,.05,2.8,5.77,4.15,9.47,1.32,3.51,3,9.34,3,9.4l.06.21.22,0a21.75,21.75,0,0,1,2.39-.22,21.39,21.39,0,0,1,2.44.23l.2,0,.07-.19c0-.06,2.17-5.93,3.69-9.48s4.59-9.33,4.62-9.39l.24-.44-.5.08A18.72,18.72,0,0,1,139.41,607.3Z"/><path d="M150.3,606.9a9,9,0,0,0-7.16,5.81c-1.22,3.09-1.22,7.61,1.53,10.76s6.41,3.62,8.82,3.62a15.16,15.16,0,0,0,1.85-.11,11.1,11.1,0,0,0,3.83-1.05,3.84,3.84,0,0,0,1.5-1.26,6.76,6.76,0,0,0,.85-1.65l0-.13-1-1.17-.18.11c-2.59,1.62-5.6,2-7.67,1s-2.73-3.45-2.77-5.37h12.24v-.25c0-2.31,0-5.8-1.93-7.79C157.68,606.72,152.79,606.44,150.3,606.9Zm5.15,7.54h-5.56c.16-1.53.74-4.17,1.94-4.77a2.18,2.18,0,0,1,2,.1C155.36,610.68,155.46,613.54,155.45,614.44Z"/><path d="M185,614.52c0-2.45.11-5.5-3.3-7.08-2.68-1.29-6.09-.78-9.18,1.35,0-.21,0-.34,0-.46a6.63,6.63,0,0,1,0-1v-.29l-.29,0s-2,.22-3.21.21-3.23-.22-3.25-.22l-.3,0,0,.3s.24,4.25.23,9.29c0,5.85-.25,9.55-.25,9.58l0,.3.3,0s2-.22,3.29-.22,3.48.22,3.5.23l.29,0-.33-9.29v-.18c0-3.19.58-5.18,1.82-5.89a2.65,2.65,0,0,1,2.49,0c.85.44,1.82,1.67,1.65,5a1.14,1.14,0,0,0,0,.15l-.47,10.23.29,0s2.15-.22,3.5-.22,3.23.22,3.25.23l.29,0L185,614.83Z"/><path d="M208.52,607.11l-.29,0s-2.06.22-3.33.22-3.24-.23-3.26-.23l-.28,0,.16,10.11v.36c0,2.16,0,3.86-1.85,4.89a3.09,3.09,0,0,1-2.57.07c-.91-.48-2-1.9-1.82-5.91a1.72,1.72,0,0,0,0-.2l.26-9.33-.29,0s-2,.22-3.25.22-3.24-.23-3.26-.23l-.28,0v.29s.15,4.6.15,7.49c0,1.62-.16,4.16-.16,4.2v.37c0,2.78,0,5.18,3.51,6.84a8.25,8.25,0,0,0,3.5.85,10.59,10.59,0,0,0,5.84-2.17v1.6l.27,0s2.11-.22,3.42-.22,3.19.23,3.21.23l.29,0v-.29c0-.06-.23-6.23-.23-10.12,0-3.4.25-8.71.25-8.76Z"/><path d="M219.36,607a9,9,0,0,0-7.16,5.81c-1.22,3.09-1.22,7.61,1.53,10.76s6.41,3.62,8.81,3.62a15.35,15.35,0,0,0,1.86-.11,11.18,11.18,0,0,0,3.83-1,3.82,3.82,0,0,0,1.49-1.27,6,6,0,0,0,.85-1.65l0-.13-1-1.17-.18.12c-2.59,1.61-5.59,2-7.66,1s-2.73-3.45-2.77-5.38h12.24v-.25c0-2.31,0-5.8-1.93-7.79C226.74,606.79,221.84,606.51,219.36,607Zm5.14,7.54h-5.56c.17-1.53.75-4.18,1.95-4.78a2.13,2.13,0,0,1,2,.11C224.41,610.74,224.51,613.6,224.5,614.5Z"/><path d="M253.18,607c-2.59.28-3.64.77-5.17,2.62,0-.23,0-.4,0-.55a9.6,9.6,0,0,1,0-1.66l0-.3-.3,0s-1.9.22-3,.22-3.15-.23-3.17-.23l-.29,0v.29c0,.06.28,5.74.28,9.33s-.29,9.49-.3,9.55v.29l.29,0s2-.22,3.3-.22,3.35.22,3.37.23l.29,0-.24-8.53c0-.22,0-.45,0-.7-.06-1.29-.14-2.9,1.42-3.89,1.2-.79,2.55-.79,4.51,0l.35.13v-.37c0-.55,0-1,0-1.47a21.94,21.94,0,0,1,.21-4.49l0-.26-.26,0A7.43,7.43,0,0,0,253.18,607Z"/><path d="M277.17,609.94c-3-3.12-8.62-3.26-10.54-3.05a15.57,15.57,0,0,0-4.14,1.26,9.73,9.73,0,0,0-5.29,8.3,9.48,9.48,0,0,0,3.74,8.67,12,12,0,0,0,7,2.09,14.27,14.27,0,0,0,4.19-.62c3.83-1.22,6-3.34,7.06-6.88.8-2.84.51-7.11-2-9.77Zm-7.23,13.91a2.93,2.93,0,0,1-2.53.42,4.14,4.14,0,0,1-2.43-3.09c-.5-2-1.26-9.71,2.13-11a3.76,3.76,0,0,1,2.86.36c2.21,1.34,2.26,5.93,2.26,6C272.27,618.08,272.36,622.3,269.94,623.85Z"/><path d="M300.61,624a3,3,0,0,1-.69-2.39v-7.33c0-2.64.06-4.91-3.46-6.6s-7.62-.93-11.52,1.81l-.16.11,1,2.56.27-.25a6.37,6.37,0,0,1,1.41-1,4.19,4.19,0,0,1,3.48-.47c1.67.68,2.12,2.07,2.33,3.5a12.37,12.37,0,0,1-2.9,1.28,5.87,5.87,0,0,1-.85.26l-.27.08-.77.24c-2.27.71-4.22,1.32-5.18,3.37a5.79,5.79,0,0,0,.08,5.15,5.59,5.59,0,0,0,3.89,2.74,5,5,0,0,0,1.15.13,8.5,8.5,0,0,0,5.26-2.29,16,16,0,0,0,1.83,1.51c1.26.72,3.33.58,6.32-.43l.18,0v-1.67h-.25A1.89,1.89,0,0,1,300.61,624Zm-8.52-.93a1.56,1.56,0,0,1-1.34.16c-.6-.2-.88-.65-1-1.59-.14-1.2-.16-2.9,1.27-3.85a9.55,9.55,0,0,1,2.2-.93l0,0V619C293.28,621.44,293.28,622.34,292.09,623.08Z"/><path d="M322.47,597.87c-1.31,0-3.4-.19-3.42-.19l-.29,0v.29s.16,3.75.24,6.18c.06,2.21,0,3.68,0,4.47v0a7.84,7.84,0,0,0-4-1.64,9.72,9.72,0,0,0-7.8,2.38c-2.82,2.76-3.51,7.94-2.92,10.47a9.05,9.05,0,0,0,5.74,6.82,8.51,8.51,0,0,0,3.06.61,11.32,11.32,0,0,0,5.74-1.89v1.29l.27,0s2.11-.15,3.46-.14,3.13.15,3.15.15l.27,0v-.28c0-.06-.12-6.33-.11-15.44,0-6.89.18-11.31.25-12.89v-.4l-.27,0S323.78,597.87,322.47,597.87Zm-4.21,23.67a3.55,3.55,0,0,1-3,2.05,2.78,2.78,0,0,1-2.61-1.53h0c-1.3-2.07-1.08-8.21.36-10.26a3,3,0,0,1,2-1.39l.4,0a3.43,3.43,0,0,1,2.7,1.47C319.51,613.67,319.25,619.68,318.26,621.54Z"/><path d="M389.31,610.1a10.44,10.44,0,0,0-8.25.43c.15-1.57.7-5.08,2.73-7,2.27-2.11,4.56-1.8,6.9-1.26l.45.11-1.09-3-.11,0a4.94,4.94,0,0,0-1.4-.2c-1.7-.14-7.53-.22-11.24,4.4-3.86,4.86-3.93,13.26-2.88,16.22,1.12,3.21,3.1,5,6.62,5.86a10,10,0,0,0,2.45.26,11.91,11.91,0,0,0,7.38-2.3,7.85,7.85,0,0,0,3-7.62A7.19,7.19,0,0,0,389.31,610.1ZM383,612.7a1.84,1.84,0,0,1,.66-.12,2.4,2.4,0,0,1,1.41.5c1.7,1.27,1.41,5.49,1.24,6.56-.08.77-.58,2.88-1.95,3.39a2.07,2.07,0,0,1-2.07-.3h0c-1.87-1.24-1.45-5.57-1.39-6.06C381,615.65,381.47,613.24,383,612.7Z"/><path d="M415.46,614.5c-.45,0-1.13,0-1.49,0-.13-4.9.49-14.67.49-14.77l0-.27h-5.91l-11,15.53v.09s.16,1.32.2,2.16,0,2.17,0,2.18l0,.28H398s3.26-.11,5.26-.15c1.42,0,3.52,0,4.24,0l-.12,5.92h6.72v-.26s-.08-2.18-.12-5.62l1.53,0c.67,0,1.79.11,1.8.11l.3,0,0-.31a13.46,13.46,0,0,1,.08-4.72l.05-.31-.31,0S416.27,614.47,415.46,614.5Zm-7.73.15-6.17-.07,6.06-8.6c0,1.16.11,3.39.14,4.58C407.79,612.49,407.75,614.07,407.73,614.65Z"/><path d="M440.51,599.5c-.06,0-5.71.11-9.36.11s-9.38-.11-9.44-.11h-.28l0,.28a40.84,40.84,0,0,1,.08,5.77l0,.29.29,0s4.56-.33,7.32-.37c1.75,0,4.37,0,5.37.06-.75,1.34-3.46,6.09-5.58,9.23-3.44,5.14-6.64,9.09-6.67,9.13l-.11.13.76,1.49h.16s1.63-.11,2.66-.11,2.4.11,2.41.11h.17l.08-.15c0-.08,3.63-7.55,6-12.18s6.76-11.89,6.81-12l.06-.1-.59-1.59Z"/><path d="M456,609.47h-.28s-3.68.07-6,.07-6.28-.07-6.31-.07h-.29l0,.39a12,12,0,0,1,0,4.52l-.06.41h.3s3.79-.11,6.19-.11,6.12.11,6.15.11H456l0-.29a14.82,14.82,0,0,1,0-4.49Z"/><path d="M478.23,608.17a6,6,0,0,0-.72-5.64c-1.88-2.61-5.43-3.37-7-3.4-3.71-.2-6.74.32-9.45,3.54l-.16.18.19.16s.84.75,1.32,1.26,1.27,1.52,1.28,1.53l.08.09h1.09l.21-.06,0-.19a7.1,7.1,0,0,1,1.18-3.17,2.75,2.75,0,0,1,2.5-.93,2.89,2.89,0,0,1,2.31,1.84,7.86,7.86,0,0,1-.65,6c-1.23,1.51-3.13,1.51-4.44,1.37l-.28,0v2.62H466a6.3,6.3,0,0,1,3.44.76,4,4,0,0,1,1.87,3.73c0,.84-.08,3.68-2.24,5a3.4,3.4,0,0,1-3.14.39c-2-.75-2.35-2.25-2.72-3.71L463,619H461.8l-3,3.38.19.17a12.35,12.35,0,0,0,6.2,3.21,13.33,13.33,0,0,0,2,.14c2.91,0,6.82-.76,9.05-2.83a6.69,6.69,0,0,0,2.11-6.38c-.47-2.44-2.52-3.66-4.87-4.7C475.37,611.26,477.46,610.19,478.23,608.17Z"/><path d="M498.36,610.1a10.41,10.41,0,0,0-8.24.43c.14-1.57.69-5.08,2.72-7,2.28-2.11,4.57-1.8,6.91-1.26l.44.11-1.08-3-.11,0a5,5,0,0,0-1.41-.2c-1.7-.14-7.52-.22-11.24,4.4-3.86,4.86-3.92,13.26-2.87,16.22,1.11,3.21,3.09,5,6.61,5.86a10.1,10.1,0,0,0,2.45.26,11.91,11.91,0,0,0,7.38-2.3A7.86,7.86,0,0,0,503,616,7.2,7.2,0,0,0,498.36,610.1Zm-6.29,2.6a1.84,1.84,0,0,1,.66-.12,2.4,2.4,0,0,1,1.41.5c1.71,1.27,1.41,5.49,1.24,6.56-.08.77-.57,2.88-1.95,3.39a2.07,2.07,0,0,1-2.07-.3h0c-1.87-1.24-1.45-5.57-1.39-6.06C490.08,615.65,490.53,613.24,492.07,612.7Z"/><path d="M519.41,620.24h0c-1.43.06-3.48,0-4.53,0l4.41-3.65c5.63-4.62,7.41-8.37,6-12.55-1.37-3.89-4.92-4.67-7.87-4.93-4.86-.46-8.4,1.17-10.49,4.86l-.1.18.16.13s1,.83,1.52,1.3,1.48,1.59,1.49,1.6l.11.13,1.39-.54v-.18a4.58,4.58,0,0,1,2-4.31,2.9,2.9,0,0,1,2.72-.06,4.16,4.16,0,0,1,2.33,3.51c.48,5.12-1.92,9-8.28,13.34l-1.44,1-.54.31a2.77,2.77,0,0,1-.68.34l-.17.06v4.79h.26c.05,0,5.3-.11,8.58-.11,3.56,0,9.14.3,9.19.3h.28l0-.28a21.1,21.1,0,0,1,.12-5.42l0-.32-.32,0S521.76,620.17,519.41,620.24Z"/><path d="M543.2,609.47h-.28s-3.68.07-6,.07-6.28-.07-6.31-.07h-.29l0,.39a12,12,0,0,1,0,4.52l-.06.41h.3s3.79-.11,6.19-.11,6.12.11,6.15.11h.29l0-.29a14.82,14.82,0,0,1,0-4.49Z"/><path d="M564.3,614.5c-.45,0-1.12,0-1.48,0-.13-4.9.49-14.67.49-14.77l0-.27h-5.91l-11,15.45-.05.08v.09s.16,1.32.2,2.16,0,2.17,0,2.18l0,.28h.28s3.26-.11,5.26-.15c1.42,0,3.52,0,4.24,0l-.12,5.92h6.72v-.26s-.08-2.18-.12-5.62l1.53,0c.67,0,1.79.11,1.8.11l.3,0,0-.3a13.46,13.46,0,0,1,.08-4.72l0-.31-.31,0S565.11,614.47,564.3,614.5Zm-7.72.15-6.17-.07,6.06-8.6c0,1.16.11,3.39.14,4.58C556.64,612.49,556.6,614.07,556.58,614.65Z"/><path d="M589.15,608.17a6,6,0,0,0-.72-5.64c-1.88-2.61-5.43-3.37-7-3.4-3.71-.2-6.73.32-9.44,3.54l-.16.18.18.16s.85.75,1.32,1.26,1.28,1.52,1.29,1.53l.07.09h1.1l.21-.06,0-.2a7.23,7.23,0,0,1,1.19-3.16,2.75,2.75,0,0,1,2.5-.93,2.9,2.9,0,0,1,2.31,1.84,7.86,7.86,0,0,1-.65,6c-1.23,1.51-3.13,1.51-4.44,1.37l-.28,0v2.62h.25a6.3,6.3,0,0,1,3.44.76,4,4,0,0,1,1.86,3.73c0,.84-.07,3.68-2.23,5a3.4,3.4,0,0,1-3.14.39c-2-.75-2.36-2.25-2.72-3.71L574,619h-1.23l-3,3.38.18.17a12.42,12.42,0,0,0,6.21,3.21,13.29,13.29,0,0,0,2,.14c2.92,0,6.83-.76,9.06-2.83a6.66,6.66,0,0,0,2.1-6.38c-.46-2.44-2.52-3.66-4.87-4.7C586.28,611.26,588.37,610.19,589.15,608.17Z"/><path d="M613.07,599.5c-.06,0-5.72.11-9.36.11s-9.38-.11-9.44-.11H594l0,.28a40.84,40.84,0,0,1,.08,5.77l0,.29.29,0s4.56-.33,7.32-.37c1.76,0,4.36,0,5.37.06-.76,1.34-3.46,6.09-5.59,9.23-3.43,5.14-6.64,9.09-6.67,9.13l-.1.13.75,1.49h.17s1.62-.11,2.66-.11,2.4.11,2.41.11h.17l.08-.15c0-.08,3.63-7.55,6-12.18s6.76-11.89,6.8-12l.06-.1-.59-1.59Z"/><path d="M633,610.1a10.43,10.43,0,0,0-8.25.43c.15-1.57.7-5.08,2.72-7,2.28-2.11,4.57-1.8,6.91-1.26l.45.11-1.09-3-.11,0a4.43,4.43,0,0,0-1.39-.2h0c-1.7-.14-7.53-.22-11.24,4.4-3.87,4.86-3.93,13.26-2.88,16.22,1.12,3.21,3.1,5,6.62,5.86a10,10,0,0,0,2.45.26,11.93,11.93,0,0,0,7.38-2.3,7.85,7.85,0,0,0,3-7.62A7.19,7.19,0,0,0,633,610.1Zm-6.3,2.6a1.88,1.88,0,0,1,.66-.12,2.43,2.43,0,0,1,1.42.5c1.7,1.28,1.41,5.49,1.23,6.56-.07.77-.57,2.88-2,3.39a2.05,2.05,0,0,1-2.06-.3h0c-1.86-1.24-1.44-5.57-1.39-6.06C624.71,615.65,625.15,613.24,626.69,612.7Z"/><path d="M691.23,599.91c-8.7,0-15.25,6.29-15.25,14.62,0,7.92,6.41,12.06,12.73,12.06a17.25,17.25,0,0,0,7.44-1.44l.21-.1-.86-2.39-.25.12a14.36,14.36,0,0,1-5.93,1.21c-6.13,0-10.08-3.83-10.08-9.76,0-6.81,4.87-11.75,11.58-11.75,5.87,0,9.52,3.33,9.52,8.71a7.57,7.57,0,0,1-1.85,5.43,2.81,2.81,0,0,1-2,.88.91.91,0,0,1-.74-.32c-.38-.48-.42-1.5-.11-3.06l1.29-7-.18-.08a12.14,12.14,0,0,0-4.72-.89c-6.12,0-9.78,4.59-9.78,9,0,3,1.89,5.09,4.71,5.09a6.45,6.45,0,0,0,5.4-2.79,3.23,3.23,0,0,0,3.48,2.79c4.46,0,7.7-3.86,7.7-9.18C703.51,604.59,698.35,599.91,691.23,599.91Zm-3,17.22a2,2,0,0,1-2.1-2.3,5.53,5.53,0,0,1,5.3-5.72,5.3,5.3,0,0,1,1.29.16l-.65,3.64C691.7,615.16,689.9,617.13,688.27,617.13Z"/><path d="M722.67,603.56a9.49,9.49,0,0,0-8.6,1.25c0-1-.09-3.41-.06-5,0-2.14.4-5.61.4-5.65l0-.31-.31,0s-2,.22-3.21.22-3.36-.22-3.38-.22l-.28,0v.28c0,.09.08,9.29,0,15.11,0,8.67-.36,13.14-.37,13.19l0,.26h2.73l2.14-2.16c2.24,1.88,3.82,2.64,6,2.88a7.15,7.15,0,0,0,.82,0,10.24,10.24,0,0,0,7-2.9,11.75,11.75,0,0,0,2.57-10.93A8,8,0,0,0,722.67,603.56Zm-1.62,12.24c-.17,1-.56,3.44-2.49,4.24a3.26,3.26,0,0,1-2.73-.17h0c-1.89-1.12-1.94-4.18-2-5.83v-.49c0-1.68,0-6.16,2.81-6.87a2.84,2.84,0,0,1,.75-.1,3.55,3.55,0,0,1,2.19.76C721.84,609.15,721.27,614.28,721.05,615.8Z"/><path d="M749.54,620.19a3,3,0,0,1-.68-2.39v-7.33c0-2.64.06-4.91-3.47-6.6s-7.62-.92-11.51,1.83l-.16.11,1,2.55.27-.25a6,6,0,0,1,1.4-1,4.17,4.17,0,0,1,3.48-.48c1.68.67,2.13,2.06,2.34,3.5a12.8,12.8,0,0,1-2.9,1.28,7.46,7.46,0,0,1-.85.26l-.27.08-.77.24c-2.26.71-4.22,1.32-5.18,3.38a5.74,5.74,0,0,0,.1,5.14,5.62,5.62,0,0,0,3.89,2.75,5.52,5.52,0,0,0,1.14.12,8.56,8.56,0,0,0,5.26-2.29,16.35,16.35,0,0,0,1.83,1.5c1.26.72,3.33.58,6.33-.43l.17-.06v-1.66h-.25A2,2,0,0,1,749.54,620.19Zm-8.51-.93a1.56,1.56,0,0,1-1.34.17c-.6-.21-.88-.65-1-1.59-.13-1.2-.15-2.9,1.27-3.85a9.78,9.78,0,0,1,2.2-.94h.05v2.17C742.22,617.62,742.22,618.53,741,619.26Z"/><path d="M764.87,603.25c-2.58.28-3.63.78-5.16,2.62,0-.22,0-.39,0-.55a11.09,11.09,0,0,1,0-1.65l0-.3-.3,0s-1.9.23-3,.23a31.75,31.75,0,0,1-3.17-.23l-.3,0,0,.29c0,.06.28,5.74.28,9.33s-.28,9.49-.28,9.55l0,.3.3,0s2-.22,3.29-.22,3.36.22,3.38.22l.28,0L760,614.3c0-.21,0-.44,0-.69-.07-1.29-.15-2.9,1.41-3.9,1.2-.78,2.55-.78,4.51,0l.35.13v-.37c0-.55,0-1,0-1.47a22.56,22.56,0,0,1,.2-4.49l0-.26-.26,0A7.57,7.57,0,0,0,764.87,603.25Z"/><path d="M784.59,603.56a9.47,9.47,0,0,0-8.59,1.25c0-1-.1-3.41-.07-5,0-2.14.4-5.61.4-5.65l0-.31-.31,0s-2,.22-3.22.22-3.35-.22-3.37-.22l-.28,0v.28c0,.09.08,9.29,0,15.11,0,8.67-.36,13.14-.36,13.19l0,.26h2.72l2.14-2.16c2.25,1.88,3.82,2.64,5.95,2.88a7.15,7.15,0,0,0,.82,0,10.22,10.22,0,0,0,7-2.9,11.75,11.75,0,0,0,2.57-10.93A8,8,0,0,0,784.59,603.56ZM783,615.8c-.17,1-.56,3.44-2.49,4.24a3.19,3.19,0,0,1-2.73-.17h0c-1.88-1.12-1.94-4.19-2-5.83v-.49c0-1.69,0-6.16,2.81-6.87a2.84,2.84,0,0,1,.75-.1,3.55,3.55,0,0,1,2.19.76C783.76,609.15,783.2,614.28,783,615.8Z"/><path d="M801.37,603.22a9,9,0,0,0-7.16,5.81c-1.22,3.09-1.21,7.62,1.54,10.76s6.41,3.61,8.82,3.61a15.16,15.16,0,0,0,1.85-.11,11.1,11.1,0,0,0,3.83-1,3.93,3.93,0,0,0,1.5-1.26,7.21,7.21,0,0,0,.85-1.65l0-.13-1-1.17-.19.11c-2.58,1.62-5.59,2-7.66,1s-2.73-3.45-2.77-5.37h12.23v-.25c0-2.31,0-5.8-1.93-7.79C808.75,603,803.85,602.76,801.37,603.22Zm5.15,7.53H801c.16-1.53.73-4.17,1.94-4.77a2.16,2.16,0,0,1,2,.1C806.42,607,806.53,609.85,806.52,610.75Z"/><path d="M828.38,603.25c-2.59.28-3.64.78-5.17,2.62,0-.22,0-.39,0-.55a9.48,9.48,0,0,1,0-1.65l0-.3-.3,0s-1.9.23-3,.23-3.15-.22-3.17-.23l-.29,0v.29c0,.06.28,5.74.28,9.33s-.28,9.49-.28,9.55v.3l.29,0s2-.22,3.29-.22,3.36.22,3.38.22l.29,0-.25-8.53c0-.21,0-.44,0-.69-.06-1.29-.15-2.9,1.41-3.9,1.2-.78,2.55-.78,4.51,0l.35.13v-.37c0-.55,0-1,0-1.47a21.82,21.82,0,0,1,.2-4.49l0-.26-.26,0A7.43,7.43,0,0,0,828.38,603.25Z"/><path d="M840.1,603.37l-.29,0s-2.2.23-3.5.23c-1.59,0-3.6-.22-3.63-.23l-.29,0,0,.29c0,.06.28,5.82.28,9.48s-.28,9.35-.28,9.4l0,.29.29,0s2.08-.22,3.58-.22c1.31,0,3.52.22,3.55.22l.29,0,0-.29c0-.06-.32-5.89-.32-9.59s.32-9.23.32-9.28Z"/><path d="M834.4,600.57a3.78,3.78,0,0,0,1.8.42,4.07,4.07,0,0,0,1.67-.34,3.59,3.59,0,0,0,2.17-2.77,3.48,3.48,0,0,0-1.39-3.24h0a4,4,0,0,0-3.43-.68,6.67,6.67,0,0,0-1.34.57,3.35,3.35,0,0,0-1.47,3.06A3.71,3.71,0,0,0,834.4,600.57Z"/><path d="M862.33,622.13v-1.66h-.25a1.89,1.89,0,0,1-1.13-.28,3,3,0,0,1-.69-2.39v-6.61c0-.24,0-.48,0-.72,0-2.64.05-4.91-3.47-6.6s-7.63-.92-11.52,1.83l-.16.11,1,2.55.27-.25a6.11,6.11,0,0,1,1.41-1,4.16,4.16,0,0,1,3.48-.48c1.67.67,2.12,2.06,2.33,3.5a12.74,12.74,0,0,1-2.89,1.28c-.31.12-.57.18-.85.26l-.28.08-.77.24c-2.26.71-4.22,1.32-5.17,3.38a5.74,5.74,0,0,0,.09,5.14,5.62,5.62,0,0,0,3.89,2.75,5.54,5.54,0,0,0,1.15.12,8.58,8.58,0,0,0,5.26-2.29,14.63,14.63,0,0,0,1.83,1.5c1.26.72,3.33.58,6.32-.43Zm-9.9-2.87a1.54,1.54,0,0,1-1.33.17c-.61-.21-.89-.65-1-1.59-.14-1.2-.16-2.9,1.26-3.85a10,10,0,0,1,2.2-.94h.05v2.17C853.62,617.62,853.62,618.53,852.43,619.26Z"/><rect x="862.11" y="624.97" width="20.76" height="2.38"/><path d="M904.73,603.37l-.29,0s-2.07.23-3.33.23-3.24-.22-3.26-.23l-.28,0,.16,10.11v.36c0,2.16,0,3.86-1.85,4.89a3.09,3.09,0,0,1-2.57.08c-.91-.49-2-1.91-1.82-5.91a1.82,1.82,0,0,0,0-.2l.25-9.33-.29,0s-2,.23-3.25.23-3.24-.22-3.26-.23l-.28,0v.29c0,.05.17,4.6.17,7.49,0,1.63-.16,4.16-.17,4.2v.38c0,2.78,0,5.18,3.51,6.83a8.3,8.3,0,0,0,3.51.84,10.46,10.46,0,0,0,5.83-2.17v1.6l.28,0s2.11-.22,3.42-.22,3.19.22,3.21.22l.29,0v-.3c0-.06-.24-6.22-.24-10.11,0-3.41.24-8.71.24-8.77Z"/><path d="M927.42,610.8c0-2.45.1-5.5-3.31-7.07-2.69-1.28-6.09-.77-9.19,1.35,0-.2,0-.33,0-.45a6.63,6.63,0,0,1,0-1v-.29l-.29,0s-2,.23-3.21.23-3.24-.22-3.26-.23l-.29,0,0,.3s.24,4.25.24,9.28c0,5.85-.24,9.55-.24,9.59l0,.3.29,0s2-.22,3.3-.22,3.48.22,3.5.22l.28,0-.33-9.28v-.18c0-3.2.57-5.18,1.81-5.9a2.65,2.65,0,0,1,2.49,0c.85.43,1.83,1.66,1.65,5,0,.08,0,.13,0,.15l-.45,10.23.28,0s2.15-.22,3.5-.22,3.24.22,3.26.22l.28,0-.29-11.72Z"/><path d="M950.89,606.14h0c-3-3.11-8.63-3.25-10.55-3a15.29,15.29,0,0,0-4.13,1.27,9.7,9.7,0,0,0-5.28,8.3,9.42,9.42,0,0,0,3.75,8.66,11.9,11.9,0,0,0,7,2.08,14.17,14.17,0,0,0,4.19-.62c3.84-1.22,6-3.34,7-6.88C953.69,613.06,953.4,608.79,950.89,606.14Zm-7.22,13.92a2.93,2.93,0,0,1-2.53.42,4.16,4.16,0,0,1-2.43-3.09c-.51-2-1.26-9.71,2.12-11a3.71,3.71,0,0,1,2.86.36c2.21,1.33,2.27,5.92,2.27,6C946,614.29,946.09,618.51,943.67,620.06Z"/><path d="M972.73,607.93a6.72,6.72,0,1,0,6.72,6.72A6.73,6.73,0,0,0,972.73,607.93Z"/><path d="M657.45,607.93a6.72,6.72,0,1,0,6.72,6.72A6.73,6.73,0,0,0,657.45,607.93Z"/><circle cx="351.34" cy="614.65" r="6.72"/></svg>